<?xml version="1.0" encoding="utf-8" standalone="no"?>
<!DOCTYPE svg PUBLIC "-//W3C//DTD SVG 1.1//EN"
  "http://www.w3.org/Graphics/SVG/1.1/DTD/svg11.dtd">
<svg xmlns:xlink="http://www.w3.org/1999/xlink" width="648pt" height="266.4pt" viewBox="0 0 648 266.4" xmlns="http://www.w3.org/2000/svg" version="1.1">
 <metadata>
  <rdf:RDF xmlns:dc="http://purl.org/dc/elements/1.1/" xmlns:cc="http://creativecommons.org/ns#" xmlns:rdf="http://www.w3.org/1999/02/22-rdf-syntax-ns#">
   <cc:Work>
    <dc:type rdf:resource="http://purl.org/dc/dcmitype/StillImage"/>
    <dc:date>2023-06-21T16:54:12.629596</dc:date>
    <dc:format>image/svg+xml</dc:format>
    <dc:creator>
     <cc:Agent>
      <dc:title>Matplotlib v3.6.1, https://matplotlib.org/</dc:title>
     </cc:Agent>
    </dc:creator>
   </cc:Work>
  </rdf:RDF>
 </metadata>
 <defs>
  <style type="text/css">*{stroke-linejoin: round; stroke-linecap: butt}</style>
 </defs>
 <g id="figure_1">
  <g id="patch_1">
   <path d="M 0 266.4 
L 648 266.4 
L 648 0 
L 0 0 
z
" style="fill: #ffffff"/>
  </g>
  <g id="axes_1">
   <g id="patch_2">
    <path d="M 253.645714 119.88 
C 253.645714 108.33145 251.370902 96.895195 246.951463 86.225726 
C 242.532024 75.556256 236.053906 65.861068 227.887848 57.695009 
C 219.72179 49.528951 210.026601 43.050833 199.357132 38.631394 
C 188.687662 34.211955 177.251407 31.937143 165.702857 31.937143 
C 154.154307 31.937143 142.718052 34.211955 132.048583 38.631394 
C 121.379114 43.050833 111.683925 49.528951 103.517867 57.695009 
C 95.351808 65.861068 88.87369 75.556256 84.454251 86.225726 
C 80.034813 96.895195 77.76 108.33145 77.76 119.88 
C 77.76 131.42855 80.034813 142.864805 84.454251 153.534274 
C 88.87369 164.203744 95.351808 173.898932 103.517867 182.064991 
C 111.683925 190.231049 121.379114 196.709167 132.048583 201.128606 
C 142.718052 205.548045 154.154307 207.822857 165.702857 207.822857 
C 177.251407 207.822857 188.687662 205.548045 199.357132 201.128606 
C 210.026601 196.709167 219.72179 190.231049 227.887848 182.064991 
C 236.053906 173.898932 242.532024 164.203744 246.951463 153.534274 
C 251.370902 142.864805 253.645714 131.42855 253.645714 119.88 
M 165.702857 119.88 
C 165.702857 119.88 165.702857 119.88 165.702857 119.88 
C 165.702857 119.88 165.702857 119.88 165.702857 119.88 
C 165.702857 119.88 165.702857 119.88 165.702857 119.88 
C 165.702857 119.88 165.702857 119.88 165.702857 119.88 
C 165.702857 119.88 165.702857 119.88 165.702857 119.88 
C 165.702857 119.88 165.702857 119.88 165.702857 119.88 
C 165.702857 119.88 165.702857 119.88 165.702857 119.88 
C 165.702857 119.88 165.702857 119.88 165.702857 119.88 
C 165.702857 119.88 165.702857 119.88 165.702857 119.88 
C 165.702857 119.88 165.702857 119.88 165.702857 119.88 
C 165.702857 119.88 165.702857 119.88 165.702857 119.88 
C 165.702857 119.88 165.702857 119.88 165.702857 119.88 
C 165.702857 119.88 165.702857 119.88 165.702857 119.88 
C 165.702857 119.88 165.702857 119.88 165.702857 119.88 
C 165.702857 119.88 165.702857 119.88 165.702857 119.88 
C 165.702857 119.88 165.702857 119.88 165.702857 119.88 
M 253.645714 119.88 
z
" style="fill: #fbfbfc"/>
   </g>
   <g id="patch_3">
    <path d="M 165.702857 39.265715 
L 208.543278 144.613929 
L 108.582296 152.858571 
z
" clip-path="url(#pa2181da275)" style="fill: #006400; opacity: 0.25; stroke: #006400; stroke-linejoin: miter"/>
   </g>
   <g id="patch_4">
    <path d="M 165.702857 86.901429 
L 177.602974 126.750536 
L 117.15038 147.911786 
z
" clip-path="url(#pa2181da275)" style="fill: #6495ed; opacity: 0.25; stroke: #6495ed; stroke-linejoin: miter"/>
   </g>
   <g id="matplotlib.axis_1">
    <g id="xtick_1">
     <g id="line2d_1">
      <path d="M 165.702857 119.88 
L 165.702857 31.937143 
" clip-path="url(#pa2181da275)" style="fill: none; stroke: #aaaaaa; stroke-width: 0.8; stroke-linecap: square"/>
     </g>
     <g id="text_1">
      <!-- Data -->
      <g style="fill: #222222" transform="translate(151.37692 14.529705) scale(0.12 -0.12)">
       <defs>
        <path id="DejaVuSans-44" d="M 1259 4147 
L 1259 519 
L 2022 519 
Q 2988 519 3436 956 
Q 3884 1394 3884 2338 
Q 3884 3275 3436 3711 
Q 2988 4147 2022 4147 
L 1259 4147 
z
M 628 4666 
L 1925 4666 
Q 3281 4666 3915 4102 
Q 4550 3538 4550 2338 
Q 4550 1131 3912 565 
Q 3275 0 1925 0 
L 628 0 
L 628 4666 
z
" transform="scale(0.015625)"/>
        <path id="DejaVuSans-61" d="M 2194 1759 
Q 1497 1759 1228 1600 
Q 959 1441 959 1056 
Q 959 750 1161 570 
Q 1363 391 1709 391 
Q 2188 391 2477 730 
Q 2766 1069 2766 1631 
L 2766 1759 
L 2194 1759 
z
M 3341 1997 
L 3341 0 
L 2766 0 
L 2766 531 
Q 2569 213 2275 61 
Q 1981 -91 1556 -91 
Q 1019 -91 701 211 
Q 384 513 384 1019 
Q 384 1609 779 1909 
Q 1175 2209 1959 2209 
L 2766 2209 
L 2766 2266 
Q 2766 2663 2505 2880 
Q 2244 3097 1772 3097 
Q 1472 3097 1187 3025 
Q 903 2953 641 2809 
L 641 3341 
Q 956 3463 1253 3523 
Q 1550 3584 1831 3584 
Q 2591 3584 2966 3190 
Q 3341 2797 3341 1997 
z
" transform="scale(0.015625)"/>
        <path id="DejaVuSans-74" d="M 1172 4494 
L 1172 3500 
L 2356 3500 
L 2356 3053 
L 1172 3053 
L 1172 1153 
Q 1172 725 1289 603 
Q 1406 481 1766 481 
L 2356 481 
L 2356 0 
L 1766 0 
Q 1100 0 847 248 
Q 594 497 594 1153 
L 594 3053 
L 172 3053 
L 172 3500 
L 594 3500 
L 594 4494 
L 1172 4494 
z
" transform="scale(0.015625)"/>
       </defs>
       <use xlink:href="#DejaVuSans-44"/>
       <use xlink:href="#DejaVuSans-61" x="77.001953"/>
       <use xlink:href="#DejaVuSans-74" x="138.28125"/>
       <use xlink:href="#DejaVuSans-61" x="177.490234"/>
      </g>
      <!-- Collection -->
      <g style="fill: #222222" transform="translate(136.02442 27.96708) scale(0.12 -0.12)">
       <defs>
        <path id="DejaVuSans-43" d="M 4122 4306 
L 4122 3641 
Q 3803 3938 3442 4084 
Q 3081 4231 2675 4231 
Q 1875 4231 1450 3742 
Q 1025 3253 1025 2328 
Q 1025 1406 1450 917 
Q 1875 428 2675 428 
Q 3081 428 3442 575 
Q 3803 722 4122 1019 
L 4122 359 
Q 3791 134 3420 21 
Q 3050 -91 2638 -91 
Q 1578 -91 968 557 
Q 359 1206 359 2328 
Q 359 3453 968 4101 
Q 1578 4750 2638 4750 
Q 3056 4750 3426 4639 
Q 3797 4528 4122 4306 
z
" transform="scale(0.015625)"/>
        <path id="DejaVuSans-6f" d="M 1959 3097 
Q 1497 3097 1228 2736 
Q 959 2375 959 1747 
Q 959 1119 1226 758 
Q 1494 397 1959 397 
Q 2419 397 2687 759 
Q 2956 1122 2956 1747 
Q 2956 2369 2687 2733 
Q 2419 3097 1959 3097 
z
M 1959 3584 
Q 2709 3584 3137 3096 
Q 3566 2609 3566 1747 
Q 3566 888 3137 398 
Q 2709 -91 1959 -91 
Q 1206 -91 779 398 
Q 353 888 353 1747 
Q 353 2609 779 3096 
Q 1206 3584 1959 3584 
z
" transform="scale(0.015625)"/>
        <path id="DejaVuSans-6c" d="M 603 4863 
L 1178 4863 
L 1178 0 
L 603 0 
L 603 4863 
z
" transform="scale(0.015625)"/>
        <path id="DejaVuSans-65" d="M 3597 1894 
L 3597 1613 
L 953 1613 
Q 991 1019 1311 708 
Q 1631 397 2203 397 
Q 2534 397 2845 478 
Q 3156 559 3463 722 
L 3463 178 
Q 3153 47 2828 -22 
Q 2503 -91 2169 -91 
Q 1331 -91 842 396 
Q 353 884 353 1716 
Q 353 2575 817 3079 
Q 1281 3584 2069 3584 
Q 2775 3584 3186 3129 
Q 3597 2675 3597 1894 
z
M 3022 2063 
Q 3016 2534 2758 2815 
Q 2500 3097 2075 3097 
Q 1594 3097 1305 2825 
Q 1016 2553 972 2059 
L 3022 2063 
z
" transform="scale(0.015625)"/>
        <path id="DejaVuSans-63" d="M 3122 3366 
L 3122 2828 
Q 2878 2963 2633 3030 
Q 2388 3097 2138 3097 
Q 1578 3097 1268 2742 
Q 959 2388 959 1747 
Q 959 1106 1268 751 
Q 1578 397 2138 397 
Q 2388 397 2633 464 
Q 2878 531 3122 666 
L 3122 134 
Q 2881 22 2623 -34 
Q 2366 -91 2075 -91 
Q 1284 -91 818 406 
Q 353 903 353 1747 
Q 353 2603 823 3093 
Q 1294 3584 2113 3584 
Q 2378 3584 2631 3529 
Q 2884 3475 3122 3366 
z
" transform="scale(0.015625)"/>
        <path id="DejaVuSans-69" d="M 603 3500 
L 1178 3500 
L 1178 0 
L 603 0 
L 603 3500 
z
M 603 4863 
L 1178 4863 
L 1178 4134 
L 603 4134 
L 603 4863 
z
" transform="scale(0.015625)"/>
        <path id="DejaVuSans-6e" d="M 3513 2113 
L 3513 0 
L 2938 0 
L 2938 2094 
Q 2938 2591 2744 2837 
Q 2550 3084 2163 3084 
Q 1697 3084 1428 2787 
Q 1159 2491 1159 1978 
L 1159 0 
L 581 0 
L 581 3500 
L 1159 3500 
L 1159 2956 
Q 1366 3272 1645 3428 
Q 1925 3584 2291 3584 
Q 2894 3584 3203 3211 
Q 3513 2838 3513 2113 
z
" transform="scale(0.015625)"/>
       </defs>
       <use xlink:href="#DejaVuSans-43"/>
       <use xlink:href="#DejaVuSans-6f" x="69.824219"/>
       <use xlink:href="#DejaVuSans-6c" x="131.005859"/>
       <use xlink:href="#DejaVuSans-6c" x="158.789062"/>
       <use xlink:href="#DejaVuSans-65" x="186.572266"/>
       <use xlink:href="#DejaVuSans-63" x="248.095703"/>
       <use xlink:href="#DejaVuSans-74" x="303.076172"/>
       <use xlink:href="#DejaVuSans-69" x="342.285156"/>
       <use xlink:href="#DejaVuSans-6f" x="370.068359"/>
       <use xlink:href="#DejaVuSans-6e" x="431.25"/>
      </g>
     </g>
    </g>
    <g id="xtick_2">
     <g id="line2d_2">
      <path d="M 165.702857 119.88 
L 241.863606 163.851429 
" clip-path="url(#pa2181da275)" style="fill: none; stroke: #aaaaaa; stroke-width: 0.8; stroke-linecap: square"/>
     </g>
     <g id="text_2">
      <!-- Data -->
      <g style="fill: #222222" transform="translate(250.179924 165.24542) scale(0.12 -0.12)">
       <use xlink:href="#DejaVuSans-44"/>
       <use xlink:href="#DejaVuSans-61" x="77.001953"/>
       <use xlink:href="#DejaVuSans-74" x="138.28125"/>
       <use xlink:href="#DejaVuSans-61" x="177.490234"/>
      </g>
      <!-- Maintenance -->
      <g style="fill: #222222" transform="translate(250.179924 178.682795) scale(0.12 -0.12)">
       <defs>
        <path id="DejaVuSans-4d" d="M 628 4666 
L 1569 4666 
L 2759 1491 
L 3956 4666 
L 4897 4666 
L 4897 0 
L 4281 0 
L 4281 4097 
L 3078 897 
L 2444 897 
L 1241 4097 
L 1241 0 
L 628 0 
L 628 4666 
z
" transform="scale(0.015625)"/>
       </defs>
       <use xlink:href="#DejaVuSans-4d"/>
       <use xlink:href="#DejaVuSans-61" x="86.279297"/>
       <use xlink:href="#DejaVuSans-69" x="147.558594"/>
       <use xlink:href="#DejaVuSans-6e" x="175.341797"/>
       <use xlink:href="#DejaVuSans-74" x="238.720703"/>
       <use xlink:href="#DejaVuSans-65" x="277.929688"/>
       <use xlink:href="#DejaVuSans-6e" x="339.453125"/>
       <use xlink:href="#DejaVuSans-61" x="402.832031"/>
       <use xlink:href="#DejaVuSans-6e" x="464.111328"/>
       <use xlink:href="#DejaVuSans-63" x="527.490234"/>
       <use xlink:href="#DejaVuSans-65" x="582.470703"/>
      </g>
     </g>
    </g>
    <g id="xtick_3">
     <g id="line2d_3">
      <path d="M 165.702857 119.88 
L 89.542109 163.851429 
" clip-path="url(#pa2181da275)" style="fill: none; stroke: #aaaaaa; stroke-width: 0.8; stroke-linecap: square"/>
     </g>
     <g id="text_3">
      <!-- Data -->
      <g style="fill: #222222" transform="translate(52.573916 165.24542) scale(0.12 -0.12)">
       <use xlink:href="#DejaVuSans-44"/>
       <use xlink:href="#DejaVuSans-61" x="77.001953"/>
       <use xlink:href="#DejaVuSans-74" x="138.28125"/>
       <use xlink:href="#DejaVuSans-61" x="177.490234"/>
      </g>
      <!-- Usage -->
      <g style="fill: #222222" transform="translate(43.836416 178.682795) scale(0.12 -0.12)">
       <defs>
        <path id="DejaVuSans-55" d="M 556 4666 
L 1191 4666 
L 1191 1831 
Q 1191 1081 1462 751 
Q 1734 422 2344 422 
Q 2950 422 3222 751 
Q 3494 1081 3494 1831 
L 3494 4666 
L 4128 4666 
L 4128 1753 
Q 4128 841 3676 375 
Q 3225 -91 2344 -91 
Q 1459 -91 1007 375 
Q 556 841 556 1753 
L 556 4666 
z
" transform="scale(0.015625)"/>
        <path id="DejaVuSans-73" d="M 2834 3397 
L 2834 2853 
Q 2591 2978 2328 3040 
Q 2066 3103 1784 3103 
Q 1356 3103 1142 2972 
Q 928 2841 928 2578 
Q 928 2378 1081 2264 
Q 1234 2150 1697 2047 
L 1894 2003 
Q 2506 1872 2764 1633 
Q 3022 1394 3022 966 
Q 3022 478 2636 193 
Q 2250 -91 1575 -91 
Q 1294 -91 989 -36 
Q 684 19 347 128 
L 347 722 
Q 666 556 975 473 
Q 1284 391 1588 391 
Q 1994 391 2212 530 
Q 2431 669 2431 922 
Q 2431 1156 2273 1281 
Q 2116 1406 1581 1522 
L 1381 1569 
Q 847 1681 609 1914 
Q 372 2147 372 2553 
Q 372 3047 722 3315 
Q 1072 3584 1716 3584 
Q 2034 3584 2315 3537 
Q 2597 3491 2834 3397 
z
" transform="scale(0.015625)"/>
        <path id="DejaVuSans-67" d="M 2906 1791 
Q 2906 2416 2648 2759 
Q 2391 3103 1925 3103 
Q 1463 3103 1205 2759 
Q 947 2416 947 1791 
Q 947 1169 1205 825 
Q 1463 481 1925 481 
Q 2391 481 2648 825 
Q 2906 1169 2906 1791 
z
M 3481 434 
Q 3481 -459 3084 -895 
Q 2688 -1331 1869 -1331 
Q 1566 -1331 1297 -1286 
Q 1028 -1241 775 -1147 
L 775 -588 
Q 1028 -725 1275 -790 
Q 1522 -856 1778 -856 
Q 2344 -856 2625 -561 
Q 2906 -266 2906 331 
L 2906 616 
Q 2728 306 2450 153 
Q 2172 0 1784 0 
Q 1141 0 747 490 
Q 353 981 353 1791 
Q 353 2603 747 3093 
Q 1141 3584 1784 3584 
Q 2172 3584 2450 3431 
Q 2728 3278 2906 2969 
L 2906 3500 
L 3481 3500 
L 3481 434 
z
" transform="scale(0.015625)"/>
       </defs>
       <use xlink:href="#DejaVuSans-55"/>
       <use xlink:href="#DejaVuSans-73" x="73.193359"/>
       <use xlink:href="#DejaVuSans-61" x="125.292969"/>
       <use xlink:href="#DejaVuSans-67" x="186.572266"/>
       <use xlink:href="#DejaVuSans-65" x="250.048828"/>
      </g>
     </g>
    </g>
    <g id="xtick_4">
     <g id="line2d_4">
      <path d="M 165.702857 119.88 
L 165.702857 31.937143 
" clip-path="url(#pa2181da275)" style="fill: none; stroke: #aaaaaa; stroke-width: 0.8; stroke-linecap: square"/>
     </g>
    </g>
   </g>
   <g id="matplotlib.axis_2">
    <g id="ytick_1">
     <g id="line2d_5">
      <path d="M 165.702857 108.887143 
C 167.146426 108.887143 168.575958 109.171494 169.909641 109.723924 
C 171.243325 110.276354 172.455224 111.086119 173.475981 112.106876 
C 174.496738 113.127633 175.306503 114.339532 175.858933 115.673216 
C 176.411363 117.006899 176.695714 118.436431 176.695714 119.88 
C 176.695714 121.323569 176.411363 122.753101 175.858933 124.086784 
C 175.306503 125.420468 174.496738 126.632367 173.475981 127.653124 
C 172.455224 128.673881 171.243325 129.483646 169.909641 130.036076 
C 168.575958 130.588506 167.146426 130.872857 165.702857 130.872857 
C 164.259288 130.872857 162.829756 130.588506 161.496073 130.036076 
C 160.162389 129.483646 158.950491 128.673881 157.929733 127.653124 
C 156.908976 126.632367 156.099211 125.420468 155.546781 124.086784 
C 154.994352 122.753101 154.71 121.323569 154.71 119.88 
C 154.71 118.436431 154.994352 117.006899 155.546781 115.673216 
C 156.099211 114.339532 156.908976 113.127633 157.929733 112.106876 
C 158.950491 111.086119 160.162389 110.276354 161.496073 109.723924 
C 162.829756 109.171494 164.259288 108.887143 165.702857 108.887143 
" clip-path="url(#pa2181da275)" style="fill: none; stroke-dasharray: 2.96,1.28; stroke-dashoffset: 0; stroke: #aaaaaa; stroke-width: 0.8"/>
     </g>
     <g id="text_5">
      <!-- 20% -->
      <g style="fill: #222222" transform="translate(173.475981 109.611251) scale(0.12 -0.12)">
       <defs>
        <path id="DejaVuSans-32" d="M 1228 531 
L 3431 531 
L 3431 0 
L 469 0 
L 469 531 
Q 828 903 1448 1529 
Q 2069 2156 2228 2338 
Q 2531 2678 2651 2914 
Q 2772 3150 2772 3378 
Q 2772 3750 2511 3984 
Q 2250 4219 1831 4219 
Q 1534 4219 1204 4116 
Q 875 4013 500 3803 
L 500 4441 
Q 881 4594 1212 4672 
Q 1544 4750 1819 4750 
Q 2544 4750 2975 4387 
Q 3406 4025 3406 3419 
Q 3406 3131 3298 2873 
Q 3191 2616 2906 2266 
Q 2828 2175 2409 1742 
Q 1991 1309 1228 531 
z
" transform="scale(0.015625)"/>
        <path id="DejaVuSans-30" d="M 2034 4250 
Q 1547 4250 1301 3770 
Q 1056 3291 1056 2328 
Q 1056 1369 1301 889 
Q 1547 409 2034 409 
Q 2525 409 2770 889 
Q 3016 1369 3016 2328 
Q 3016 3291 2770 3770 
Q 2525 4250 2034 4250 
z
M 2034 4750 
Q 2819 4750 3233 4129 
Q 3647 3509 3647 2328 
Q 3647 1150 3233 529 
Q 2819 -91 2034 -91 
Q 1250 -91 836 529 
Q 422 1150 422 2328 
Q 422 3509 836 4129 
Q 1250 4750 2034 4750 
z
" transform="scale(0.015625)"/>
        <path id="DejaVuSans-25" d="M 4653 2053 
Q 4381 2053 4226 1822 
Q 4072 1591 4072 1178 
Q 4072 772 4226 539 
Q 4381 306 4653 306 
Q 4919 306 5073 539 
Q 5228 772 5228 1178 
Q 5228 1588 5073 1820 
Q 4919 2053 4653 2053 
z
M 4653 2450 
Q 5147 2450 5437 2106 
Q 5728 1763 5728 1178 
Q 5728 594 5436 251 
Q 5144 -91 4653 -91 
Q 4153 -91 3862 251 
Q 3572 594 3572 1178 
Q 3572 1766 3864 2108 
Q 4156 2450 4653 2450 
z
M 1428 4353 
Q 1159 4353 1004 4120 
Q 850 3888 850 3481 
Q 850 3069 1003 2837 
Q 1156 2606 1428 2606 
Q 1700 2606 1854 2837 
Q 2009 3069 2009 3481 
Q 2009 3884 1853 4118 
Q 1697 4353 1428 4353 
z
M 4250 4750 
L 4750 4750 
L 1831 -91 
L 1331 -91 
L 4250 4750 
z
M 1428 4750 
Q 1922 4750 2215 4408 
Q 2509 4066 2509 3481 
Q 2509 2891 2217 2550 
Q 1925 2209 1428 2209 
Q 931 2209 642 2551 
Q 353 2894 353 3481 
Q 353 4063 643 4406 
Q 934 4750 1428 4750 
z
" transform="scale(0.015625)"/>
       </defs>
       <use xlink:href="#DejaVuSans-32"/>
       <use xlink:href="#DejaVuSans-30" x="63.623047"/>
       <use xlink:href="#DejaVuSans-25" x="127.246094"/>
      </g>
     </g>
    </g>
    <g id="ytick_2">
     <g id="line2d_6">
      <path d="M 165.702857 97.894286 
C 168.589995 97.894286 171.449058 98.462989 174.116426 99.567849 
C 176.783793 100.672708 179.20759 102.292238 181.249105 104.333752 
C 183.290619 106.375267 184.910149 108.799064 186.015009 111.466431 
C 187.119868 114.133799 187.688571 116.992862 187.688571 119.88 
C 187.688571 122.767138 187.119868 125.626201 186.015009 128.293569 
C 184.910149 130.960936 183.290619 133.384733 181.249105 135.426248 
C 179.20759 137.467762 176.783793 139.087292 174.116426 140.192151 
C 171.449058 141.297011 168.589995 141.865714 165.702857 141.865714 
C 162.81572 141.865714 159.956656 141.297011 157.289289 140.192151 
C 154.621921 139.087292 152.198124 137.467762 150.156609 135.426248 
C 148.115095 133.384733 146.495565 130.960936 145.390706 128.293569 
C 144.285846 125.626201 143.717143 122.767138 143.717143 119.88 
C 143.717143 116.992862 144.285846 114.133799 145.390706 111.466431 
C 146.495565 108.799064 148.115095 106.375267 150.156609 104.333752 
C 152.198124 102.292238 154.621921 100.672708 157.289289 99.567849 
C 159.956656 98.462989 162.81572 97.894286 165.702857 97.894286 
" clip-path="url(#pa2181da275)" style="fill: none; stroke: #aaaaaa; stroke-width: 0.8; stroke-linecap: square"/>
     </g>
    </g>
    <g id="ytick_3">
     <g id="line2d_7">
      <path d="M 165.702857 86.901429 
C 170.033563 86.901429 174.322159 87.754483 178.32321 89.411773 
C 182.324261 91.069062 185.959957 93.498357 189.022229 96.560629 
C 192.0845 99.6229 194.513795 103.258596 196.171084 107.259647 
C 197.828374 111.260698 198.681429 115.549294 198.681429 119.88 
C 198.681429 124.210706 197.828374 128.499302 196.171084 132.500353 
C 194.513795 136.501404 192.0845 140.1371 189.022229 143.199371 
C 185.959957 146.261643 182.324261 148.690938 178.32321 150.348227 
C 174.322159 152.005517 170.033563 152.858571 165.702857 152.858571 
C 161.372151 152.858571 157.083555 152.005517 153.082504 150.348227 
C 149.081453 148.690938 145.445757 146.261643 142.383486 143.199371 
C 139.321214 140.1371 136.89192 136.501404 135.23463 132.500353 
C 133.57734 128.499302 132.724286 124.210706 132.724286 119.88 
C 132.724286 115.549294 133.57734 111.260698 135.23463 107.259647 
C 136.89192 103.258596 139.321214 99.6229 142.383486 96.560629 
C 145.445757 93.498357 149.081453 91.069062 153.082504 89.411773 
C 157.083555 87.754483 161.372151 86.901429 165.702857 86.901429 
" clip-path="url(#pa2181da275)" style="fill: none; stroke-dasharray: 2.96,1.28; stroke-dashoffset: 0; stroke: #aaaaaa; stroke-width: 0.8"/>
     </g>
     <g id="text_6">
      <!-- 40% -->
      <g style="fill: #222222" transform="translate(189.022229 94.065004) scale(0.12 -0.12)">
       <defs>
        <path id="DejaVuSans-34" d="M 2419 4116 
L 825 1625 
L 2419 1625 
L 2419 4116 
z
M 2253 4666 
L 3047 4666 
L 3047 1625 
L 3713 1625 
L 3713 1100 
L 3047 1100 
L 3047 0 
L 2419 0 
L 2419 1100 
L 313 1100 
L 313 1709 
L 2253 4666 
z
" transform="scale(0.015625)"/>
       </defs>
       <use xlink:href="#DejaVuSans-34"/>
       <use xlink:href="#DejaVuSans-30" x="63.623047"/>
       <use xlink:href="#DejaVuSans-25" x="127.246094"/>
      </g>
     </g>
    </g>
    <g id="ytick_4">
     <g id="line2d_8">
      <path d="M 165.702857 75.908571 
C 171.477132 75.908571 177.19526 77.045978 182.529994 79.255697 
C 187.864729 81.465417 192.712323 84.704476 196.795352 88.787505 
C 200.878382 92.870534 204.117441 97.718128 206.32716 103.052863 
C 208.536879 108.387597 209.674286 114.105725 209.674286 119.88 
C 209.674286 125.654275 208.536879 131.372403 206.32716 136.707137 
C 204.117441 142.041872 200.878382 146.889466 196.795352 150.972495 
C 192.712323 155.055524 187.864729 158.294583 182.529994 160.504303 
C 177.19526 162.714022 171.477132 163.851429 165.702857 163.851429 
C 159.928582 163.851429 154.210455 162.714022 148.87572 160.504303 
C 143.540985 158.294583 138.693391 155.055524 134.610362 150.972495 
C 130.527333 146.889466 127.288274 142.041872 125.078554 136.707137 
C 122.868835 131.372403 121.731429 125.654275 121.731429 119.88 
C 121.731429 114.105725 122.868835 108.387597 125.078554 103.052863 
C 127.288274 97.718128 130.527333 92.870534 134.610362 88.787505 
C 138.693391 84.704476 143.540985 81.465417 148.87572 79.255697 
C 154.210455 77.045978 159.928582 75.908571 165.702857 75.908571 
" clip-path="url(#pa2181da275)" style="fill: none; stroke: #aaaaaa; stroke-width: 0.8; stroke-linecap: square"/>
     </g>
    </g>
    <g id="ytick_5">
     <g id="line2d_9">
      <path d="M 165.702857 64.915714 
C 172.920701 64.915714 180.06836 66.337472 186.736779 69.099621 
C 193.405197 71.861771 199.46469 75.910595 204.568476 81.014381 
C 209.672263 86.118167 213.721086 92.17766 216.483236 98.846078 
C 219.245385 105.514497 220.667143 112.662156 220.667143 119.88 
C 220.667143 127.097844 219.245385 134.245503 216.483236 140.913922 
C 213.721086 147.58234 209.672263 153.641833 204.568476 158.745619 
C 199.46469 163.849405 193.405197 167.898229 186.736779 170.660379 
C 180.06836 173.422528 172.920701 174.844286 165.702857 174.844286 
C 158.485013 174.844286 151.337354 173.422528 144.668936 170.660379 
C 138.000517 167.898229 131.941024 163.849405 126.837238 158.745619 
C 121.733452 153.641833 117.684628 147.58234 114.922479 140.913922 
C 112.160329 134.245503 110.738571 127.097844 110.738571 119.88 
C 110.738571 112.662156 112.160329 105.514497 114.922479 98.846078 
C 117.684628 92.17766 121.733452 86.118167 126.837238 81.014381 
C 131.941024 75.910595 138.000517 71.861771 144.668936 69.099621 
C 151.337354 66.337472 158.485013 64.915714 165.702857 64.915714 
" clip-path="url(#pa2181da275)" style="fill: none; stroke-dasharray: 2.96,1.28; stroke-dashoffset: 0; stroke: #aaaaaa; stroke-width: 0.8"/>
     </g>
     <g id="text_7">
      <!-- 60% -->
      <g style="fill: #222222" transform="translate(204.568476 78.518756) scale(0.12 -0.12)">
       <defs>
        <path id="DejaVuSans-36" d="M 2113 2584 
Q 1688 2584 1439 2293 
Q 1191 2003 1191 1497 
Q 1191 994 1439 701 
Q 1688 409 2113 409 
Q 2538 409 2786 701 
Q 3034 994 3034 1497 
Q 3034 2003 2786 2293 
Q 2538 2584 2113 2584 
z
M 3366 4563 
L 3366 3988 
Q 3128 4100 2886 4159 
Q 2644 4219 2406 4219 
Q 1781 4219 1451 3797 
Q 1122 3375 1075 2522 
Q 1259 2794 1537 2939 
Q 1816 3084 2150 3084 
Q 2853 3084 3261 2657 
Q 3669 2231 3669 1497 
Q 3669 778 3244 343 
Q 2819 -91 2113 -91 
Q 1303 -91 875 529 
Q 447 1150 447 2328 
Q 447 3434 972 4092 
Q 1497 4750 2381 4750 
Q 2619 4750 2861 4703 
Q 3103 4656 3366 4563 
z
" transform="scale(0.015625)"/>
       </defs>
       <use xlink:href="#DejaVuSans-36"/>
       <use xlink:href="#DejaVuSans-30" x="63.623047"/>
       <use xlink:href="#DejaVuSans-25" x="127.246094"/>
      </g>
     </g>
    </g>
    <g id="ytick_6">
     <g id="line2d_10">
      <path d="M 165.702857 53.922857 
C 174.36427 53.922857 182.941461 55.628967 190.943563 58.943546 
C 198.945665 62.258125 206.217057 67.116713 212.3416 73.241257 
C 218.466144 79.365801 223.324732 86.637192 226.639311 94.639294 
C 229.953891 102.641396 231.66 111.218587 231.66 119.88 
C 231.66 128.541413 229.953891 137.118604 226.639311 145.120706 
C 223.324732 153.122808 218.466144 160.394199 212.3416 166.518743 
C 206.217057 172.643287 198.945665 177.501875 190.943563 180.816454 
C 182.941461 184.131033 174.36427 185.837143 165.702857 185.837143 
C 157.041445 185.837143 148.464253 184.131033 140.462151 180.816454 
C 132.460049 177.501875 125.188658 172.643287 119.064114 166.518743 
C 112.939571 160.394199 108.080982 153.122808 104.766403 145.120706 
C 101.451824 137.118604 99.745714 128.541413 99.745714 119.88 
C 99.745714 111.218587 101.451824 102.641396 104.766403 94.639294 
C 108.080982 86.637192 112.939571 79.365801 119.064114 73.241257 
C 125.188658 67.116713 132.460049 62.258125 140.462151 58.943546 
C 148.464253 55.628967 157.041445 53.922857 165.702857 53.922857 
" clip-path="url(#pa2181da275)" style="fill: none; stroke: #aaaaaa; stroke-width: 0.8; stroke-linecap: square"/>
     </g>
    </g>
    <g id="ytick_7">
     <g id="line2d_11">
      <path d="M 165.702857 42.93 
C 175.807839 42.93 185.814562 44.920461 195.150347 48.78747 
C 204.486133 52.654479 212.969423 58.322832 220.114724 65.468133 
C 227.260025 72.613434 232.928378 81.096724 236.795387 90.43251 
C 240.662396 99.768295 242.652857 109.775019 242.652857 119.88 
C 242.652857 129.984981 240.662396 139.991705 236.795387 149.32749 
C 232.928378 158.663276 227.260025 167.146566 220.114724 174.291867 
C 212.969423 181.437168 204.486133 187.105521 195.150347 190.97253 
C 185.814562 194.839539 175.807839 196.83 165.702857 196.83 
C 155.597876 196.83 145.591153 194.839539 136.255367 190.97253 
C 126.919582 187.105521 118.436291 181.437168 111.29099 174.291867 
C 104.145689 167.146566 98.477336 158.663276 94.610327 149.32749 
C 90.743318 139.991705 88.752857 129.984981 88.752857 119.88 
C 88.752857 109.775019 90.743318 99.768295 94.610327 90.43251 
C 98.477336 81.096724 104.145689 72.613434 111.29099 65.468133 
C 118.436291 58.322832 126.919582 52.654479 136.255367 48.78747 
C 145.591153 44.920461 155.597876 42.93 165.702857 42.93 
" clip-path="url(#pa2181da275)" style="fill: none; stroke-dasharray: 2.96,1.28; stroke-dashoffset: 0; stroke: #aaaaaa; stroke-width: 0.8"/>
     </g>
     <g id="text_8">
      <!-- 80% -->
      <g style="fill: #222222" transform="translate(220.114724 62.972508) scale(0.12 -0.12)">
       <defs>
        <path id="DejaVuSans-38" d="M 2034 2216 
Q 1584 2216 1326 1975 
Q 1069 1734 1069 1313 
Q 1069 891 1326 650 
Q 1584 409 2034 409 
Q 2484 409 2743 651 
Q 3003 894 3003 1313 
Q 3003 1734 2745 1975 
Q 2488 2216 2034 2216 
z
M 1403 2484 
Q 997 2584 770 2862 
Q 544 3141 544 3541 
Q 544 4100 942 4425 
Q 1341 4750 2034 4750 
Q 2731 4750 3128 4425 
Q 3525 4100 3525 3541 
Q 3525 3141 3298 2862 
Q 3072 2584 2669 2484 
Q 3125 2378 3379 2068 
Q 3634 1759 3634 1313 
Q 3634 634 3220 271 
Q 2806 -91 2034 -91 
Q 1263 -91 848 271 
Q 434 634 434 1313 
Q 434 1759 690 2068 
Q 947 2378 1403 2484 
z
M 1172 3481 
Q 1172 3119 1398 2916 
Q 1625 2713 2034 2713 
Q 2441 2713 2670 2916 
Q 2900 3119 2900 3481 
Q 2900 3844 2670 4047 
Q 2441 4250 2034 4250 
Q 1625 4250 1398 4047 
Q 1172 3844 1172 3481 
z
" transform="scale(0.015625)"/>
       </defs>
       <use xlink:href="#DejaVuSans-38"/>
       <use xlink:href="#DejaVuSans-30" x="63.623047"/>
       <use xlink:href="#DejaVuSans-25" x="127.246094"/>
      </g>
     </g>
    </g>
    <g id="ytick_8">
     <g id="line2d_12">
      <path d="M 165.702857 31.937143 
C 177.251407 31.937143 188.687662 34.211955 199.357132 38.631394 
C 210.026601 43.050833 219.72179 49.528951 227.887848 57.695009 
C 236.053906 65.861068 242.532024 75.556256 246.951463 86.225726 
C 251.370902 96.895195 253.645714 108.33145 253.645714 119.88 
C 253.645714 131.42855 251.370902 142.864805 246.951463 153.534274 
C 242.532024 164.203744 236.053906 173.898932 227.887848 182.064991 
C 219.72179 190.231049 210.026601 196.709167 199.357132 201.128606 
C 188.687662 205.548045 177.251407 207.822857 165.702857 207.822857 
C 154.154307 207.822857 142.718052 205.548045 132.048583 201.128606 
C 121.379114 196.709167 111.683925 190.231049 103.517867 182.064991 
C 95.351808 173.898932 88.87369 164.203744 84.454251 153.534274 
C 80.034813 142.864805 77.76 131.42855 77.76 119.88 
C 77.76 108.33145 80.034813 96.895195 84.454251 86.225726 
C 88.87369 75.556256 95.351808 65.861068 103.517867 57.695009 
C 111.683925 49.528951 121.379114 43.050833 132.048583 38.631394 
C 142.718052 34.211955 154.154307 31.937143 165.702857 31.937143 
" clip-path="url(#pa2181da275)" style="fill: none; stroke: #aaaaaa; stroke-width: 0.8; stroke-linecap: square"/>
     </g>
    </g>
   </g>
   <g id="line2d_13">
    <path d="M 165.702857 39.265715 
L 208.543278 144.613929 
L 108.582296 152.858571 
L 165.702857 39.265715 
" clip-path="url(#pa2181da275)" style="fill: none; stroke: #006400; stroke-linecap: square"/>
   </g>
   <g id="line2d_14">
    <path d="M 165.702857 86.901429 
L 177.602974 126.750536 
L 117.15038 147.911786 
L 165.702857 86.901429 
" clip-path="url(#pa2181da275)" style="fill: none; stroke: #6495ed; stroke-linecap: square"/>
   </g>
   <g id="patch_5">
    <path d="M 165.702857 31.937143 
C 154.154307 31.937143 142.718052 34.211955 132.048583 38.631394 
C 121.379114 43.050833 111.683925 49.528951 103.517867 57.695009 
C 95.351808 65.861068 88.87369 75.556256 84.454251 86.225726 
C 80.034813 96.895195 77.76 108.33145 77.76 119.88 
C 77.76 131.42855 80.034813 142.864805 84.454251 153.534274 
C 88.87369 164.203744 95.351808 173.898932 103.517867 182.064991 
C 111.683925 190.231049 121.379114 196.709167 132.048583 201.128606 
C 142.718052 205.548045 154.154307 207.822857 165.702857 207.822857 
C 177.251407 207.822857 188.687662 205.548045 199.357132 201.128606 
C 210.026601 196.709167 219.72179 190.231049 227.887848 182.064991 
C 236.053906 173.898932 242.532024 164.203744 246.951463 153.534274 
C 251.370902 142.864805 253.645714 131.42855 253.645714 119.88 
C 253.645714 108.33145 251.370902 96.895195 246.951463 86.225726 
C 242.532024 75.556256 236.053906 65.861068 227.887848 57.695009 
C 219.72179 49.528951 210.026601 43.050833 199.357132 38.631394 
C 188.687662 34.211955 177.251407 31.937143 165.702857 31.937143 
" style="fill: none; stroke: #222222; stroke-width: 0.8; stroke-linejoin: miter; stroke-linecap: square"/>
   </g>
   <g id="legend_1">
    <g id="patch_6">
     <path d="M 10.843482 255.588571 
L 320.562232 255.588571 
Q 322.562232 255.588571 322.562232 253.588571 
L 322.562232 225.232321 
Q 322.562232 223.232321 320.562232 223.232321 
L 10.843482 223.232321 
Q 8.843482 223.232321 8.843482 225.232321 
L 8.843482 253.588571 
Q 8.843482 255.588571 10.843482 255.588571 
z
" style="fill: #ffffff; opacity: 0.8; stroke: #cccccc; stroke-linejoin: miter"/>
    </g>
    <g id="line2d_15">
     <path d="M 12.843482 231.330759 
L 22.843482 231.330759 
L 32.843482 231.330759 
" style="fill: none; stroke: #006400; stroke-linecap: square"/>
    </g>
    <g id="text_9">
     <!-- http://taxref.mnhn.fr/lod/taxref-ld -->
     <g transform="translate(40.843482 234.830759) scale(0.1 -0.1)">
      <defs>
       <path id="DejaVuSans-68" d="M 3513 2113 
L 3513 0 
L 2938 0 
L 2938 2094 
Q 2938 2591 2744 2837 
Q 2550 3084 2163 3084 
Q 1697 3084 1428 2787 
Q 1159 2491 1159 1978 
L 1159 0 
L 581 0 
L 581 4863 
L 1159 4863 
L 1159 2956 
Q 1366 3272 1645 3428 
Q 1925 3584 2291 3584 
Q 2894 3584 3203 3211 
Q 3513 2838 3513 2113 
z
" transform="scale(0.015625)"/>
       <path id="DejaVuSans-70" d="M 1159 525 
L 1159 -1331 
L 581 -1331 
L 581 3500 
L 1159 3500 
L 1159 2969 
Q 1341 3281 1617 3432 
Q 1894 3584 2278 3584 
Q 2916 3584 3314 3078 
Q 3713 2572 3713 1747 
Q 3713 922 3314 415 
Q 2916 -91 2278 -91 
Q 1894 -91 1617 61 
Q 1341 213 1159 525 
z
M 3116 1747 
Q 3116 2381 2855 2742 
Q 2594 3103 2138 3103 
Q 1681 3103 1420 2742 
Q 1159 2381 1159 1747 
Q 1159 1113 1420 752 
Q 1681 391 2138 391 
Q 2594 391 2855 752 
Q 3116 1113 3116 1747 
z
" transform="scale(0.015625)"/>
       <path id="DejaVuSans-3a" d="M 750 794 
L 1409 794 
L 1409 0 
L 750 0 
L 750 794 
z
M 750 3309 
L 1409 3309 
L 1409 2516 
L 750 2516 
L 750 3309 
z
" transform="scale(0.015625)"/>
       <path id="DejaVuSans-2f" d="M 1625 4666 
L 2156 4666 
L 531 -594 
L 0 -594 
L 1625 4666 
z
" transform="scale(0.015625)"/>
       <path id="DejaVuSans-78" d="M 3513 3500 
L 2247 1797 
L 3578 0 
L 2900 0 
L 1881 1375 
L 863 0 
L 184 0 
L 1544 1831 
L 300 3500 
L 978 3500 
L 1906 2253 
L 2834 3500 
L 3513 3500 
z
" transform="scale(0.015625)"/>
       <path id="DejaVuSans-72" d="M 2631 2963 
Q 2534 3019 2420 3045 
Q 2306 3072 2169 3072 
Q 1681 3072 1420 2755 
Q 1159 2438 1159 1844 
L 1159 0 
L 581 0 
L 581 3500 
L 1159 3500 
L 1159 2956 
Q 1341 3275 1631 3429 
Q 1922 3584 2338 3584 
Q 2397 3584 2469 3576 
Q 2541 3569 2628 3553 
L 2631 2963 
z
" transform="scale(0.015625)"/>
       <path id="DejaVuSans-66" d="M 2375 4863 
L 2375 4384 
L 1825 4384 
Q 1516 4384 1395 4259 
Q 1275 4134 1275 3809 
L 1275 3500 
L 2222 3500 
L 2222 3053 
L 1275 3053 
L 1275 0 
L 697 0 
L 697 3053 
L 147 3053 
L 147 3500 
L 697 3500 
L 697 3744 
Q 697 4328 969 4595 
Q 1241 4863 1831 4863 
L 2375 4863 
z
" transform="scale(0.015625)"/>
       <path id="DejaVuSans-2e" d="M 684 794 
L 1344 794 
L 1344 0 
L 684 0 
L 684 794 
z
" transform="scale(0.015625)"/>
       <path id="DejaVuSans-6d" d="M 3328 2828 
Q 3544 3216 3844 3400 
Q 4144 3584 4550 3584 
Q 5097 3584 5394 3201 
Q 5691 2819 5691 2113 
L 5691 0 
L 5113 0 
L 5113 2094 
Q 5113 2597 4934 2840 
Q 4756 3084 4391 3084 
Q 3944 3084 3684 2787 
Q 3425 2491 3425 1978 
L 3425 0 
L 2847 0 
L 2847 2094 
Q 2847 2600 2669 2842 
Q 2491 3084 2119 3084 
Q 1678 3084 1418 2786 
Q 1159 2488 1159 1978 
L 1159 0 
L 581 0 
L 581 3500 
L 1159 3500 
L 1159 2956 
Q 1356 3278 1631 3431 
Q 1906 3584 2284 3584 
Q 2666 3584 2933 3390 
Q 3200 3197 3328 2828 
z
" transform="scale(0.015625)"/>
       <path id="DejaVuSans-64" d="M 2906 2969 
L 2906 4863 
L 3481 4863 
L 3481 0 
L 2906 0 
L 2906 525 
Q 2725 213 2448 61 
Q 2172 -91 1784 -91 
Q 1150 -91 751 415 
Q 353 922 353 1747 
Q 353 2572 751 3078 
Q 1150 3584 1784 3584 
Q 2172 3584 2448 3432 
Q 2725 3281 2906 2969 
z
M 947 1747 
Q 947 1113 1208 752 
Q 1469 391 1925 391 
Q 2381 391 2643 752 
Q 2906 1113 2906 1747 
Q 2906 2381 2643 2742 
Q 2381 3103 1925 3103 
Q 1469 3103 1208 2742 
Q 947 2381 947 1747 
z
" transform="scale(0.015625)"/>
       <path id="DejaVuSans-2d" d="M 313 2009 
L 1997 2009 
L 1997 1497 
L 313 1497 
L 313 2009 
z
" transform="scale(0.015625)"/>
      </defs>
      <use xlink:href="#DejaVuSans-68"/>
      <use xlink:href="#DejaVuSans-74" x="63.378906"/>
      <use xlink:href="#DejaVuSans-74" x="102.587891"/>
      <use xlink:href="#DejaVuSans-70" x="141.796875"/>
      <use xlink:href="#DejaVuSans-3a" x="205.273438"/>
      <use xlink:href="#DejaVuSans-2f" x="238.964844"/>
      <use xlink:href="#DejaVuSans-2f" x="272.65625"/>
      <use xlink:href="#DejaVuSans-74" x="306.347656"/>
      <use xlink:href="#DejaVuSans-61" x="345.556641"/>
      <use xlink:href="#DejaVuSans-78" x="406.835938"/>
      <use xlink:href="#DejaVuSans-72" x="466.015625"/>
      <use xlink:href="#DejaVuSans-65" x="504.878906"/>
      <use xlink:href="#DejaVuSans-66" x="566.402344"/>
      <use xlink:href="#DejaVuSans-2e" x="594.357422"/>
      <use xlink:href="#DejaVuSans-6d" x="626.144531"/>
      <use xlink:href="#DejaVuSans-6e" x="723.556641"/>
      <use xlink:href="#DejaVuSans-68" x="786.935547"/>
      <use xlink:href="#DejaVuSans-6e" x="850.314453"/>
      <use xlink:href="#DejaVuSans-2e" x="913.693359"/>
      <use xlink:href="#DejaVuSans-66" x="945.480469"/>
      <use xlink:href="#DejaVuSans-72" x="980.685547"/>
      <use xlink:href="#DejaVuSans-2f" x="1021.798828"/>
      <use xlink:href="#DejaVuSans-6c" x="1055.490234"/>
      <use xlink:href="#DejaVuSans-6f" x="1083.273438"/>
      <use xlink:href="#DejaVuSans-64" x="1144.455078"/>
      <use xlink:href="#DejaVuSans-2f" x="1207.931641"/>
      <use xlink:href="#DejaVuSans-74" x="1241.623047"/>
      <use xlink:href="#DejaVuSans-61" x="1280.832031"/>
      <use xlink:href="#DejaVuSans-78" x="1342.111328"/>
      <use xlink:href="#DejaVuSans-72" x="1401.291016"/>
      <use xlink:href="#DejaVuSans-65" x="1440.154297"/>
      <use xlink:href="#DejaVuSans-66" x="1501.677734"/>
      <use xlink:href="#DejaVuSans-2d" x="1531.382812"/>
      <use xlink:href="#DejaVuSans-6c" x="1567.466797"/>
      <use xlink:href="#DejaVuSans-64" x="1595.25"/>
     </g>
    </g>
    <g id="line2d_16">
     <path d="M 12.843482 246.008884 
L 22.843482 246.008884 
L 32.843482 246.008884 
" style="fill: none; stroke: #6495ed; stroke-linecap: square"/>
    </g>
    <g id="text_10">
     <!-- http://rdf.muninn-project.org/ww1/muninn-ww1-dataset -->
     <g transform="translate(40.843482 249.508884) scale(0.1 -0.1)">
      <defs>
       <path id="DejaVuSans-75" d="M 544 1381 
L 544 3500 
L 1119 3500 
L 1119 1403 
Q 1119 906 1312 657 
Q 1506 409 1894 409 
Q 2359 409 2629 706 
Q 2900 1003 2900 1516 
L 2900 3500 
L 3475 3500 
L 3475 0 
L 2900 0 
L 2900 538 
Q 2691 219 2414 64 
Q 2138 -91 1772 -91 
Q 1169 -91 856 284 
Q 544 659 544 1381 
z
M 1991 3584 
L 1991 3584 
z
" transform="scale(0.015625)"/>
       <path id="DejaVuSans-6a" d="M 603 3500 
L 1178 3500 
L 1178 -63 
Q 1178 -731 923 -1031 
Q 669 -1331 103 -1331 
L -116 -1331 
L -116 -844 
L 38 -844 
Q 366 -844 484 -692 
Q 603 -541 603 -63 
L 603 3500 
z
M 603 4863 
L 1178 4863 
L 1178 4134 
L 603 4134 
L 603 4863 
z
" transform="scale(0.015625)"/>
       <path id="DejaVuSans-77" d="M 269 3500 
L 844 3500 
L 1563 769 
L 2278 3500 
L 2956 3500 
L 3675 769 
L 4391 3500 
L 4966 3500 
L 4050 0 
L 3372 0 
L 2619 2869 
L 1863 0 
L 1184 0 
L 269 3500 
z
" transform="scale(0.015625)"/>
       <path id="DejaVuSans-31" d="M 794 531 
L 1825 531 
L 1825 4091 
L 703 3866 
L 703 4441 
L 1819 4666 
L 2450 4666 
L 2450 531 
L 3481 531 
L 3481 0 
L 794 0 
L 794 531 
z
" transform="scale(0.015625)"/>
      </defs>
      <use xlink:href="#DejaVuSans-68"/>
      <use xlink:href="#DejaVuSans-74" x="63.378906"/>
      <use xlink:href="#DejaVuSans-74" x="102.587891"/>
      <use xlink:href="#DejaVuSans-70" x="141.796875"/>
      <use xlink:href="#DejaVuSans-3a" x="205.273438"/>
      <use xlink:href="#DejaVuSans-2f" x="238.964844"/>
      <use xlink:href="#DejaVuSans-2f" x="272.65625"/>
      <use xlink:href="#DejaVuSans-72" x="306.347656"/>
      <use xlink:href="#DejaVuSans-64" x="345.710938"/>
      <use xlink:href="#DejaVuSans-66" x="409.1875"/>
      <use xlink:href="#DejaVuSans-2e" x="437.142578"/>
      <use xlink:href="#DejaVuSans-6d" x="468.929688"/>
      <use xlink:href="#DejaVuSans-75" x="566.341797"/>
      <use xlink:href="#DejaVuSans-6e" x="629.720703"/>
      <use xlink:href="#DejaVuSans-69" x="693.099609"/>
      <use xlink:href="#DejaVuSans-6e" x="720.882812"/>
      <use xlink:href="#DejaVuSans-6e" x="784.261719"/>
      <use xlink:href="#DejaVuSans-2d" x="847.640625"/>
      <use xlink:href="#DejaVuSans-70" x="883.724609"/>
      <use xlink:href="#DejaVuSans-72" x="947.201172"/>
      <use xlink:href="#DejaVuSans-6f" x="986.064453"/>
      <use xlink:href="#DejaVuSans-6a" x="1047.246094"/>
      <use xlink:href="#DejaVuSans-65" x="1075.029297"/>
      <use xlink:href="#DejaVuSans-63" x="1136.552734"/>
      <use xlink:href="#DejaVuSans-74" x="1191.533203"/>
      <use xlink:href="#DejaVuSans-2e" x="1230.742188"/>
      <use xlink:href="#DejaVuSans-6f" x="1262.529297"/>
      <use xlink:href="#DejaVuSans-72" x="1323.710938"/>
      <use xlink:href="#DejaVuSans-67" x="1363.074219"/>
      <use xlink:href="#DejaVuSans-2f" x="1426.550781"/>
      <use xlink:href="#DejaVuSans-77" x="1460.242188"/>
      <use xlink:href="#DejaVuSans-77" x="1542.029297"/>
      <use xlink:href="#DejaVuSans-31" x="1623.816406"/>
      <use xlink:href="#DejaVuSans-2f" x="1687.439453"/>
      <use xlink:href="#DejaVuSans-6d" x="1721.130859"/>
      <use xlink:href="#DejaVuSans-75" x="1818.542969"/>
      <use xlink:href="#DejaVuSans-6e" x="1881.921875"/>
      <use xlink:href="#DejaVuSans-69" x="1945.300781"/>
      <use xlink:href="#DejaVuSans-6e" x="1973.083984"/>
      <use xlink:href="#DejaVuSans-6e" x="2036.462891"/>
      <use xlink:href="#DejaVuSans-2d" x="2099.841797"/>
      <use xlink:href="#DejaVuSans-77" x="2135.925781"/>
      <use xlink:href="#DejaVuSans-77" x="2217.712891"/>
      <use xlink:href="#DejaVuSans-31" x="2299.5"/>
      <use xlink:href="#DejaVuSans-2d" x="2363.123047"/>
      <use xlink:href="#DejaVuSans-64" x="2399.207031"/>
      <use xlink:href="#DejaVuSans-61" x="2462.683594"/>
      <use xlink:href="#DejaVuSans-74" x="2523.962891"/>
      <use xlink:href="#DejaVuSans-61" x="2563.171875"/>
      <use xlink:href="#DejaVuSans-73" x="2624.451172"/>
      <use xlink:href="#DejaVuSans-65" x="2676.550781"/>
      <use xlink:href="#DejaVuSans-74" x="2738.074219"/>
     </g>
    </g>
   </g>
  </g>
  <g id="axes_2">
   <g id="patch_7">
    <path d="M 570.24 119.88 
C 570.24 108.33145 567.965187 96.895195 563.545749 86.225726 
C 559.12631 75.556256 552.648192 65.861068 544.482133 57.695009 
C 536.316075 49.528951 526.620886 43.050833 515.951417 38.631394 
C 505.281948 34.211955 493.845693 31.937143 482.297143 31.937143 
C 470.748593 31.937143 459.312338 34.211955 448.642868 38.631394 
C 437.973399 43.050833 428.27821 49.528951 420.112152 57.695009 
C 411.946094 65.861068 405.467976 75.556256 401.048537 86.225726 
C 396.629098 96.895195 394.354286 108.33145 394.354286 119.88 
C 394.354286 131.42855 396.629098 142.864805 401.048537 153.534274 
C 405.467976 164.203744 411.946094 173.898932 420.112152 182.064991 
C 428.27821 190.231049 437.973399 196.709167 448.642868 201.128606 
C 459.312338 205.548045 470.748593 207.822857 482.297143 207.822857 
C 493.845693 207.822857 505.281948 205.548045 515.951417 201.128606 
C 526.620886 196.709167 536.316075 190.231049 544.482133 182.064991 
C 552.648192 173.898932 559.12631 164.203744 563.545749 153.534274 
C 567.965187 142.864805 570.24 131.42855 570.24 119.88 
M 482.297143 119.88 
C 482.297143 119.88 482.297143 119.88 482.297143 119.88 
C 482.297143 119.88 482.297143 119.88 482.297143 119.88 
C 482.297143 119.88 482.297143 119.88 482.297143 119.88 
C 482.297143 119.88 482.297143 119.88 482.297143 119.88 
C 482.297143 119.88 482.297143 119.88 482.297143 119.88 
C 482.297143 119.88 482.297143 119.88 482.297143 119.88 
C 482.297143 119.88 482.297143 119.88 482.297143 119.88 
C 482.297143 119.88 482.297143 119.88 482.297143 119.88 
C 482.297143 119.88 482.297143 119.88 482.297143 119.88 
C 482.297143 119.88 482.297143 119.88 482.297143 119.88 
C 482.297143 119.88 482.297143 119.88 482.297143 119.88 
C 482.297143 119.88 482.297143 119.88 482.297143 119.88 
C 482.297143 119.88 482.297143 119.88 482.297143 119.88 
C 482.297143 119.88 482.297143 119.88 482.297143 119.88 
C 482.297143 119.88 482.297143 119.88 482.297143 119.88 
C 482.297143 119.88 482.297143 119.88 482.297143 119.88 
M 570.24 119.88 
z
" style="fill: #fbfbfc"/>
   </g>
   <g id="patch_8">
    <path d="M 482.297143 72.244286 
L 506.097377 133.621071 
L 451.19817 137.835 
z
" clip-path="url(#p2d1495ffcb)" style="fill: #006400; opacity: 0.25; stroke: #006400; stroke-linejoin: miter"/>
   </g>
   <g id="patch_9">
    <path d="M 482.297143 73.160357 
L 482.297143 119.88 
L 439.139386 144.797143 
z
" clip-path="url(#p2d1495ffcb)" style="fill: #6495ed; opacity: 0.25; stroke: #6495ed; stroke-linejoin: miter"/>
   </g>
   <g id="matplotlib.axis_3">
    <g id="xtick_5">
     <g id="line2d_17">
      <path d="M 482.297143 119.88 
L 482.297143 31.937143 
" clip-path="url(#p2d1495ffcb)" style="fill: none; stroke: #aaaaaa; stroke-width: 0.8; stroke-linecap: square"/>
     </g>
     <g id="text_11">
      <!-- Data -->
      <g style="fill: #222222" transform="translate(467.971205 14.529705) scale(0.12 -0.12)">
       <use xlink:href="#DejaVuSans-44"/>
       <use xlink:href="#DejaVuSans-61" x="77.001953"/>
       <use xlink:href="#DejaVuSans-74" x="138.28125"/>
       <use xlink:href="#DejaVuSans-61" x="177.490234"/>
      </g>
      <!-- Collection -->
      <g style="fill: #222222" transform="translate(452.618705 27.96708) scale(0.12 -0.12)">
       <use xlink:href="#DejaVuSans-43"/>
       <use xlink:href="#DejaVuSans-6f" x="69.824219"/>
       <use xlink:href="#DejaVuSans-6c" x="131.005859"/>
       <use xlink:href="#DejaVuSans-6c" x="158.789062"/>
       <use xlink:href="#DejaVuSans-65" x="186.572266"/>
       <use xlink:href="#DejaVuSans-63" x="248.095703"/>
       <use xlink:href="#DejaVuSans-74" x="303.076172"/>
       <use xlink:href="#DejaVuSans-69" x="342.285156"/>
       <use xlink:href="#DejaVuSans-6f" x="370.068359"/>
       <use xlink:href="#DejaVuSans-6e" x="431.25"/>
      </g>
     </g>
    </g>
    <g id="xtick_6">
     <g id="line2d_18">
      <path d="M 482.297143 119.88 
L 558.457891 163.851429 
" clip-path="url(#p2d1495ffcb)" style="fill: none; stroke: #aaaaaa; stroke-width: 0.8; stroke-linecap: square"/>
     </g>
     <g id="text_12">
      <!-- Data -->
      <g style="fill: #222222" transform="translate(566.774209 165.24542) scale(0.12 -0.12)">
       <use xlink:href="#DejaVuSans-44"/>
       <use xlink:href="#DejaVuSans-61" x="77.001953"/>
       <use xlink:href="#DejaVuSans-74" x="138.28125"/>
       <use xlink:href="#DejaVuSans-61" x="177.490234"/>
      </g>
      <!-- Maintenance -->
      <g style="fill: #222222" transform="translate(566.774209 178.682795) scale(0.12 -0.12)">
       <use xlink:href="#DejaVuSans-4d"/>
       <use xlink:href="#DejaVuSans-61" x="86.279297"/>
       <use xlink:href="#DejaVuSans-69" x="147.558594"/>
       <use xlink:href="#DejaVuSans-6e" x="175.341797"/>
       <use xlink:href="#DejaVuSans-74" x="238.720703"/>
       <use xlink:href="#DejaVuSans-65" x="277.929688"/>
       <use xlink:href="#DejaVuSans-6e" x="339.453125"/>
       <use xlink:href="#DejaVuSans-61" x="402.832031"/>
       <use xlink:href="#DejaVuSans-6e" x="464.111328"/>
       <use xlink:href="#DejaVuSans-63" x="527.490234"/>
       <use xlink:href="#DejaVuSans-65" x="582.470703"/>
      </g>
     </g>
    </g>
    <g id="xtick_7">
     <g id="line2d_19">
      <path d="M 482.297143 119.88 
L 406.136394 163.851429 
" clip-path="url(#p2d1495ffcb)" style="fill: none; stroke: #aaaaaa; stroke-width: 0.8; stroke-linecap: square"/>
     </g>
     <g id="text_13">
      <!-- Data -->
      <g style="fill: #222222" transform="translate(369.168201 165.24542) scale(0.12 -0.12)">
       <use xlink:href="#DejaVuSans-44"/>
       <use xlink:href="#DejaVuSans-61" x="77.001953"/>
       <use xlink:href="#DejaVuSans-74" x="138.28125"/>
       <use xlink:href="#DejaVuSans-61" x="177.490234"/>
      </g>
      <!-- Usage -->
      <g style="fill: #222222" transform="translate(360.430701 178.682795) scale(0.12 -0.12)">
       <use xlink:href="#DejaVuSans-55"/>
       <use xlink:href="#DejaVuSans-73" x="73.193359"/>
       <use xlink:href="#DejaVuSans-61" x="125.292969"/>
       <use xlink:href="#DejaVuSans-67" x="186.572266"/>
       <use xlink:href="#DejaVuSans-65" x="250.048828"/>
      </g>
     </g>
    </g>
    <g id="xtick_8">
     <g id="line2d_20">
      <path d="M 482.297143 119.88 
L 482.297143 31.937143 
" clip-path="url(#p2d1495ffcb)" style="fill: none; stroke: #aaaaaa; stroke-width: 0.8; stroke-linecap: square"/>
     </g>
    </g>
   </g>
   <g id="matplotlib.axis_4">
    <g id="ytick_9">
     <g id="line2d_21">
      <path d="M 482.297143 108.887143 
C 483.740712 108.887143 485.170244 109.171494 486.503927 109.723924 
C 487.837611 110.276354 489.049509 111.086119 490.070267 112.106876 
C 491.091024 113.127633 491.900789 114.339532 492.453219 115.673216 
C 493.005648 117.006899 493.29 118.436431 493.29 119.88 
C 493.29 121.323569 493.005648 122.753101 492.453219 124.086784 
C 491.900789 125.420468 491.091024 126.632367 490.070267 127.653124 
C 489.049509 128.673881 487.837611 129.483646 486.503927 130.036076 
C 485.170244 130.588506 483.740712 130.872857 482.297143 130.872857 
C 480.853574 130.872857 479.424042 130.588506 478.090359 130.036076 
C 476.756675 129.483646 475.544776 128.673881 474.524019 127.653124 
C 473.503262 126.632367 472.693497 125.420468 472.141067 124.086784 
C 471.588637 122.753101 471.304286 121.323569 471.304286 119.88 
C 471.304286 118.436431 471.588637 117.006899 472.141067 115.673216 
C 472.693497 114.339532 473.503262 113.127633 474.524019 112.106876 
C 475.544776 111.086119 476.756675 110.276354 478.090359 109.723924 
C 479.424042 109.171494 480.853574 108.887143 482.297143 108.887143 
" clip-path="url(#p2d1495ffcb)" style="fill: none; stroke-dasharray: 2.96,1.28; stroke-dashoffset: 0; stroke: #aaaaaa; stroke-width: 0.8"/>
     </g>
     <g id="text_15">
      <!-- 20% -->
      <g style="fill: #222222" transform="translate(490.070267 109.611251) scale(0.12 -0.12)">
       <use xlink:href="#DejaVuSans-32"/>
       <use xlink:href="#DejaVuSans-30" x="63.623047"/>
       <use xlink:href="#DejaVuSans-25" x="127.246094"/>
      </g>
     </g>
    </g>
    <g id="ytick_10">
     <g id="line2d_22">
      <path d="M 482.297143 97.894286 
C 485.18428 97.894286 488.043344 98.462989 490.710711 99.567849 
C 493.378079 100.672708 495.801876 102.292238 497.843391 104.333752 
C 499.884905 106.375267 501.504435 108.799064 502.609294 111.466431 
C 503.714154 114.133799 504.282857 116.992862 504.282857 119.88 
C 504.282857 122.767138 503.714154 125.626201 502.609294 128.293569 
C 501.504435 130.960936 499.884905 133.384733 497.843391 135.426248 
C 495.801876 137.467762 493.378079 139.087292 490.710711 140.192151 
C 488.043344 141.297011 485.18428 141.865714 482.297143 141.865714 
C 479.410005 141.865714 476.550942 141.297011 473.883574 140.192151 
C 471.216207 139.087292 468.79241 137.467762 466.750895 135.426248 
C 464.709381 133.384733 463.089851 130.960936 461.984991 128.293569 
C 460.880132 125.626201 460.311429 122.767138 460.311429 119.88 
C 460.311429 116.992862 460.880132 114.133799 461.984991 111.466431 
C 463.089851 108.799064 464.709381 106.375267 466.750895 104.333752 
C 468.79241 102.292238 471.216207 100.672708 473.883574 99.567849 
C 476.550942 98.462989 479.410005 97.894286 482.297143 97.894286 
" clip-path="url(#p2d1495ffcb)" style="fill: none; stroke: #aaaaaa; stroke-width: 0.8; stroke-linecap: square"/>
     </g>
    </g>
    <g id="ytick_11">
     <g id="line2d_23">
      <path d="M 482.297143 86.901429 
C 486.627849 86.901429 490.916445 87.754483 494.917496 89.411773 
C 498.918547 91.069062 502.554243 93.498357 505.616514 96.560629 
C 508.678786 99.6229 511.10808 103.258596 512.76537 107.259647 
C 514.42266 111.260698 515.275714 115.549294 515.275714 119.88 
C 515.275714 124.210706 514.42266 128.499302 512.76537 132.500353 
C 511.10808 136.501404 508.678786 140.1371 505.616514 143.199371 
C 502.554243 146.261643 498.918547 148.690938 494.917496 150.348227 
C 490.916445 152.005517 486.627849 152.858571 482.297143 152.858571 
C 477.966437 152.858571 473.677841 152.005517 469.67679 150.348227 
C 465.675739 148.690938 462.040043 146.261643 458.977771 143.199371 
C 455.9155 140.1371 453.486205 136.501404 451.828916 132.500353 
C 450.171626 128.499302 449.318571 124.210706 449.318571 119.88 
C 449.318571 115.549294 450.171626 111.260698 451.828916 107.259647 
C 453.486205 103.258596 455.9155 99.6229 458.977771 96.560629 
C 462.040043 93.498357 465.675739 91.069062 469.67679 89.411773 
C 473.677841 87.754483 477.966437 86.901429 482.297143 86.901429 
" clip-path="url(#p2d1495ffcb)" style="fill: none; stroke-dasharray: 2.96,1.28; stroke-dashoffset: 0; stroke: #aaaaaa; stroke-width: 0.8"/>
     </g>
     <g id="text_16">
      <!-- 40% -->
      <g style="fill: #222222" transform="translate(505.616514 94.065004) scale(0.12 -0.12)">
       <use xlink:href="#DejaVuSans-34"/>
       <use xlink:href="#DejaVuSans-30" x="63.623047"/>
       <use xlink:href="#DejaVuSans-25" x="127.246094"/>
      </g>
     </g>
    </g>
    <g id="ytick_12">
     <g id="line2d_24">
      <path d="M 482.297143 75.908571 
C 488.071418 75.908571 493.789545 77.045978 499.12428 79.255697 
C 504.459015 81.465417 509.306609 84.704476 513.389638 88.787505 
C 517.472667 92.870534 520.711726 97.718128 522.921446 103.052863 
C 525.131165 108.387597 526.268571 114.105725 526.268571 119.88 
C 526.268571 125.654275 525.131165 131.372403 522.921446 136.707137 
C 520.711726 142.041872 517.472667 146.889466 513.389638 150.972495 
C 509.306609 155.055524 504.459015 158.294583 499.12428 160.504303 
C 493.789545 162.714022 488.071418 163.851429 482.297143 163.851429 
C 476.522868 163.851429 470.80474 162.714022 465.470006 160.504303 
C 460.135271 158.294583 455.287677 155.055524 451.204648 150.972495 
C 447.121618 146.889466 443.882559 142.041872 441.67284 136.707137 
C 439.463121 131.372403 438.325714 125.654275 438.325714 119.88 
C 438.325714 114.105725 439.463121 108.387597 441.67284 103.052863 
C 443.882559 97.718128 447.121618 92.870534 451.204648 88.787505 
C 455.287677 84.704476 460.135271 81.465417 465.470006 79.255697 
C 470.80474 77.045978 476.522868 75.908571 482.297143 75.908571 
" clip-path="url(#p2d1495ffcb)" style="fill: none; stroke: #aaaaaa; stroke-width: 0.8; stroke-linecap: square"/>
     </g>
    </g>
    <g id="ytick_13">
     <g id="line2d_25">
      <path d="M 482.297143 64.915714 
C 489.514987 64.915714 496.662646 66.337472 503.331064 69.099621 
C 509.999483 71.861771 516.058976 75.910595 521.162762 81.014381 
C 526.266548 86.118167 530.315372 92.17766 533.077521 98.846078 
C 535.839671 105.514497 537.261429 112.662156 537.261429 119.88 
C 537.261429 127.097844 535.839671 134.245503 533.077521 140.913922 
C 530.315372 147.58234 526.266548 153.641833 521.162762 158.745619 
C 516.058976 163.849405 509.999483 167.898229 503.331064 170.660379 
C 496.662646 173.422528 489.514987 174.844286 482.297143 174.844286 
C 475.079299 174.844286 467.93164 173.422528 461.263221 170.660379 
C 454.594803 167.898229 448.53531 163.849405 443.431524 158.745619 
C 438.327737 153.641833 434.278914 147.58234 431.516764 140.913922 
C 428.754615 134.245503 427.332857 127.097844 427.332857 119.88 
C 427.332857 112.662156 428.754615 105.514497 431.516764 98.846078 
C 434.278914 92.17766 438.327737 86.118167 443.431524 81.014381 
C 448.53531 75.910595 454.594803 71.861771 461.263221 69.099621 
C 467.93164 66.337472 475.079299 64.915714 482.297143 64.915714 
" clip-path="url(#p2d1495ffcb)" style="fill: none; stroke-dasharray: 2.96,1.28; stroke-dashoffset: 0; stroke: #aaaaaa; stroke-width: 0.8"/>
     </g>
     <g id="text_17">
      <!-- 60% -->
      <g style="fill: #222222" transform="translate(521.162762 78.518756) scale(0.12 -0.12)">
       <use xlink:href="#DejaVuSans-36"/>
       <use xlink:href="#DejaVuSans-30" x="63.623047"/>
       <use xlink:href="#DejaVuSans-25" x="127.246094"/>
      </g>
     </g>
    </g>
    <g id="ytick_14">
     <g id="line2d_26">
      <path d="M 482.297143 53.922857 
C 490.958555 53.922857 499.535747 55.628967 507.537849 58.943546 
C 515.539951 62.258125 522.811342 67.116713 528.935886 73.241257 
C 535.060429 79.365801 539.919018 86.637192 543.233597 94.639294 
C 546.548176 102.641396 548.254286 111.218587 548.254286 119.88 
C 548.254286 128.541413 546.548176 137.118604 543.233597 145.120706 
C 539.919018 153.122808 535.060429 160.394199 528.935886 166.518743 
C 522.811342 172.643287 515.539951 177.501875 507.537849 180.816454 
C 499.535747 184.131033 490.958555 185.837143 482.297143 185.837143 
C 473.63573 185.837143 465.058539 184.131033 457.056437 180.816454 
C 449.054335 177.501875 441.782943 172.643287 435.6584 166.518743 
C 429.533856 160.394199 424.675268 153.122808 421.360689 145.120706 
C 418.046109 137.118604 416.34 128.541413 416.34 119.88 
C 416.34 111.218587 418.046109 102.641396 421.360689 94.639294 
C 424.675268 86.637192 429.533856 79.365801 435.6584 73.241257 
C 441.782943 67.116713 449.054335 62.258125 457.056437 58.943546 
C 465.058539 55.628967 473.63573 53.922857 482.297143 53.922857 
" clip-path="url(#p2d1495ffcb)" style="fill: none; stroke: #aaaaaa; stroke-width: 0.8; stroke-linecap: square"/>
     </g>
    </g>
    <g id="ytick_15">
     <g id="line2d_27">
      <path d="M 482.297143 42.93 
C 492.402124 42.93 502.408847 44.920461 511.744633 48.78747 
C 521.080418 52.654479 529.563709 58.322832 536.70901 65.468133 
C 543.854311 72.613434 549.522664 81.096724 553.389673 90.43251 
C 557.256682 99.768295 559.247143 109.775019 559.247143 119.88 
C 559.247143 129.984981 557.256682 139.991705 553.389673 149.32749 
C 549.522664 158.663276 543.854311 167.146566 536.70901 174.291867 
C 529.563709 181.437168 521.080418 187.105521 511.744633 190.97253 
C 502.408847 194.839539 492.402124 196.83 482.297143 196.83 
C 472.192161 196.83 462.185438 194.839539 452.849653 190.97253 
C 443.513867 187.105521 435.030577 181.437168 427.885276 174.291867 
C 420.739975 167.146566 415.071622 158.663276 411.204613 149.32749 
C 407.337604 139.991705 405.347143 129.984981 405.347143 119.88 
C 405.347143 109.775019 407.337604 99.768295 411.204613 90.43251 
C 415.071622 81.096724 420.739975 72.613434 427.885276 65.468133 
C 435.030577 58.322832 443.513867 52.654479 452.849653 48.78747 
C 462.185438 44.920461 472.192161 42.93 482.297143 42.93 
" clip-path="url(#p2d1495ffcb)" style="fill: none; stroke-dasharray: 2.96,1.28; stroke-dashoffset: 0; stroke: #aaaaaa; stroke-width: 0.8"/>
     </g>
     <g id="text_18">
      <!-- 80% -->
      <g style="fill: #222222" transform="translate(536.70901 62.972508) scale(0.12 -0.12)">
       <use xlink:href="#DejaVuSans-38"/>
       <use xlink:href="#DejaVuSans-30" x="63.623047"/>
       <use xlink:href="#DejaVuSans-25" x="127.246094"/>
      </g>
     </g>
    </g>
    <g id="ytick_16">
     <g id="line2d_28">
      <path d="M 482.297143 31.937143 
C 493.845693 31.937143 505.281948 34.211955 515.951417 38.631394 
C 526.620886 43.050833 536.316075 49.528951 544.482133 57.695009 
C 552.648192 65.861068 559.12631 75.556256 563.545749 86.225726 
C 567.965187 96.895195 570.24 108.33145 570.24 119.88 
C 570.24 131.42855 567.965187 142.864805 563.545749 153.534274 
C 559.12631 164.203744 552.648192 173.898932 544.482133 182.064991 
C 536.316075 190.231049 526.620886 196.709167 515.951417 201.128606 
C 505.281948 205.548045 493.845693 207.822857 482.297143 207.822857 
C 470.748593 207.822857 459.312338 205.548045 448.642868 201.128606 
C 437.973399 196.709167 428.27821 190.231049 420.112152 182.064991 
C 411.946094 173.898932 405.467976 164.203744 401.048537 153.534274 
C 396.629098 142.864805 394.354286 131.42855 394.354286 119.88 
C 394.354286 108.33145 396.629098 96.895195 401.048537 86.225726 
C 405.467976 75.556256 411.946094 65.861068 420.112152 57.695009 
C 428.27821 49.528951 437.973399 43.050833 448.642868 38.631394 
C 459.312338 34.211955 470.748593 31.937143 482.297143 31.937143 
" clip-path="url(#p2d1495ffcb)" style="fill: none; stroke: #aaaaaa; stroke-width: 0.8; stroke-linecap: square"/>
     </g>
    </g>
   </g>
   <g id="line2d_29">
    <path d="M 482.297143 72.244286 
L 506.097377 133.621071 
L 451.19817 137.835 
L 482.297143 72.244286 
" clip-path="url(#p2d1495ffcb)" style="fill: none; stroke: #006400; stroke-linecap: square"/>
   </g>
   <g id="line2d_30">
    <path d="M 482.297143 73.160357 
L 482.297143 119.88 
L 439.139386 144.797143 
L 482.297143 73.160357 
" clip-path="url(#p2d1495ffcb)" style="fill: none; stroke: #6495ed; stroke-linecap: square"/>
   </g>
   <g id="patch_10">
    <path d="M 482.297143 31.937143 
C 470.748593 31.937143 459.312338 34.211955 448.642868 38.631394 
C 437.973399 43.050833 428.27821 49.528951 420.112152 57.695009 
C 411.946094 65.861068 405.467976 75.556256 401.048537 86.225726 
C 396.629098 96.895195 394.354286 108.33145 394.354286 119.88 
C 394.354286 131.42855 396.629098 142.864805 401.048537 153.534274 
C 405.467976 164.203744 411.946094 173.898932 420.112152 182.064991 
C 428.27821 190.231049 437.973399 196.709167 448.642868 201.128606 
C 459.312338 205.548045 470.748593 207.822857 482.297143 207.822857 
C 493.845693 207.822857 505.281948 205.548045 515.951417 201.128606 
C 526.620886 196.709167 536.316075 190.231049 544.482133 182.064991 
C 552.648192 173.898932 559.12631 164.203744 563.545749 153.534274 
C 567.965187 142.864805 570.24 131.42855 570.24 119.88 
C 570.24 108.33145 567.965187 96.895195 563.545749 86.225726 
C 559.12631 75.556256 552.648192 65.861068 544.482133 57.695009 
C 536.316075 49.528951 526.620886 43.050833 515.951417 38.631394 
C 505.281948 34.211955 493.845693 31.937143 482.297143 31.937143 
" style="fill: none; stroke: #222222; stroke-width: 0.8; stroke-linejoin: miter; stroke-linecap: square"/>
   </g>
   <g id="legend_2">
    <g id="patch_11">
     <path d="M 356.009643 255.588571 
L 608.584643 255.588571 
Q 610.584643 255.588571 610.584643 253.588571 
L 610.584643 225.232321 
Q 610.584643 223.232321 608.584643 223.232321 
L 356.009643 223.232321 
Q 354.009643 223.232321 354.009643 225.232321 
L 354.009643 253.588571 
Q 354.009643 255.588571 356.009643 255.588571 
z
" style="fill: #ffffff; opacity: 0.8; stroke: #cccccc; stroke-linejoin: miter"/>
    </g>
    <g id="line2d_31">
     <path d="M 358.009643 231.330759 
L 368.009643 231.330759 
L 378.009643 231.330759 
" style="fill: none; stroke: #006400; stroke-linecap: square"/>
    </g>
    <g id="text_19">
     <!-- http://ns.inria.fr/covid19/covidontheweb-1-2 -->
     <g transform="translate(386.009643 234.830759) scale(0.1 -0.1)">
      <defs>
       <path id="DejaVuSans-76" d="M 191 3500 
L 800 3500 
L 1894 563 
L 2988 3500 
L 3597 3500 
L 2284 0 
L 1503 0 
L 191 3500 
z
" transform="scale(0.015625)"/>
       <path id="DejaVuSans-39" d="M 703 97 
L 703 672 
Q 941 559 1184 500 
Q 1428 441 1663 441 
Q 2288 441 2617 861 
Q 2947 1281 2994 2138 
Q 2813 1869 2534 1725 
Q 2256 1581 1919 1581 
Q 1219 1581 811 2004 
Q 403 2428 403 3163 
Q 403 3881 828 4315 
Q 1253 4750 1959 4750 
Q 2769 4750 3195 4129 
Q 3622 3509 3622 2328 
Q 3622 1225 3098 567 
Q 2575 -91 1691 -91 
Q 1453 -91 1209 -44 
Q 966 3 703 97 
z
M 1959 2075 
Q 2384 2075 2632 2365 
Q 2881 2656 2881 3163 
Q 2881 3666 2632 3958 
Q 2384 4250 1959 4250 
Q 1534 4250 1286 3958 
Q 1038 3666 1038 3163 
Q 1038 2656 1286 2365 
Q 1534 2075 1959 2075 
z
" transform="scale(0.015625)"/>
       <path id="DejaVuSans-62" d="M 3116 1747 
Q 3116 2381 2855 2742 
Q 2594 3103 2138 3103 
Q 1681 3103 1420 2742 
Q 1159 2381 1159 1747 
Q 1159 1113 1420 752 
Q 1681 391 2138 391 
Q 2594 391 2855 752 
Q 3116 1113 3116 1747 
z
M 1159 2969 
Q 1341 3281 1617 3432 
Q 1894 3584 2278 3584 
Q 2916 3584 3314 3078 
Q 3713 2572 3713 1747 
Q 3713 922 3314 415 
Q 2916 -91 2278 -91 
Q 1894 -91 1617 61 
Q 1341 213 1159 525 
L 1159 0 
L 581 0 
L 581 4863 
L 1159 4863 
L 1159 2969 
z
" transform="scale(0.015625)"/>
      </defs>
      <use xlink:href="#DejaVuSans-68"/>
      <use xlink:href="#DejaVuSans-74" x="63.378906"/>
      <use xlink:href="#DejaVuSans-74" x="102.587891"/>
      <use xlink:href="#DejaVuSans-70" x="141.796875"/>
      <use xlink:href="#DejaVuSans-3a" x="205.273438"/>
      <use xlink:href="#DejaVuSans-2f" x="238.964844"/>
      <use xlink:href="#DejaVuSans-2f" x="272.65625"/>
      <use xlink:href="#DejaVuSans-6e" x="306.347656"/>
      <use xlink:href="#DejaVuSans-73" x="369.726562"/>
      <use xlink:href="#DejaVuSans-2e" x="421.826172"/>
      <use xlink:href="#DejaVuSans-69" x="453.613281"/>
      <use xlink:href="#DejaVuSans-6e" x="481.396484"/>
      <use xlink:href="#DejaVuSans-72" x="544.775391"/>
      <use xlink:href="#DejaVuSans-69" x="585.888672"/>
      <use xlink:href="#DejaVuSans-61" x="613.671875"/>
      <use xlink:href="#DejaVuSans-2e" x="674.951172"/>
      <use xlink:href="#DejaVuSans-66" x="706.738281"/>
      <use xlink:href="#DejaVuSans-72" x="741.943359"/>
      <use xlink:href="#DejaVuSans-2f" x="783.056641"/>
      <use xlink:href="#DejaVuSans-63" x="816.748047"/>
      <use xlink:href="#DejaVuSans-6f" x="871.728516"/>
      <use xlink:href="#DejaVuSans-76" x="932.910156"/>
      <use xlink:href="#DejaVuSans-69" x="992.089844"/>
      <use xlink:href="#DejaVuSans-64" x="1019.873047"/>
      <use xlink:href="#DejaVuSans-31" x="1083.349609"/>
      <use xlink:href="#DejaVuSans-39" x="1146.972656"/>
      <use xlink:href="#DejaVuSans-2f" x="1210.595703"/>
      <use xlink:href="#DejaVuSans-63" x="1244.287109"/>
      <use xlink:href="#DejaVuSans-6f" x="1299.267578"/>
      <use xlink:href="#DejaVuSans-76" x="1360.449219"/>
      <use xlink:href="#DejaVuSans-69" x="1419.628906"/>
      <use xlink:href="#DejaVuSans-64" x="1447.412109"/>
      <use xlink:href="#DejaVuSans-6f" x="1510.888672"/>
      <use xlink:href="#DejaVuSans-6e" x="1572.070312"/>
      <use xlink:href="#DejaVuSans-74" x="1635.449219"/>
      <use xlink:href="#DejaVuSans-68" x="1674.658203"/>
      <use xlink:href="#DejaVuSans-65" x="1738.037109"/>
      <use xlink:href="#DejaVuSans-77" x="1799.560547"/>
      <use xlink:href="#DejaVuSans-65" x="1881.347656"/>
      <use xlink:href="#DejaVuSans-62" x="1942.871094"/>
      <use xlink:href="#DejaVuSans-2d" x="2006.347656"/>
      <use xlink:href="#DejaVuSans-31" x="2042.431641"/>
      <use xlink:href="#DejaVuSans-2d" x="2106.054688"/>
      <use xlink:href="#DejaVuSans-32" x="2142.138672"/>
     </g>
    </g>
    <g id="line2d_32">
     <path d="M 358.009643 246.008884 
L 368.009643 246.008884 
L 378.009643 246.008884 
" style="fill: none; stroke: #6495ed; stroke-linecap: square"/>
    </g>
    <g id="text_20">
     <!-- http://caligraph.org/.well-known/void -->
     <g transform="translate(386.009643 249.508884) scale(0.1 -0.1)">
      <defs>
       <path id="DejaVuSans-6b" d="M 581 4863 
L 1159 4863 
L 1159 1991 
L 2875 3500 
L 3609 3500 
L 1753 1863 
L 3688 0 
L 2938 0 
L 1159 1709 
L 1159 0 
L 581 0 
L 581 4863 
z
" transform="scale(0.015625)"/>
      </defs>
      <use xlink:href="#DejaVuSans-68"/>
      <use xlink:href="#DejaVuSans-74" x="63.378906"/>
      <use xlink:href="#DejaVuSans-74" x="102.587891"/>
      <use xlink:href="#DejaVuSans-70" x="141.796875"/>
      <use xlink:href="#DejaVuSans-3a" x="205.273438"/>
      <use xlink:href="#DejaVuSans-2f" x="238.964844"/>
      <use xlink:href="#DejaVuSans-2f" x="272.65625"/>
      <use xlink:href="#DejaVuSans-63" x="306.347656"/>
      <use xlink:href="#DejaVuSans-61" x="361.328125"/>
      <use xlink:href="#DejaVuSans-6c" x="422.607422"/>
      <use xlink:href="#DejaVuSans-69" x="450.390625"/>
      <use xlink:href="#DejaVuSans-67" x="478.173828"/>
      <use xlink:href="#DejaVuSans-72" x="541.650391"/>
      <use xlink:href="#DejaVuSans-61" x="582.763672"/>
      <use xlink:href="#DejaVuSans-70" x="644.042969"/>
      <use xlink:href="#DejaVuSans-68" x="707.519531"/>
      <use xlink:href="#DejaVuSans-2e" x="770.898438"/>
      <use xlink:href="#DejaVuSans-6f" x="802.685547"/>
      <use xlink:href="#DejaVuSans-72" x="863.867188"/>
      <use xlink:href="#DejaVuSans-67" x="903.230469"/>
      <use xlink:href="#DejaVuSans-2f" x="966.707031"/>
      <use xlink:href="#DejaVuSans-2e" x="1000.398438"/>
      <use xlink:href="#DejaVuSans-77" x="1032.185547"/>
      <use xlink:href="#DejaVuSans-65" x="1113.972656"/>
      <use xlink:href="#DejaVuSans-6c" x="1175.496094"/>
      <use xlink:href="#DejaVuSans-6c" x="1203.279297"/>
      <use xlink:href="#DejaVuSans-2d" x="1231.0625"/>
      <use xlink:href="#DejaVuSans-6b" x="1267.146484"/>
      <use xlink:href="#DejaVuSans-6e" x="1325.056641"/>
      <use xlink:href="#DejaVuSans-6f" x="1388.435547"/>
      <use xlink:href="#DejaVuSans-77" x="1449.617188"/>
      <use xlink:href="#DejaVuSans-6e" x="1531.404297"/>
      <use xlink:href="#DejaVuSans-2f" x="1594.783203"/>
      <use xlink:href="#DejaVuSans-76" x="1628.474609"/>
      <use xlink:href="#DejaVuSans-6f" x="1687.654297"/>
      <use xlink:href="#DejaVuSans-69" x="1748.835938"/>
      <use xlink:href="#DejaVuSans-64" x="1776.619141"/>
     </g>
    </g>
   </g>
  </g>
 </g>
 <defs>
  <clipPath id="pa2181da275">
   <path d="M 253.645714 119.88 
C 253.645714 108.33145 251.370902 96.895195 246.951463 86.225726 
C 242.532024 75.556256 236.053906 65.861068 227.887848 57.695009 
C 219.72179 49.528951 210.026601 43.050833 199.357132 38.631394 
C 188.687662 34.211955 177.251407 31.937143 165.702857 31.937143 
C 154.154307 31.937143 142.718052 34.211955 132.048583 38.631394 
C 121.379114 43.050833 111.683925 49.528951 103.517867 57.695009 
C 95.351808 65.861068 88.87369 75.556256 84.454251 86.225726 
C 80.034813 96.895195 77.76 108.33145 77.76 119.88 
C 77.76 131.42855 80.034813 142.864805 84.454251 153.534274 
C 88.87369 164.203744 95.351808 173.898932 103.517867 182.064991 
C 111.683925 190.231049 121.379114 196.709167 132.048583 201.128606 
C 142.718052 205.548045 154.154307 207.822857 165.702857 207.822857 
C 177.251407 207.822857 188.687662 205.548045 199.357132 201.128606 
C 210.026601 196.709167 219.72179 190.231049 227.887848 182.064991 
C 236.053906 173.898932 242.532024 164.203744 246.951463 153.534274 
C 251.370902 142.864805 253.645714 131.42855 253.645714 119.88 
M 165.702857 119.88 
C 165.702857 119.88 165.702857 119.88 165.702857 119.88 
C 165.702857 119.88 165.702857 119.88 165.702857 119.88 
C 165.702857 119.88 165.702857 119.88 165.702857 119.88 
C 165.702857 119.88 165.702857 119.88 165.702857 119.88 
C 165.702857 119.88 165.702857 119.88 165.702857 119.88 
C 165.702857 119.88 165.702857 119.88 165.702857 119.88 
C 165.702857 119.88 165.702857 119.88 165.702857 119.88 
C 165.702857 119.88 165.702857 119.88 165.702857 119.88 
C 165.702857 119.88 165.702857 119.88 165.702857 119.88 
C 165.702857 119.88 165.702857 119.88 165.702857 119.88 
C 165.702857 119.88 165.702857 119.88 165.702857 119.88 
C 165.702857 119.88 165.702857 119.88 165.702857 119.88 
C 165.702857 119.88 165.702857 119.88 165.702857 119.88 
C 165.702857 119.88 165.702857 119.88 165.702857 119.88 
C 165.702857 119.88 165.702857 119.88 165.702857 119.88 
C 165.702857 119.88 165.702857 119.88 165.702857 119.88 
M 253.645714 119.88 
z
"/>
  </clipPath>
  <clipPath id="p2d1495ffcb">
   <path d="M 570.24 119.88 
C 570.24 108.33145 567.965187 96.895195 563.545749 86.225726 
C 559.12631 75.556256 552.648192 65.861068 544.482133 57.695009 
C 536.316075 49.528951 526.620886 43.050833 515.951417 38.631394 
C 505.281948 34.211955 493.845693 31.937143 482.297143 31.937143 
C 470.748593 31.937143 459.312338 34.211955 448.642868 38.631394 
C 437.973399 43.050833 428.27821 49.528951 420.112152 57.695009 
C 411.946094 65.861068 405.467976 75.556256 401.048537 86.225726 
C 396.629098 96.895195 394.354286 108.33145 394.354286 119.88 
C 394.354286 131.42855 396.629098 142.864805 401.048537 153.534274 
C 405.467976 164.203744 411.946094 173.898932 420.112152 182.064991 
C 428.27821 190.231049 437.973399 196.709167 448.642868 201.128606 
C 459.312338 205.548045 470.748593 207.822857 482.297143 207.822857 
C 493.845693 207.822857 505.281948 205.548045 515.951417 201.128606 
C 526.620886 196.709167 536.316075 190.231049 544.482133 182.064991 
C 552.648192 173.898932 559.12631 164.203744 563.545749 153.534274 
C 567.965187 142.864805 570.24 131.42855 570.24 119.88 
M 482.297143 119.88 
C 482.297143 119.88 482.297143 119.88 482.297143 119.88 
C 482.297143 119.88 482.297143 119.88 482.297143 119.88 
C 482.297143 119.88 482.297143 119.88 482.297143 119.88 
C 482.297143 119.88 482.297143 119.88 482.297143 119.88 
C 482.297143 119.88 482.297143 119.88 482.297143 119.88 
C 482.297143 119.88 482.297143 119.88 482.297143 119.88 
C 482.297143 119.88 482.297143 119.88 482.297143 119.88 
C 482.297143 119.88 482.297143 119.88 482.297143 119.88 
C 482.297143 119.88 482.297143 119.88 482.297143 119.88 
C 482.297143 119.88 482.297143 119.88 482.297143 119.88 
C 482.297143 119.88 482.297143 119.88 482.297143 119.88 
C 482.297143 119.88 482.297143 119.88 482.297143 119.88 
C 482.297143 119.88 482.297143 119.88 482.297143 119.88 
C 482.297143 119.88 482.297143 119.88 482.297143 119.88 
C 482.297143 119.88 482.297143 119.88 482.297143 119.88 
C 482.297143 119.88 482.297143 119.88 482.297143 119.88 
M 570.24 119.88 
z
"/>
  </clipPath>
 </defs>
</svg>
