<?xml version="1.0" encoding="utf-8" standalone="no"?>
<!DOCTYPE svg PUBLIC "-//W3C//DTD SVG 1.1//EN"
  "http://www.w3.org/Graphics/SVG/1.1/DTD/svg11.dtd">
<svg xmlns:xlink="http://www.w3.org/1999/xlink" width="792pt" height="360pt" viewBox="0 0 792 360" xmlns="http://www.w3.org/2000/svg" version="1.1">
 <metadata>
  <rdf:RDF xmlns:dc="http://purl.org/dc/elements/1.1/" xmlns:cc="http://creativecommons.org/ns#" xmlns:rdf="http://www.w3.org/1999/02/22-rdf-syntax-ns#">
   <cc:Work>
    <dc:type rdf:resource="http://purl.org/dc/dcmitype/StillImage"/>
    <dc:date>2023-06-21T16:26:02.434430</dc:date>
    <dc:format>image/svg+xml</dc:format>
    <dc:creator>
     <cc:Agent>
      <dc:title>Matplotlib v3.6.1, https://matplotlib.org/</dc:title>
     </cc:Agent>
    </dc:creator>
   </cc:Work>
  </rdf:RDF>
 </metadata>
 <defs>
  <style type="text/css">*{stroke-linejoin: round; stroke-linecap: butt}</style>
 </defs>
 <g id="figure_1">
  <g id="patch_1">
   <path d="M 0 360 
L 792 360 
L 792 0 
L 0 0 
z
" style="fill: #ffffff"/>
  </g>
  <g id="axes_1">
   <g id="patch_2">
    <path d="M 229.174468 180 
C 229.174468 167.552654 226.722612 155.226344 221.95922 143.726496 
C 217.195827 132.226648 210.213532 121.776906 201.41193 112.975304 
C 192.610328 104.173702 182.160586 97.191407 170.660738 92.428015 
C 159.16089 87.664622 146.83458 85.212766 134.387234 85.212766 
C 121.939889 85.212766 109.613578 87.664622 98.11373 92.428015 
C 86.613882 97.191407 76.164141 104.173702 67.362538 112.975304 
C 58.560936 121.776906 51.578641 132.226648 46.815249 143.726496 
C 42.051856 155.226344 39.6 167.552654 39.6 180 
C 39.6 192.447346 42.051856 204.773656 46.815249 216.273504 
C 51.578641 227.773352 58.560936 238.223094 67.362538 247.024696 
C 76.164141 255.826298 86.613882 262.808593 98.11373 267.571985 
C 109.613578 272.335378 121.939889 274.787234 134.387234 274.787234 
C 146.83458 274.787234 159.16089 272.335378 170.660738 267.571985 
C 182.160586 262.808593 192.610328 255.826298 201.41193 247.024696 
C 210.213532 238.223094 217.195827 227.773352 221.95922 216.273504 
C 226.722612 204.773656 229.174468 192.447346 229.174468 180 
M 134.387234 180 
C 134.387234 180 134.387234 180 134.387234 180 
C 134.387234 180 134.387234 180 134.387234 180 
C 134.387234 180 134.387234 180 134.387234 180 
C 134.387234 180 134.387234 180 134.387234 180 
C 134.387234 180 134.387234 180 134.387234 180 
C 134.387234 180 134.387234 180 134.387234 180 
C 134.387234 180 134.387234 180 134.387234 180 
C 134.387234 180 134.387234 180 134.387234 180 
C 134.387234 180 134.387234 180 134.387234 180 
C 134.387234 180 134.387234 180 134.387234 180 
C 134.387234 180 134.387234 180 134.387234 180 
C 134.387234 180 134.387234 180 134.387234 180 
C 134.387234 180 134.387234 180 134.387234 180 
C 134.387234 180 134.387234 180 134.387234 180 
C 134.387234 180 134.387234 180 134.387234 180 
C 134.387234 180 134.387234 180 134.387234 180 
M 229.174468 180 
z
" style="fill: #fbfbfc"/>
   </g>
   <g id="patch_3">
    <path d="M 134.387234 85.212766 
L 229.174468 180 
L 134.387234 227.393617 
L 93.312766 180 
z
" clip-path="url(#pe4e9c7575e)" style="fill: #006400; opacity: 0.25; stroke: #006400; stroke-linejoin: miter"/>
   </g>
   <g id="patch_4">
    <path d="M 134.387234 180 
L 229.174468 180 
L 134.387234 180 
L 115.429787 180 
z
" clip-path="url(#pe4e9c7575e)" style="fill: #6495ed; opacity: 0.25; stroke: #6495ed; stroke-linejoin: miter"/>
   </g>
   <g id="matplotlib.axis_1">
    <g id="xtick_1">
     <g id="line2d_1">
      <path d="M 134.387234 180 
L 134.387234 85.212766 
" clip-path="url(#pe4e9c7575e)" style="fill: none; stroke: #aaaaaa; stroke-width: 0.8; stroke-linecap: square"/>
     </g>
     <g id="text_1">
      <!-- How -->
      <g style="fill: #222222" transform="translate(121.296922 82.106995) scale(0.12 -0.12)">
       <defs>
        <path id="DejaVuSans-48" d="M 628 4666 
L 1259 4666 
L 1259 2753 
L 3553 2753 
L 3553 4666 
L 4184 4666 
L 4184 0 
L 3553 0 
L 3553 2222 
L 1259 2222 
L 1259 0 
L 628 0 
L 628 4666 
z
" transform="scale(0.015625)"/>
        <path id="DejaVuSans-6f" d="M 1959 3097 
Q 1497 3097 1228 2736 
Q 959 2375 959 1747 
Q 959 1119 1226 758 
Q 1494 397 1959 397 
Q 2419 397 2687 759 
Q 2956 1122 2956 1747 
Q 2956 2369 2687 2733 
Q 2419 3097 1959 3097 
z
M 1959 3584 
Q 2709 3584 3137 3096 
Q 3566 2609 3566 1747 
Q 3566 888 3137 398 
Q 2709 -91 1959 -91 
Q 1206 -91 779 398 
Q 353 888 353 1747 
Q 353 2609 779 3096 
Q 1206 3584 1959 3584 
z
" transform="scale(0.015625)"/>
        <path id="DejaVuSans-77" d="M 269 3500 
L 844 3500 
L 1563 769 
L 2278 3500 
L 2956 3500 
L 3675 769 
L 4391 3500 
L 4966 3500 
L 4050 0 
L 3372 0 
L 2619 2869 
L 1863 0 
L 1184 0 
L 269 3500 
z
" transform="scale(0.015625)"/>
       </defs>
       <use xlink:href="#DejaVuSans-48"/>
       <use xlink:href="#DejaVuSans-6f" x="75.195312"/>
       <use xlink:href="#DejaVuSans-77" x="136.376953"/>
      </g>
     </g>
    </g>
    <g id="xtick_2">
     <g id="line2d_2">
      <path d="M 134.387234 180 
L 229.174468 180 
" clip-path="url(#pe4e9c7575e)" style="fill: none; stroke: #aaaaaa; stroke-width: 0.8; stroke-linecap: square"/>
     </g>
     <g id="text_2">
      <!-- When -->
      <g style="fill: #222222" transform="translate(231.8 183.31125) scale(0.12 -0.12)">
       <defs>
        <path id="DejaVuSans-57" d="M 213 4666 
L 850 4666 
L 1831 722 
L 2809 4666 
L 3519 4666 
L 4500 722 
L 5478 4666 
L 6119 4666 
L 4947 0 
L 4153 0 
L 3169 4050 
L 2175 0 
L 1381 0 
L 213 4666 
z
" transform="scale(0.015625)"/>
        <path id="DejaVuSans-68" d="M 3513 2113 
L 3513 0 
L 2938 0 
L 2938 2094 
Q 2938 2591 2744 2837 
Q 2550 3084 2163 3084 
Q 1697 3084 1428 2787 
Q 1159 2491 1159 1978 
L 1159 0 
L 581 0 
L 581 4863 
L 1159 4863 
L 1159 2956 
Q 1366 3272 1645 3428 
Q 1925 3584 2291 3584 
Q 2894 3584 3203 3211 
Q 3513 2838 3513 2113 
z
" transform="scale(0.015625)"/>
        <path id="DejaVuSans-65" d="M 3597 1894 
L 3597 1613 
L 953 1613 
Q 991 1019 1311 708 
Q 1631 397 2203 397 
Q 2534 397 2845 478 
Q 3156 559 3463 722 
L 3463 178 
Q 3153 47 2828 -22 
Q 2503 -91 2169 -91 
Q 1331 -91 842 396 
Q 353 884 353 1716 
Q 353 2575 817 3079 
Q 1281 3584 2069 3584 
Q 2775 3584 3186 3129 
Q 3597 2675 3597 1894 
z
M 3022 2063 
Q 3016 2534 2758 2815 
Q 2500 3097 2075 3097 
Q 1594 3097 1305 2825 
Q 1016 2553 972 2059 
L 3022 2063 
z
" transform="scale(0.015625)"/>
        <path id="DejaVuSans-6e" d="M 3513 2113 
L 3513 0 
L 2938 0 
L 2938 2094 
Q 2938 2591 2744 2837 
Q 2550 3084 2163 3084 
Q 1697 3084 1428 2787 
Q 1159 2491 1159 1978 
L 1159 0 
L 581 0 
L 581 3500 
L 1159 3500 
L 1159 2956 
Q 1366 3272 1645 3428 
Q 1925 3584 2291 3584 
Q 2894 3584 3203 3211 
Q 3513 2838 3513 2113 
z
" transform="scale(0.015625)"/>
       </defs>
       <use xlink:href="#DejaVuSans-57"/>
       <use xlink:href="#DejaVuSans-68" x="98.876953"/>
       <use xlink:href="#DejaVuSans-65" x="162.255859"/>
       <use xlink:href="#DejaVuSans-6e" x="223.779297"/>
      </g>
     </g>
    </g>
    <g id="xtick_3">
     <g id="line2d_3">
      <path d="M 134.387234 180 
L 134.387234 274.787234 
" clip-path="url(#pe4e9c7575e)" style="fill: none; stroke: #aaaaaa; stroke-width: 0.8; stroke-linecap: square"/>
     </g>
     <g id="text_3">
      <!-- Where -->
      <g style="fill: #222222" transform="translate(114.936922 284.515505) scale(0.12 -0.12)">
       <defs>
        <path id="DejaVuSans-72" d="M 2631 2963 
Q 2534 3019 2420 3045 
Q 2306 3072 2169 3072 
Q 1681 3072 1420 2755 
Q 1159 2438 1159 1844 
L 1159 0 
L 581 0 
L 581 3500 
L 1159 3500 
L 1159 2956 
Q 1341 3275 1631 3429 
Q 1922 3584 2338 3584 
Q 2397 3584 2469 3576 
Q 2541 3569 2628 3553 
L 2631 2963 
z
" transform="scale(0.015625)"/>
       </defs>
       <use xlink:href="#DejaVuSans-57"/>
       <use xlink:href="#DejaVuSans-68" x="98.876953"/>
       <use xlink:href="#DejaVuSans-65" x="162.255859"/>
       <use xlink:href="#DejaVuSans-72" x="223.779297"/>
       <use xlink:href="#DejaVuSans-65" x="262.642578"/>
      </g>
     </g>
    </g>
    <g id="xtick_4">
     <g id="line2d_4">
      <path d="M 134.387234 180 
L 39.6 180 
" clip-path="url(#pe4e9c7575e)" style="fill: none; stroke: #aaaaaa; stroke-width: 0.8; stroke-linecap: square"/>
     </g>
     <g id="text_4">
      <!-- Who -->
      <g style="fill: #222222" transform="translate(10.161968 183.31125) scale(0.12 -0.12)">
       <use xlink:href="#DejaVuSans-57"/>
       <use xlink:href="#DejaVuSans-68" x="98.876953"/>
       <use xlink:href="#DejaVuSans-6f" x="162.255859"/>
      </g>
     </g>
    </g>
    <g id="xtick_5">
     <g id="line2d_5">
      <path d="M 134.387234 180 
L 134.387234 85.212766 
" clip-path="url(#pe4e9c7575e)" style="fill: none; stroke: #aaaaaa; stroke-width: 0.8; stroke-linecap: square"/>
     </g>
    </g>
   </g>
   <g id="matplotlib.axis_2">
    <g id="ytick_1">
     <g id="line2d_6">
      <path d="M 134.387234 170.521277 
C 135.631969 170.521277 136.8646 170.766462 138.014584 171.242801 
C 139.164569 171.719141 140.209543 172.41737 141.089704 173.29753 
C 141.969864 174.177691 142.668093 175.222665 143.144433 176.37265 
C 143.620772 177.522634 143.865957 178.755265 143.865957 180 
C 143.865957 181.244735 143.620772 182.477366 143.144433 183.62735 
C 142.668093 184.777335 141.969864 185.822309 141.089704 186.70247 
C 140.209543 187.58263 139.164569 188.280859 138.014584 188.757199 
C 136.8646 189.233538 135.631969 189.478723 134.387234 189.478723 
C 133.142499 189.478723 131.909868 189.233538 130.759884 188.757199 
C 129.609899 188.280859 128.564925 187.58263 127.684764 186.70247 
C 126.804604 185.822309 126.106375 184.777335 125.630035 183.62735 
C 125.153696 182.477366 124.908511 181.244735 124.908511 180 
C 124.908511 178.755265 125.153696 177.522634 125.630035 176.37265 
C 126.106375 175.222665 126.804604 174.177691 127.684764 173.29753 
C 128.564925 172.41737 129.609899 171.719141 130.759884 171.242801 
C 131.909868 170.766462 133.142499 170.521277 134.387234 170.521277 
" clip-path="url(#pe4e9c7575e)" style="fill: none; stroke-dasharray: 2.96,1.28; stroke-dashoffset: 0; stroke: #aaaaaa; stroke-width: 0.8"/>
     </g>
     <g id="text_6">
      <!-- 20% -->
      <g style="fill: #222222" transform="translate(141.089704 170.801905) scale(0.12 -0.12)">
       <defs>
        <path id="DejaVuSans-32" d="M 1228 531 
L 3431 531 
L 3431 0 
L 469 0 
L 469 531 
Q 828 903 1448 1529 
Q 2069 2156 2228 2338 
Q 2531 2678 2651 2914 
Q 2772 3150 2772 3378 
Q 2772 3750 2511 3984 
Q 2250 4219 1831 4219 
Q 1534 4219 1204 4116 
Q 875 4013 500 3803 
L 500 4441 
Q 881 4594 1212 4672 
Q 1544 4750 1819 4750 
Q 2544 4750 2975 4387 
Q 3406 4025 3406 3419 
Q 3406 3131 3298 2873 
Q 3191 2616 2906 2266 
Q 2828 2175 2409 1742 
Q 1991 1309 1228 531 
z
" transform="scale(0.015625)"/>
        <path id="DejaVuSans-30" d="M 2034 4250 
Q 1547 4250 1301 3770 
Q 1056 3291 1056 2328 
Q 1056 1369 1301 889 
Q 1547 409 2034 409 
Q 2525 409 2770 889 
Q 3016 1369 3016 2328 
Q 3016 3291 2770 3770 
Q 2525 4250 2034 4250 
z
M 2034 4750 
Q 2819 4750 3233 4129 
Q 3647 3509 3647 2328 
Q 3647 1150 3233 529 
Q 2819 -91 2034 -91 
Q 1250 -91 836 529 
Q 422 1150 422 2328 
Q 422 3509 836 4129 
Q 1250 4750 2034 4750 
z
" transform="scale(0.015625)"/>
        <path id="DejaVuSans-25" d="M 4653 2053 
Q 4381 2053 4226 1822 
Q 4072 1591 4072 1178 
Q 4072 772 4226 539 
Q 4381 306 4653 306 
Q 4919 306 5073 539 
Q 5228 772 5228 1178 
Q 5228 1588 5073 1820 
Q 4919 2053 4653 2053 
z
M 4653 2450 
Q 5147 2450 5437 2106 
Q 5728 1763 5728 1178 
Q 5728 594 5436 251 
Q 5144 -91 4653 -91 
Q 4153 -91 3862 251 
Q 3572 594 3572 1178 
Q 3572 1766 3864 2108 
Q 4156 2450 4653 2450 
z
M 1428 4353 
Q 1159 4353 1004 4120 
Q 850 3888 850 3481 
Q 850 3069 1003 2837 
Q 1156 2606 1428 2606 
Q 1700 2606 1854 2837 
Q 2009 3069 2009 3481 
Q 2009 3884 1853 4118 
Q 1697 4353 1428 4353 
z
M 4250 4750 
L 4750 4750 
L 1831 -91 
L 1331 -91 
L 4250 4750 
z
M 1428 4750 
Q 1922 4750 2215 4408 
Q 2509 4066 2509 3481 
Q 2509 2891 2217 2550 
Q 1925 2209 1428 2209 
Q 931 2209 642 2551 
Q 353 2894 353 3481 
Q 353 4063 643 4406 
Q 934 4750 1428 4750 
z
" transform="scale(0.015625)"/>
       </defs>
       <use xlink:href="#DejaVuSans-32"/>
       <use xlink:href="#DejaVuSans-30" x="63.623047"/>
       <use xlink:href="#DejaVuSans-25" x="127.246094"/>
      </g>
     </g>
    </g>
    <g id="ytick_2">
     <g id="line2d_7">
      <path d="M 134.387234 161.042553 
C 136.876703 161.042553 139.341965 161.532924 141.641935 162.485603 
C 143.941904 163.438281 146.031853 164.83474 147.792173 166.595061 
C 149.552494 168.355381 150.948953 170.44533 151.901631 172.745299 
C 152.85431 175.045269 153.344681 177.510531 153.344681 180 
C 153.344681 182.489469 152.85431 184.954731 151.901631 187.254701 
C 150.948953 189.55467 149.552494 191.644619 147.792173 193.404939 
C 146.031853 195.16526 143.941904 196.561719 141.641935 197.514397 
C 139.341965 198.467076 136.876703 198.957447 134.387234 198.957447 
C 131.897765 198.957447 129.432503 198.467076 127.132533 197.514397 
C 124.832564 196.561719 122.742615 195.16526 120.982295 193.404939 
C 119.221974 191.644619 117.825516 189.55467 116.872837 187.254701 
C 115.920158 184.954731 115.429787 182.489469 115.429787 180 
C 115.429787 177.510531 115.920158 175.045269 116.872837 172.745299 
C 117.825516 170.44533 119.221974 168.355381 120.982295 166.595061 
C 122.742615 164.83474 124.832564 163.438281 127.132533 162.485603 
C 129.432503 161.532924 131.897765 161.042553 134.387234 161.042553 
" clip-path="url(#pe4e9c7575e)" style="fill: none; stroke: #aaaaaa; stroke-width: 0.8; stroke-linecap: square"/>
     </g>
    </g>
    <g id="ytick_3">
     <g id="line2d_8">
      <path d="M 134.387234 151.56383 
C 138.121438 151.56383 141.819331 152.299386 145.269285 153.728404 
C 148.71924 155.157422 151.854162 157.25211 154.494643 159.892591 
C 157.135124 162.533072 159.229812 165.667994 160.65883 169.117949 
C 162.087848 172.567903 162.823404 176.265796 162.823404 180 
C 162.823404 183.734204 162.087848 187.432097 160.65883 190.882051 
C 159.229812 194.332006 157.135124 197.466928 154.494643 200.107409 
C 151.854162 202.74789 148.71924 204.842578 145.269285 206.271596 
C 141.819331 207.700614 138.121438 208.43617 134.387234 208.43617 
C 130.65303 208.43617 126.955137 207.700614 123.505183 206.271596 
C 120.055228 204.842578 116.920306 202.74789 114.279825 200.107409 
C 111.639345 197.466928 109.544656 194.332006 108.115638 190.882051 
C 106.686621 187.432097 105.951064 183.734204 105.951064 180 
C 105.951064 176.265796 106.686621 172.567903 108.115638 169.117949 
C 109.544656 165.667994 111.639345 162.533072 114.279825 159.892591 
C 116.920306 157.25211 120.055228 155.157422 123.505183 153.728404 
C 126.955137 152.299386 130.65303 151.56383 134.387234 151.56383 
" clip-path="url(#pe4e9c7575e)" style="fill: none; stroke-dasharray: 2.96,1.28; stroke-dashoffset: 0; stroke: #aaaaaa; stroke-width: 0.8"/>
     </g>
     <g id="text_7">
      <!-- 40% -->
      <g style="fill: #222222" transform="translate(154.494643 157.396966) scale(0.12 -0.12)">
       <defs>
        <path id="DejaVuSans-34" d="M 2419 4116 
L 825 1625 
L 2419 1625 
L 2419 4116 
z
M 2253 4666 
L 3047 4666 
L 3047 1625 
L 3713 1625 
L 3713 1100 
L 3047 1100 
L 3047 0 
L 2419 0 
L 2419 1100 
L 313 1100 
L 313 1709 
L 2253 4666 
z
" transform="scale(0.015625)"/>
       </defs>
       <use xlink:href="#DejaVuSans-34"/>
       <use xlink:href="#DejaVuSans-30" x="63.623047"/>
       <use xlink:href="#DejaVuSans-25" x="127.246094"/>
      </g>
     </g>
    </g>
    <g id="ytick_4">
     <g id="line2d_9">
      <path d="M 134.387234 142.085106 
C 139.366172 142.085106 144.296697 143.065849 148.896636 144.971206 
C 153.496575 146.876563 157.676471 149.669481 161.197112 153.190122 
C 164.717753 156.710763 167.510671 160.890659 169.416028 165.490598 
C 171.321385 170.090537 172.302128 175.021062 172.302128 180 
C 172.302128 184.978938 171.321385 189.909463 169.416028 194.509402 
C 167.510671 199.109341 164.717753 203.289237 161.197112 206.809878 
C 157.676471 210.330519 153.496575 213.123437 148.896636 215.028794 
C 144.296697 216.934151 139.366172 217.914894 134.387234 217.914894 
C 129.408296 217.914894 124.477772 216.934151 119.877832 215.028794 
C 115.277893 213.123437 111.097997 210.330519 107.577356 206.809878 
C 104.056715 203.289237 101.263797 199.109341 99.35844 194.509402 
C 97.453083 189.909463 96.47234 184.978938 96.47234 180 
C 96.47234 175.021062 97.453083 170.090537 99.35844 165.490598 
C 101.263797 160.890659 104.056715 156.710763 107.577356 153.190122 
C 111.097997 149.669481 115.277893 146.876563 119.877832 144.971206 
C 124.477772 143.065849 129.408296 142.085106 134.387234 142.085106 
" clip-path="url(#pe4e9c7575e)" style="fill: none; stroke: #aaaaaa; stroke-width: 0.8; stroke-linecap: square"/>
     </g>
    </g>
    <g id="ytick_5">
     <g id="line2d_10">
      <path d="M 134.387234 132.606383 
C 140.610907 132.606383 146.774062 133.832311 152.523986 136.214007 
C 158.27391 138.595704 163.498781 142.086851 167.899582 146.487652 
C 172.300383 150.888453 175.79153 156.113324 178.173227 161.863248 
C 180.554923 167.613172 181.780851 173.776327 181.780851 180 
C 181.780851 186.223673 180.554923 192.386828 178.173227 198.136752 
C 175.79153 203.886676 172.300383 209.111547 167.899582 213.512348 
C 163.498781 217.913149 158.27391 221.404296 152.523986 223.785993 
C 146.774062 226.167689 140.610907 227.393617 134.387234 227.393617 
C 128.163561 227.393617 122.000406 226.167689 116.250482 223.785993 
C 110.500558 221.404296 105.275687 217.913149 100.874886 213.512348 
C 96.474085 209.111547 92.982938 203.886676 90.601241 198.136752 
C 88.219545 192.386828 86.993617 186.223673 86.993617 180 
C 86.993617 173.776327 88.219545 167.613172 90.601241 161.863248 
C 92.982938 156.113324 96.474085 150.888453 100.874886 146.487652 
C 105.275687 142.086851 110.500558 138.595704 116.250482 136.214007 
C 122.000406 133.832311 128.163561 132.606383 134.387234 132.606383 
" clip-path="url(#pe4e9c7575e)" style="fill: none; stroke-dasharray: 2.96,1.28; stroke-dashoffset: 0; stroke: #aaaaaa; stroke-width: 0.8"/>
     </g>
     <g id="text_8">
      <!-- 60% -->
      <g style="fill: #222222" transform="translate(167.899582 143.992027) scale(0.12 -0.12)">
       <defs>
        <path id="DejaVuSans-36" d="M 2113 2584 
Q 1688 2584 1439 2293 
Q 1191 2003 1191 1497 
Q 1191 994 1439 701 
Q 1688 409 2113 409 
Q 2538 409 2786 701 
Q 3034 994 3034 1497 
Q 3034 2003 2786 2293 
Q 2538 2584 2113 2584 
z
M 3366 4563 
L 3366 3988 
Q 3128 4100 2886 4159 
Q 2644 4219 2406 4219 
Q 1781 4219 1451 3797 
Q 1122 3375 1075 2522 
Q 1259 2794 1537 2939 
Q 1816 3084 2150 3084 
Q 2853 3084 3261 2657 
Q 3669 2231 3669 1497 
Q 3669 778 3244 343 
Q 2819 -91 2113 -91 
Q 1303 -91 875 529 
Q 447 1150 447 2328 
Q 447 3434 972 4092 
Q 1497 4750 2381 4750 
Q 2619 4750 2861 4703 
Q 3103 4656 3366 4563 
z
" transform="scale(0.015625)"/>
       </defs>
       <use xlink:href="#DejaVuSans-36"/>
       <use xlink:href="#DejaVuSans-30" x="63.623047"/>
       <use xlink:href="#DejaVuSans-25" x="127.246094"/>
      </g>
     </g>
    </g>
    <g id="ytick_6">
     <g id="line2d_11">
      <path d="M 134.387234 123.12766 
C 141.855641 123.12766 149.251428 124.598773 156.151336 127.456809 
C 163.051245 130.314844 169.32109 134.504221 174.602052 139.785182 
C 179.883013 145.066144 184.07239 151.335989 186.930425 158.235898 
C 189.788461 165.135806 191.259574 172.531593 191.259574 180 
C 191.259574 187.468407 189.788461 194.864194 186.930425 201.764102 
C 184.07239 208.664011 179.883013 214.933856 174.602052 220.214818 
C 169.32109 225.495779 163.051245 229.685156 156.151336 232.543191 
C 149.251428 235.401227 141.855641 236.87234 134.387234 236.87234 
C 126.918827 236.87234 119.52304 235.401227 112.623132 232.543191 
C 105.723223 229.685156 99.453378 225.495779 94.172416 220.214818 
C 88.891455 214.933856 84.702079 208.664011 81.844043 201.764102 
C 78.986007 194.864194 77.514894 187.468407 77.514894 180 
C 77.514894 172.531593 78.986007 165.135806 81.844043 158.235898 
C 84.702079 151.335989 88.891455 145.066144 94.172416 139.785182 
C 99.453378 134.504221 105.723223 130.314844 112.623132 127.456809 
C 119.52304 124.598773 126.918827 123.12766 134.387234 123.12766 
" clip-path="url(#pe4e9c7575e)" style="fill: none; stroke: #aaaaaa; stroke-width: 0.8; stroke-linecap: square"/>
     </g>
    </g>
    <g id="ytick_7">
     <g id="line2d_12">
      <path d="M 134.387234 113.648936 
C 143.100376 113.648936 151.728793 115.365235 159.778687 118.69961 
C 167.82858 122.033985 175.1434 126.921591 181.304521 133.082713 
C 187.465643 139.243835 192.353249 146.558654 195.687624 154.608547 
C 199.021999 162.658441 200.738298 171.286858 200.738298 180 
C 200.738298 188.713142 199.021999 197.341559 195.687624 205.391453 
C 192.353249 213.441346 187.465643 220.756165 181.304521 226.917287 
C 175.1434 233.078409 167.82858 237.966015 159.778687 241.30039 
C 151.728793 244.634765 143.100376 246.351064 134.387234 246.351064 
C 125.674092 246.351064 117.045675 244.634765 108.995781 241.30039 
C 100.945888 237.966015 93.631069 233.078409 87.469947 226.917287 
C 81.308825 220.756165 76.421219 213.441346 73.086844 205.391453 
C 69.752469 197.341559 68.03617 188.713142 68.03617 180 
C 68.03617 171.286858 69.752469 162.658441 73.086844 154.608547 
C 76.421219 146.558654 81.308825 139.243835 87.469947 133.082713 
C 93.631069 126.921591 100.945888 122.033985 108.995781 118.69961 
C 117.045675 115.365235 125.674092 113.648936 134.387234 113.648936 
" clip-path="url(#pe4e9c7575e)" style="fill: none; stroke-dasharray: 2.96,1.28; stroke-dashoffset: 0; stroke: #aaaaaa; stroke-width: 0.8"/>
     </g>
     <g id="text_9">
      <!-- 80% -->
      <g style="fill: #222222" transform="translate(181.304521 130.587088) scale(0.12 -0.12)">
       <defs>
        <path id="DejaVuSans-38" d="M 2034 2216 
Q 1584 2216 1326 1975 
Q 1069 1734 1069 1313 
Q 1069 891 1326 650 
Q 1584 409 2034 409 
Q 2484 409 2743 651 
Q 3003 894 3003 1313 
Q 3003 1734 2745 1975 
Q 2488 2216 2034 2216 
z
M 1403 2484 
Q 997 2584 770 2862 
Q 544 3141 544 3541 
Q 544 4100 942 4425 
Q 1341 4750 2034 4750 
Q 2731 4750 3128 4425 
Q 3525 4100 3525 3541 
Q 3525 3141 3298 2862 
Q 3072 2584 2669 2484 
Q 3125 2378 3379 2068 
Q 3634 1759 3634 1313 
Q 3634 634 3220 271 
Q 2806 -91 2034 -91 
Q 1263 -91 848 271 
Q 434 634 434 1313 
Q 434 1759 690 2068 
Q 947 2378 1403 2484 
z
M 1172 3481 
Q 1172 3119 1398 2916 
Q 1625 2713 2034 2713 
Q 2441 2713 2670 2916 
Q 2900 3119 2900 3481 
Q 2900 3844 2670 4047 
Q 2441 4250 2034 4250 
Q 1625 4250 1398 4047 
Q 1172 3844 1172 3481 
z
" transform="scale(0.015625)"/>
       </defs>
       <use xlink:href="#DejaVuSans-38"/>
       <use xlink:href="#DejaVuSans-30" x="63.623047"/>
       <use xlink:href="#DejaVuSans-25" x="127.246094"/>
      </g>
     </g>
    </g>
    <g id="ytick_8">
     <g id="line2d_13">
      <path d="M 134.387234 104.170213 
C 144.34511 104.170213 154.206159 106.131697 163.406037 109.942412 
C 172.605916 113.753126 180.965709 119.338961 188.006991 126.380243 
C 195.048273 133.421525 200.634108 141.781319 204.444822 150.981197 
C 208.255537 160.181075 210.217021 170.042124 210.217021 180 
C 210.217021 189.957876 208.255537 199.818925 204.444822 209.018803 
C 200.634108 218.218681 195.048273 226.578475 188.006991 233.619757 
C 180.965709 240.661039 172.605916 246.246874 163.406037 250.057588 
C 154.206159 253.868303 144.34511 255.829787 134.387234 255.829787 
C 124.429358 255.829787 114.568309 253.868303 105.368431 250.057588 
C 96.168553 246.246874 87.808759 240.661039 80.767477 233.619757 
C 73.726195 226.578475 68.14036 218.218681 64.329646 209.018803 
C 60.518931 199.818925 58.557447 189.957876 58.557447 180 
C 58.557447 170.042124 60.518931 160.181075 64.329646 150.981197 
C 68.14036 141.781319 73.726195 133.421525 80.767477 126.380243 
C 87.808759 119.338961 96.168553 113.753126 105.368431 109.942412 
C 114.568309 106.131697 124.429358 104.170213 134.387234 104.170213 
" clip-path="url(#pe4e9c7575e)" style="fill: none; stroke: #aaaaaa; stroke-width: 0.8; stroke-linecap: square"/>
     </g>
    </g>
    <g id="ytick_9">
     <g id="line2d_14">
      <path d="M 134.387234 94.691489 
C 145.589845 94.691489 156.683525 96.898159 167.033388 101.185213 
C 177.383251 105.472267 186.788018 111.756331 194.70946 119.677774 
C 202.630903 127.599216 208.914967 137.003983 213.202021 147.353846 
C 217.489075 157.703709 219.695745 168.797389 219.695745 180 
C 219.695745 191.202611 217.489075 202.296291 213.202021 212.646154 
C 208.914967 222.996017 202.630903 232.400784 194.70946 240.322226 
C 186.788018 248.243669 177.383251 254.527733 167.033388 258.814787 
C 156.683525 263.101841 145.589845 265.308511 134.387234 265.308511 
C 123.184623 265.308511 112.090943 263.101841 101.74108 258.814787 
C 91.391217 254.527733 81.98645 248.243669 74.065008 240.322226 
C 66.143565 232.400784 59.859501 222.996017 55.572447 212.646154 
C 51.285393 202.296291 49.078723 191.202611 49.078723 180 
C 49.078723 168.797389 51.285393 157.703709 55.572447 147.353846 
C 59.859501 137.003983 66.143565 127.599216 74.065008 119.677774 
C 81.98645 111.756331 91.391217 105.472267 101.74108 101.185213 
C 112.090943 96.898159 123.184623 94.691489 134.387234 94.691489 
" clip-path="url(#pe4e9c7575e)" style="fill: none; stroke-dasharray: 2.96,1.28; stroke-dashoffset: 0; stroke: #aaaaaa; stroke-width: 0.8"/>
     </g>
     <g id="text_10">
      <!-- 100% -->
      <g style="fill: #222222" transform="translate(194.70946 117.182149) scale(0.12 -0.12)">
       <defs>
        <path id="DejaVuSans-31" d="M 794 531 
L 1825 531 
L 1825 4091 
L 703 3866 
L 703 4441 
L 1819 4666 
L 2450 4666 
L 2450 531 
L 3481 531 
L 3481 0 
L 794 0 
L 794 531 
z
" transform="scale(0.015625)"/>
       </defs>
       <use xlink:href="#DejaVuSans-31"/>
       <use xlink:href="#DejaVuSans-30" x="63.623047"/>
       <use xlink:href="#DejaVuSans-30" x="127.246094"/>
       <use xlink:href="#DejaVuSans-25" x="190.869141"/>
      </g>
     </g>
    </g>
    <g id="ytick_10">
     <g id="line2d_15">
      <path d="M 134.387234 85.212766 
C 146.83458 85.212766 159.16089 87.664622 170.660738 92.428015 
C 182.160586 97.191407 192.610328 104.173702 201.41193 112.975304 
C 210.213532 121.776906 217.195827 132.226648 221.95922 143.726496 
C 226.722612 155.226344 229.174468 167.552654 229.174468 180 
C 229.174468 192.447346 226.722612 204.773656 221.95922 216.273504 
C 217.195827 227.773352 210.213532 238.223094 201.41193 247.024696 
C 192.610328 255.826298 182.160586 262.808593 170.660738 267.571985 
C 159.16089 272.335378 146.83458 274.787234 134.387234 274.787234 
C 121.939889 274.787234 109.613578 272.335378 98.11373 267.571985 
C 86.613882 262.808593 76.164141 255.826298 67.362538 247.024696 
C 58.560936 238.223094 51.578641 227.773352 46.815249 216.273504 
C 42.051856 204.773656 39.6 192.447346 39.6 180 
C 39.6 167.552654 42.051856 155.226344 46.815249 143.726496 
C 51.578641 132.226648 58.560936 121.776906 67.362538 112.975304 
C 76.164141 104.173702 86.613882 97.191407 98.11373 92.428015 
C 109.613578 87.664622 121.939889 85.212766 134.387234 85.212766 
" clip-path="url(#pe4e9c7575e)" style="fill: none; stroke: #aaaaaa; stroke-width: 0.8; stroke-linecap: square"/>
     </g>
    </g>
   </g>
   <g id="line2d_16">
    <path d="M 134.387234 85.212766 
L 229.174468 180 
L 134.387234 227.393617 
L 93.312766 180 
L 134.387234 85.212766 
" clip-path="url(#pe4e9c7575e)" style="fill: none; stroke: #006400; stroke-linecap: square"/>
   </g>
   <g id="line2d_17">
    <path d="M 134.387234 180 
L 229.174468 180 
L 134.387234 180 
L 115.429787 180 
L 134.387234 180 
" clip-path="url(#pe4e9c7575e)" style="fill: none; stroke: #6495ed; stroke-linecap: square"/>
   </g>
   <g id="patch_5">
    <path d="M 134.387234 85.212766 
C 121.939889 85.212766 109.613578 87.664622 98.11373 92.428015 
C 86.613882 97.191407 76.164141 104.173702 67.362538 112.975304 
C 58.560936 121.776906 51.578641 132.226648 46.815249 143.726496 
C 42.051856 155.226344 39.6 167.552654 39.6 180 
C 39.6 192.447346 42.051856 204.773656 46.815249 216.273504 
C 51.578641 227.773352 58.560936 238.223094 67.362538 247.024696 
C 76.164141 255.826298 86.613882 262.808593 98.11373 267.571985 
C 109.613578 272.335378 121.939889 274.787234 134.387234 274.787234 
C 146.83458 274.787234 159.16089 272.335378 170.660738 267.571985 
C 182.160586 262.808593 192.610328 255.826298 201.41193 247.024696 
C 210.213532 238.223094 217.195827 227.773352 221.95922 216.273504 
C 226.722612 204.773656 229.174468 192.447346 229.174468 180 
C 229.174468 167.552654 226.722612 155.226344 221.95922 143.726496 
C 217.195827 132.226648 210.213532 121.776906 201.41193 112.975304 
C 192.610328 104.173702 182.160586 97.191407 170.660738 92.428015 
C 159.16089 87.664622 146.83458 85.212766 134.387234 85.212766 
" style="fill: none; stroke: #222222; stroke-width: 0.8; stroke-linejoin: miter; stroke-linecap: square"/>
   </g>
   <g id="text_11">
    <!-- Data Collection -->
    <g transform="translate(80.824109 66.98887) scale(0.14 -0.14)">
     <defs>
      <path id="DejaVuSans-44" d="M 1259 4147 
L 1259 519 
L 2022 519 
Q 2988 519 3436 956 
Q 3884 1394 3884 2338 
Q 3884 3275 3436 3711 
Q 2988 4147 2022 4147 
L 1259 4147 
z
M 628 4666 
L 1925 4666 
Q 3281 4666 3915 4102 
Q 4550 3538 4550 2338 
Q 4550 1131 3912 565 
Q 3275 0 1925 0 
L 628 0 
L 628 4666 
z
" transform="scale(0.015625)"/>
      <path id="DejaVuSans-61" d="M 2194 1759 
Q 1497 1759 1228 1600 
Q 959 1441 959 1056 
Q 959 750 1161 570 
Q 1363 391 1709 391 
Q 2188 391 2477 730 
Q 2766 1069 2766 1631 
L 2766 1759 
L 2194 1759 
z
M 3341 1997 
L 3341 0 
L 2766 0 
L 2766 531 
Q 2569 213 2275 61 
Q 1981 -91 1556 -91 
Q 1019 -91 701 211 
Q 384 513 384 1019 
Q 384 1609 779 1909 
Q 1175 2209 1959 2209 
L 2766 2209 
L 2766 2266 
Q 2766 2663 2505 2880 
Q 2244 3097 1772 3097 
Q 1472 3097 1187 3025 
Q 903 2953 641 2809 
L 641 3341 
Q 956 3463 1253 3523 
Q 1550 3584 1831 3584 
Q 2591 3584 2966 3190 
Q 3341 2797 3341 1997 
z
" transform="scale(0.015625)"/>
      <path id="DejaVuSans-74" d="M 1172 4494 
L 1172 3500 
L 2356 3500 
L 2356 3053 
L 1172 3053 
L 1172 1153 
Q 1172 725 1289 603 
Q 1406 481 1766 481 
L 2356 481 
L 2356 0 
L 1766 0 
Q 1100 0 847 248 
Q 594 497 594 1153 
L 594 3053 
L 172 3053 
L 172 3500 
L 594 3500 
L 594 4494 
L 1172 4494 
z
" transform="scale(0.015625)"/>
      <path id="DejaVuSans-20" transform="scale(0.015625)"/>
      <path id="DejaVuSans-43" d="M 4122 4306 
L 4122 3641 
Q 3803 3938 3442 4084 
Q 3081 4231 2675 4231 
Q 1875 4231 1450 3742 
Q 1025 3253 1025 2328 
Q 1025 1406 1450 917 
Q 1875 428 2675 428 
Q 3081 428 3442 575 
Q 3803 722 4122 1019 
L 4122 359 
Q 3791 134 3420 21 
Q 3050 -91 2638 -91 
Q 1578 -91 968 557 
Q 359 1206 359 2328 
Q 359 3453 968 4101 
Q 1578 4750 2638 4750 
Q 3056 4750 3426 4639 
Q 3797 4528 4122 4306 
z
" transform="scale(0.015625)"/>
      <path id="DejaVuSans-6c" d="M 603 4863 
L 1178 4863 
L 1178 0 
L 603 0 
L 603 4863 
z
" transform="scale(0.015625)"/>
      <path id="DejaVuSans-63" d="M 3122 3366 
L 3122 2828 
Q 2878 2963 2633 3030 
Q 2388 3097 2138 3097 
Q 1578 3097 1268 2742 
Q 959 2388 959 1747 
Q 959 1106 1268 751 
Q 1578 397 2138 397 
Q 2388 397 2633 464 
Q 2878 531 3122 666 
L 3122 134 
Q 2881 22 2623 -34 
Q 2366 -91 2075 -91 
Q 1284 -91 818 406 
Q 353 903 353 1747 
Q 353 2603 823 3093 
Q 1294 3584 2113 3584 
Q 2378 3584 2631 3529 
Q 2884 3475 3122 3366 
z
" transform="scale(0.015625)"/>
      <path id="DejaVuSans-69" d="M 603 3500 
L 1178 3500 
L 1178 0 
L 603 0 
L 603 3500 
z
M 603 4863 
L 1178 4863 
L 1178 4134 
L 603 4134 
L 603 4863 
z
" transform="scale(0.015625)"/>
     </defs>
     <use xlink:href="#DejaVuSans-44"/>
     <use xlink:href="#DejaVuSans-61" x="77.001953"/>
     <use xlink:href="#DejaVuSans-74" x="138.28125"/>
     <use xlink:href="#DejaVuSans-61" x="177.490234"/>
     <use xlink:href="#DejaVuSans-20" x="238.769531"/>
     <use xlink:href="#DejaVuSans-43" x="270.556641"/>
     <use xlink:href="#DejaVuSans-6f" x="340.380859"/>
     <use xlink:href="#DejaVuSans-6c" x="401.5625"/>
     <use xlink:href="#DejaVuSans-6c" x="429.345703"/>
     <use xlink:href="#DejaVuSans-65" x="457.128906"/>
     <use xlink:href="#DejaVuSans-63" x="518.652344"/>
     <use xlink:href="#DejaVuSans-74" x="573.632812"/>
     <use xlink:href="#DejaVuSans-69" x="612.841797"/>
     <use xlink:href="#DejaVuSans-6f" x="640.625"/>
     <use xlink:href="#DejaVuSans-6e" x="701.806641"/>
    </g>
   </g>
  </g>
  <g id="axes_2">
   <g id="patch_6">
    <path d="M 490.787234 180 
C 490.787234 167.552654 488.335378 155.226344 483.571985 143.726496 
C 478.808593 132.226648 471.826298 121.776906 463.024696 112.975304 
C 454.223094 104.173702 443.773352 97.191407 432.273504 92.428015 
C 420.773656 87.664622 408.447346 85.212766 396 85.212766 
C 383.552654 85.212766 371.226344 87.664622 359.726496 92.428015 
C 348.226648 97.191407 337.776906 104.173702 328.975304 112.975304 
C 320.173702 121.776906 313.191407 132.226648 308.428015 143.726496 
C 303.664622 155.226344 301.212766 167.552654 301.212766 180 
C 301.212766 192.447346 303.664622 204.773656 308.428015 216.273504 
C 313.191407 227.773352 320.173702 238.223094 328.975304 247.024696 
C 337.776906 255.826298 348.226648 262.808593 359.726496 267.571985 
C 371.226344 272.335378 383.552654 274.787234 396 274.787234 
C 408.447346 274.787234 420.773656 272.335378 432.273504 267.571985 
C 443.773352 262.808593 454.223094 255.826298 463.024696 247.024696 
C 471.826298 238.223094 478.808593 227.773352 483.571985 216.273504 
C 488.335378 204.773656 490.787234 192.447346 490.787234 180 
M 396 180 
C 396 180 396 180 396 180 
C 396 180 396 180 396 180 
C 396 180 396 180 396 180 
C 396 180 396 180 396 180 
C 396 180 396 180 396 180 
C 396 180 396 180 396 180 
C 396 180 396 180 396 180 
C 396 180 396 180 396 180 
C 396 180 396 180 396 180 
C 396 180 396 180 396 180 
C 396 180 396 180 396 180 
C 396 180 396 180 396 180 
C 396 180 396 180 396 180 
C 396 180 396 180 396 180 
C 396 180 396 180 396 180 
C 396 180 396 180 396 180 
M 490.787234 180 
z
" style="fill: #fbfbfc"/>
   </g>
   <g id="patch_7">
    <path d="M 396 85.212766 
L 443.393617 180 
L 396 180 
L 367.56383 180 
z
" clip-path="url(#p1b3ef31ad1)" style="fill: #006400; opacity: 0.25; stroke: #006400; stroke-linejoin: miter"/>
   </g>
   <g id="patch_8">
    <path d="M 396 180 
L 443.393617 180 
L 396 180 
L 396 180 
z
" clip-path="url(#p1b3ef31ad1)" style="fill: #6495ed; opacity: 0.25; stroke: #6495ed; stroke-linejoin: miter"/>
   </g>
   <g id="matplotlib.axis_3">
    <g id="xtick_6">
     <g id="line2d_18">
      <path d="M 396 180 
L 396 85.212766 
" clip-path="url(#p1b3ef31ad1)" style="fill: none; stroke: #aaaaaa; stroke-width: 0.8; stroke-linecap: square"/>
     </g>
     <g id="text_12">
      <!-- How -->
      <g style="fill: #222222" transform="translate(382.909688 82.106995) scale(0.12 -0.12)">
       <use xlink:href="#DejaVuSans-48"/>
       <use xlink:href="#DejaVuSans-6f" x="75.195312"/>
       <use xlink:href="#DejaVuSans-77" x="136.376953"/>
      </g>
     </g>
    </g>
    <g id="xtick_7">
     <g id="line2d_19">
      <path d="M 396 180 
L 490.787234 180 
" clip-path="url(#p1b3ef31ad1)" style="fill: none; stroke: #aaaaaa; stroke-width: 0.8; stroke-linecap: square"/>
     </g>
     <g id="text_13">
      <!-- When -->
      <g style="fill: #222222" transform="translate(493.412766 183.31125) scale(0.12 -0.12)">
       <use xlink:href="#DejaVuSans-57"/>
       <use xlink:href="#DejaVuSans-68" x="98.876953"/>
       <use xlink:href="#DejaVuSans-65" x="162.255859"/>
       <use xlink:href="#DejaVuSans-6e" x="223.779297"/>
      </g>
     </g>
    </g>
    <g id="xtick_8">
     <g id="line2d_20">
      <path d="M 396 180 
L 396 274.787234 
" clip-path="url(#p1b3ef31ad1)" style="fill: none; stroke: #aaaaaa; stroke-width: 0.8; stroke-linecap: square"/>
     </g>
     <g id="text_14">
      <!-- Where -->
      <g style="fill: #222222" transform="translate(376.549688 284.515505) scale(0.12 -0.12)">
       <use xlink:href="#DejaVuSans-57"/>
       <use xlink:href="#DejaVuSans-68" x="98.876953"/>
       <use xlink:href="#DejaVuSans-65" x="162.255859"/>
       <use xlink:href="#DejaVuSans-72" x="223.779297"/>
       <use xlink:href="#DejaVuSans-65" x="262.642578"/>
      </g>
     </g>
    </g>
    <g id="xtick_9">
     <g id="line2d_21">
      <path d="M 396 180 
L 301.212766 180 
" clip-path="url(#p1b3ef31ad1)" style="fill: none; stroke: #aaaaaa; stroke-width: 0.8; stroke-linecap: square"/>
     </g>
     <g id="text_15">
      <!-- Who -->
      <g style="fill: #222222" transform="translate(271.774734 183.31125) scale(0.12 -0.12)">
       <use xlink:href="#DejaVuSans-57"/>
       <use xlink:href="#DejaVuSans-68" x="98.876953"/>
       <use xlink:href="#DejaVuSans-6f" x="162.255859"/>
      </g>
     </g>
    </g>
    <g id="xtick_10">
     <g id="line2d_22">
      <path d="M 396 180 
L 396 85.212766 
" clip-path="url(#p1b3ef31ad1)" style="fill: none; stroke: #aaaaaa; stroke-width: 0.8; stroke-linecap: square"/>
     </g>
    </g>
   </g>
   <g id="matplotlib.axis_4">
    <g id="ytick_11">
     <g id="line2d_23">
      <path d="M 396 170.521277 
C 397.244735 170.521277 398.477366 170.766462 399.62735 171.242801 
C 400.777335 171.719141 401.822309 172.41737 402.70247 173.29753 
C 403.58263 174.177691 404.280859 175.222665 404.757199 176.37265 
C 405.233538 177.522634 405.478723 178.755265 405.478723 180 
C 405.478723 181.244735 405.233538 182.477366 404.757199 183.62735 
C 404.280859 184.777335 403.58263 185.822309 402.70247 186.70247 
C 401.822309 187.58263 400.777335 188.280859 399.62735 188.757199 
C 398.477366 189.233538 397.244735 189.478723 396 189.478723 
C 394.755265 189.478723 393.522634 189.233538 392.37265 188.757199 
C 391.222665 188.280859 390.177691 187.58263 389.29753 186.70247 
C 388.41737 185.822309 387.719141 184.777335 387.242801 183.62735 
C 386.766462 182.477366 386.521277 181.244735 386.521277 180 
C 386.521277 178.755265 386.766462 177.522634 387.242801 176.37265 
C 387.719141 175.222665 388.41737 174.177691 389.29753 173.29753 
C 390.177691 172.41737 391.222665 171.719141 392.37265 171.242801 
C 393.522634 170.766462 394.755265 170.521277 396 170.521277 
" clip-path="url(#p1b3ef31ad1)" style="fill: none; stroke-dasharray: 2.96,1.28; stroke-dashoffset: 0; stroke: #aaaaaa; stroke-width: 0.8"/>
     </g>
     <g id="text_17">
      <!-- 20% -->
      <g style="fill: #222222" transform="translate(402.70247 170.801905) scale(0.12 -0.12)">
       <use xlink:href="#DejaVuSans-32"/>
       <use xlink:href="#DejaVuSans-30" x="63.623047"/>
       <use xlink:href="#DejaVuSans-25" x="127.246094"/>
      </g>
     </g>
    </g>
    <g id="ytick_12">
     <g id="line2d_24">
      <path d="M 396 161.042553 
C 398.489469 161.042553 400.954731 161.532924 403.254701 162.485603 
C 405.55467 163.438281 407.644619 164.83474 409.404939 166.595061 
C 411.16526 168.355381 412.561719 170.44533 413.514397 172.745299 
C 414.467076 175.045269 414.957447 177.510531 414.957447 180 
C 414.957447 182.489469 414.467076 184.954731 413.514397 187.254701 
C 412.561719 189.55467 411.16526 191.644619 409.404939 193.404939 
C 407.644619 195.16526 405.55467 196.561719 403.254701 197.514397 
C 400.954731 198.467076 398.489469 198.957447 396 198.957447 
C 393.510531 198.957447 391.045269 198.467076 388.745299 197.514397 
C 386.44533 196.561719 384.355381 195.16526 382.595061 193.404939 
C 380.83474 191.644619 379.438281 189.55467 378.485603 187.254701 
C 377.532924 184.954731 377.042553 182.489469 377.042553 180 
C 377.042553 177.510531 377.532924 175.045269 378.485603 172.745299 
C 379.438281 170.44533 380.83474 168.355381 382.595061 166.595061 
C 384.355381 164.83474 386.44533 163.438281 388.745299 162.485603 
C 391.045269 161.532924 393.510531 161.042553 396 161.042553 
" clip-path="url(#p1b3ef31ad1)" style="fill: none; stroke: #aaaaaa; stroke-width: 0.8; stroke-linecap: square"/>
     </g>
    </g>
    <g id="ytick_13">
     <g id="line2d_25">
      <path d="M 396 151.56383 
C 399.734204 151.56383 403.432097 152.299386 406.882051 153.728404 
C 410.332006 155.157422 413.466928 157.25211 416.107409 159.892591 
C 418.74789 162.533072 420.842578 165.667994 422.271596 169.117949 
C 423.700614 172.567903 424.43617 176.265796 424.43617 180 
C 424.43617 183.734204 423.700614 187.432097 422.271596 190.882051 
C 420.842578 194.332006 418.74789 197.466928 416.107409 200.107409 
C 413.466928 202.74789 410.332006 204.842578 406.882051 206.271596 
C 403.432097 207.700614 399.734204 208.43617 396 208.43617 
C 392.265796 208.43617 388.567903 207.700614 385.117949 206.271596 
C 381.667994 204.842578 378.533072 202.74789 375.892591 200.107409 
C 373.25211 197.466928 371.157422 194.332006 369.728404 190.882051 
C 368.299386 187.432097 367.56383 183.734204 367.56383 180 
C 367.56383 176.265796 368.299386 172.567903 369.728404 169.117949 
C 371.157422 165.667994 373.25211 162.533072 375.892591 159.892591 
C 378.533072 157.25211 381.667994 155.157422 385.117949 153.728404 
C 388.567903 152.299386 392.265796 151.56383 396 151.56383 
" clip-path="url(#p1b3ef31ad1)" style="fill: none; stroke-dasharray: 2.96,1.28; stroke-dashoffset: 0; stroke: #aaaaaa; stroke-width: 0.8"/>
     </g>
     <g id="text_18">
      <!-- 40% -->
      <g style="fill: #222222" transform="translate(416.107409 157.396966) scale(0.12 -0.12)">
       <use xlink:href="#DejaVuSans-34"/>
       <use xlink:href="#DejaVuSans-30" x="63.623047"/>
       <use xlink:href="#DejaVuSans-25" x="127.246094"/>
      </g>
     </g>
    </g>
    <g id="ytick_14">
     <g id="line2d_26">
      <path d="M 396 142.085106 
C 400.978938 142.085106 405.909463 143.065849 410.509402 144.971206 
C 415.109341 146.876563 419.289237 149.669481 422.809878 153.190122 
C 426.330519 156.710763 429.123437 160.890659 431.028794 165.490598 
C 432.934151 170.090537 433.914894 175.021062 433.914894 180 
C 433.914894 184.978938 432.934151 189.909463 431.028794 194.509402 
C 429.123437 199.109341 426.330519 203.289237 422.809878 206.809878 
C 419.289237 210.330519 415.109341 213.123437 410.509402 215.028794 
C 405.909463 216.934151 400.978938 217.914894 396 217.914894 
C 391.021062 217.914894 386.090537 216.934151 381.490598 215.028794 
C 376.890659 213.123437 372.710763 210.330519 369.190122 206.809878 
C 365.669481 203.289237 362.876563 199.109341 360.971206 194.509402 
C 359.065849 189.909463 358.085106 184.978938 358.085106 180 
C 358.085106 175.021062 359.065849 170.090537 360.971206 165.490598 
C 362.876563 160.890659 365.669481 156.710763 369.190122 153.190122 
C 372.710763 149.669481 376.890659 146.876563 381.490598 144.971206 
C 386.090537 143.065849 391.021062 142.085106 396 142.085106 
" clip-path="url(#p1b3ef31ad1)" style="fill: none; stroke: #aaaaaa; stroke-width: 0.8; stroke-linecap: square"/>
     </g>
    </g>
    <g id="ytick_15">
     <g id="line2d_27">
      <path d="M 396 132.606383 
C 402.223673 132.606383 408.386828 133.832311 414.136752 136.214007 
C 419.886676 138.595704 425.111547 142.086851 429.512348 146.487652 
C 433.913149 150.888453 437.404296 156.113324 439.785993 161.863248 
C 442.167689 167.613172 443.393617 173.776327 443.393617 180 
C 443.393617 186.223673 442.167689 192.386828 439.785993 198.136752 
C 437.404296 203.886676 433.913149 209.111547 429.512348 213.512348 
C 425.111547 217.913149 419.886676 221.404296 414.136752 223.785993 
C 408.386828 226.167689 402.223673 227.393617 396 227.393617 
C 389.776327 227.393617 383.613172 226.167689 377.863248 223.785993 
C 372.113324 221.404296 366.888453 217.913149 362.487652 213.512348 
C 358.086851 209.111547 354.595704 203.886676 352.214007 198.136752 
C 349.832311 192.386828 348.606383 186.223673 348.606383 180 
C 348.606383 173.776327 349.832311 167.613172 352.214007 161.863248 
C 354.595704 156.113324 358.086851 150.888453 362.487652 146.487652 
C 366.888453 142.086851 372.113324 138.595704 377.863248 136.214007 
C 383.613172 133.832311 389.776327 132.606383 396 132.606383 
" clip-path="url(#p1b3ef31ad1)" style="fill: none; stroke-dasharray: 2.96,1.28; stroke-dashoffset: 0; stroke: #aaaaaa; stroke-width: 0.8"/>
     </g>
     <g id="text_19">
      <!-- 60% -->
      <g style="fill: #222222" transform="translate(429.512348 143.992027) scale(0.12 -0.12)">
       <use xlink:href="#DejaVuSans-36"/>
       <use xlink:href="#DejaVuSans-30" x="63.623047"/>
       <use xlink:href="#DejaVuSans-25" x="127.246094"/>
      </g>
     </g>
    </g>
    <g id="ytick_16">
     <g id="line2d_28">
      <path d="M 396 123.12766 
C 403.468407 123.12766 410.864194 124.598773 417.764102 127.456809 
C 424.664011 130.314844 430.933856 134.504221 436.214818 139.785182 
C 441.495779 145.066144 445.685156 151.335989 448.543191 158.235898 
C 451.401227 165.135806 452.87234 172.531593 452.87234 180 
C 452.87234 187.468407 451.401227 194.864194 448.543191 201.764102 
C 445.685156 208.664011 441.495779 214.933856 436.214818 220.214818 
C 430.933856 225.495779 424.664011 229.685156 417.764102 232.543191 
C 410.864194 235.401227 403.468407 236.87234 396 236.87234 
C 388.531593 236.87234 381.135806 235.401227 374.235898 232.543191 
C 367.335989 229.685156 361.066144 225.495779 355.785182 220.214818 
C 350.504221 214.933856 346.314844 208.664011 343.456809 201.764102 
C 340.598773 194.864194 339.12766 187.468407 339.12766 180 
C 339.12766 172.531593 340.598773 165.135806 343.456809 158.235898 
C 346.314844 151.335989 350.504221 145.066144 355.785182 139.785182 
C 361.066144 134.504221 367.335989 130.314844 374.235898 127.456809 
C 381.135806 124.598773 388.531593 123.12766 396 123.12766 
" clip-path="url(#p1b3ef31ad1)" style="fill: none; stroke: #aaaaaa; stroke-width: 0.8; stroke-linecap: square"/>
     </g>
    </g>
    <g id="ytick_17">
     <g id="line2d_29">
      <path d="M 396 113.648936 
C 404.713142 113.648936 413.341559 115.365235 421.391453 118.69961 
C 429.441346 122.033985 436.756165 126.921591 442.917287 133.082713 
C 449.078409 139.243835 453.966015 146.558654 457.30039 154.608547 
C 460.634765 162.658441 462.351064 171.286858 462.351064 180 
C 462.351064 188.713142 460.634765 197.341559 457.30039 205.391453 
C 453.966015 213.441346 449.078409 220.756165 442.917287 226.917287 
C 436.756165 233.078409 429.441346 237.966015 421.391453 241.30039 
C 413.341559 244.634765 404.713142 246.351064 396 246.351064 
C 387.286858 246.351064 378.658441 244.634765 370.608547 241.30039 
C 362.558654 237.966015 355.243835 233.078409 349.082713 226.917287 
C 342.921591 220.756165 338.033985 213.441346 334.69961 205.391453 
C 331.365235 197.341559 329.648936 188.713142 329.648936 180 
C 329.648936 171.286858 331.365235 162.658441 334.69961 154.608547 
C 338.033985 146.558654 342.921591 139.243835 349.082713 133.082713 
C 355.243835 126.921591 362.558654 122.033985 370.608547 118.69961 
C 378.658441 115.365235 387.286858 113.648936 396 113.648936 
" clip-path="url(#p1b3ef31ad1)" style="fill: none; stroke-dasharray: 2.96,1.28; stroke-dashoffset: 0; stroke: #aaaaaa; stroke-width: 0.8"/>
     </g>
     <g id="text_20">
      <!-- 80% -->
      <g style="fill: #222222" transform="translate(442.917287 130.587088) scale(0.12 -0.12)">
       <use xlink:href="#DejaVuSans-38"/>
       <use xlink:href="#DejaVuSans-30" x="63.623047"/>
       <use xlink:href="#DejaVuSans-25" x="127.246094"/>
      </g>
     </g>
    </g>
    <g id="ytick_18">
     <g id="line2d_30">
      <path d="M 396 104.170213 
C 405.957876 104.170213 415.818925 106.131697 425.018803 109.942412 
C 434.218681 113.753126 442.578475 119.338961 449.619757 126.380243 
C 456.661039 133.421525 462.246874 141.781319 466.057588 150.981197 
C 469.868303 160.181075 471.829787 170.042124 471.829787 180 
C 471.829787 189.957876 469.868303 199.818925 466.057588 209.018803 
C 462.246874 218.218681 456.661039 226.578475 449.619757 233.619757 
C 442.578475 240.661039 434.218681 246.246874 425.018803 250.057588 
C 415.818925 253.868303 405.957876 255.829787 396 255.829787 
C 386.042124 255.829787 376.181075 253.868303 366.981197 250.057588 
C 357.781319 246.246874 349.421525 240.661039 342.380243 233.619757 
C 335.338961 226.578475 329.753126 218.218681 325.942412 209.018803 
C 322.131697 199.818925 320.170213 189.957876 320.170213 180 
C 320.170213 170.042124 322.131697 160.181075 325.942412 150.981197 
C 329.753126 141.781319 335.338961 133.421525 342.380243 126.380243 
C 349.421525 119.338961 357.781319 113.753126 366.981197 109.942412 
C 376.181075 106.131697 386.042124 104.170213 396 104.170213 
" clip-path="url(#p1b3ef31ad1)" style="fill: none; stroke: #aaaaaa; stroke-width: 0.8; stroke-linecap: square"/>
     </g>
    </g>
    <g id="ytick_19">
     <g id="line2d_31">
      <path d="M 396 94.691489 
C 407.202611 94.691489 418.296291 96.898159 428.646154 101.185213 
C 438.996017 105.472267 448.400784 111.756331 456.322226 119.677774 
C 464.243669 127.599216 470.527733 137.003983 474.814787 147.353846 
C 479.101841 157.703709 481.308511 168.797389 481.308511 180 
C 481.308511 191.202611 479.101841 202.296291 474.814787 212.646154 
C 470.527733 222.996017 464.243669 232.400784 456.322226 240.322226 
C 448.400784 248.243669 438.996017 254.527733 428.646154 258.814787 
C 418.296291 263.101841 407.202611 265.308511 396 265.308511 
C 384.797389 265.308511 373.703709 263.101841 363.353846 258.814787 
C 353.003983 254.527733 343.599216 248.243669 335.677774 240.322226 
C 327.756331 232.400784 321.472267 222.996017 317.185213 212.646154 
C 312.898159 202.296291 310.691489 191.202611 310.691489 180 
C 310.691489 168.797389 312.898159 157.703709 317.185213 147.353846 
C 321.472267 137.003983 327.756331 127.599216 335.677774 119.677774 
C 343.599216 111.756331 353.003983 105.472267 363.353846 101.185213 
C 373.703709 96.898159 384.797389 94.691489 396 94.691489 
" clip-path="url(#p1b3ef31ad1)" style="fill: none; stroke-dasharray: 2.96,1.28; stroke-dashoffset: 0; stroke: #aaaaaa; stroke-width: 0.8"/>
     </g>
     <g id="text_21">
      <!-- 100% -->
      <g style="fill: #222222" transform="translate(456.322226 117.182149) scale(0.12 -0.12)">
       <use xlink:href="#DejaVuSans-31"/>
       <use xlink:href="#DejaVuSans-30" x="63.623047"/>
       <use xlink:href="#DejaVuSans-30" x="127.246094"/>
       <use xlink:href="#DejaVuSans-25" x="190.869141"/>
      </g>
     </g>
    </g>
    <g id="ytick_20">
     <g id="line2d_32">
      <path d="M 396 85.212766 
C 408.447346 85.212766 420.773656 87.664622 432.273504 92.428015 
C 443.773352 97.191407 454.223094 104.173702 463.024696 112.975304 
C 471.826298 121.776906 478.808593 132.226648 483.571985 143.726496 
C 488.335378 155.226344 490.787234 167.552654 490.787234 180 
C 490.787234 192.447346 488.335378 204.773656 483.571985 216.273504 
C 478.808593 227.773352 471.826298 238.223094 463.024696 247.024696 
C 454.223094 255.826298 443.773352 262.808593 432.273504 267.571985 
C 420.773656 272.335378 408.447346 274.787234 396 274.787234 
C 383.552654 274.787234 371.226344 272.335378 359.726496 267.571985 
C 348.226648 262.808593 337.776906 255.826298 328.975304 247.024696 
C 320.173702 238.223094 313.191407 227.773352 308.428015 216.273504 
C 303.664622 204.773656 301.212766 192.447346 301.212766 180 
C 301.212766 167.552654 303.664622 155.226344 308.428015 143.726496 
C 313.191407 132.226648 320.173702 121.776906 328.975304 112.975304 
C 337.776906 104.173702 348.226648 97.191407 359.726496 92.428015 
C 371.226344 87.664622 383.552654 85.212766 396 85.212766 
" clip-path="url(#p1b3ef31ad1)" style="fill: none; stroke: #aaaaaa; stroke-width: 0.8; stroke-linecap: square"/>
     </g>
    </g>
   </g>
   <g id="line2d_33">
    <path d="M 396 85.212766 
L 443.393617 180 
L 396 180 
L 367.56383 180 
L 396 85.212766 
" clip-path="url(#p1b3ef31ad1)" style="fill: none; stroke: #006400; stroke-linecap: square"/>
   </g>
   <g id="line2d_34">
    <path d="M 396 180 
L 443.393617 180 
L 396 180 
L 396 180 
L 396 180 
" clip-path="url(#p1b3ef31ad1)" style="fill: none; stroke: #6495ed; stroke-linecap: square"/>
   </g>
   <g id="patch_9">
    <path d="M 396 85.212766 
C 383.552654 85.212766 371.226344 87.664622 359.726496 92.428015 
C 348.226648 97.191407 337.776906 104.173702 328.975304 112.975304 
C 320.173702 121.776906 313.191407 132.226648 308.428015 143.726496 
C 303.664622 155.226344 301.212766 167.552654 301.212766 180 
C 301.212766 192.447346 303.664622 204.773656 308.428015 216.273504 
C 313.191407 227.773352 320.173702 238.223094 328.975304 247.024696 
C 337.776906 255.826298 348.226648 262.808593 359.726496 267.571985 
C 371.226344 272.335378 383.552654 274.787234 396 274.787234 
C 408.447346 274.787234 420.773656 272.335378 432.273504 267.571985 
C 443.773352 262.808593 454.223094 255.826298 463.024696 247.024696 
C 471.826298 238.223094 478.808593 227.773352 483.571985 216.273504 
C 488.335378 204.773656 490.787234 192.447346 490.787234 180 
C 490.787234 167.552654 488.335378 155.226344 483.571985 143.726496 
C 478.808593 132.226648 471.826298 121.776906 463.024696 112.975304 
C 454.223094 104.173702 443.773352 97.191407 432.273504 92.428015 
C 420.773656 87.664622 408.447346 85.212766 396 85.212766 
" style="fill: none; stroke: #222222; stroke-width: 0.8; stroke-linejoin: miter; stroke-linecap: square"/>
   </g>
   <g id="text_22">
    <!-- Data Maintenance -->
    <g transform="translate(331.981719 66.98887) scale(0.14 -0.14)">
     <defs>
      <path id="DejaVuSans-4d" d="M 628 4666 
L 1569 4666 
L 2759 1491 
L 3956 4666 
L 4897 4666 
L 4897 0 
L 4281 0 
L 4281 4097 
L 3078 897 
L 2444 897 
L 1241 4097 
L 1241 0 
L 628 0 
L 628 4666 
z
" transform="scale(0.015625)"/>
     </defs>
     <use xlink:href="#DejaVuSans-44"/>
     <use xlink:href="#DejaVuSans-61" x="77.001953"/>
     <use xlink:href="#DejaVuSans-74" x="138.28125"/>
     <use xlink:href="#DejaVuSans-61" x="177.490234"/>
     <use xlink:href="#DejaVuSans-20" x="238.769531"/>
     <use xlink:href="#DejaVuSans-4d" x="270.556641"/>
     <use xlink:href="#DejaVuSans-61" x="356.835938"/>
     <use xlink:href="#DejaVuSans-69" x="418.115234"/>
     <use xlink:href="#DejaVuSans-6e" x="445.898438"/>
     <use xlink:href="#DejaVuSans-74" x="509.277344"/>
     <use xlink:href="#DejaVuSans-65" x="548.486328"/>
     <use xlink:href="#DejaVuSans-6e" x="610.009766"/>
     <use xlink:href="#DejaVuSans-61" x="673.388672"/>
     <use xlink:href="#DejaVuSans-6e" x="734.667969"/>
     <use xlink:href="#DejaVuSans-63" x="798.046875"/>
     <use xlink:href="#DejaVuSans-65" x="853.027344"/>
    </g>
   </g>
   <g id="legend_1">
    <g id="patch_10">
     <path d="M 210.16875 344.617021 
L 581.83125 344.617021 
Q 584.23125 344.617021 584.23125 342.217021 
L 584.23125 308.189521 
Q 584.23125 305.789521 581.83125 305.789521 
L 210.16875 305.789521 
Q 207.76875 305.789521 207.76875 308.189521 
L 207.76875 342.217021 
Q 207.76875 344.617021 210.16875 344.617021 
z
" style="fill: #ffffff; opacity: 0.8; stroke: #cccccc; stroke-linejoin: miter"/>
    </g>
    <g id="line2d_35">
     <path d="M 212.56875 315.507646 
L 224.56875 315.507646 
L 236.56875 315.507646 
" style="fill: none; stroke: #006400; stroke-linecap: square"/>
    </g>
    <g id="text_23">
     <!-- http://taxref.mnhn.fr/lod/taxref-ld -->
     <g transform="translate(246.16875 319.707646) scale(0.12 -0.12)">
      <defs>
       <path id="DejaVuSans-70" d="M 1159 525 
L 1159 -1331 
L 581 -1331 
L 581 3500 
L 1159 3500 
L 1159 2969 
Q 1341 3281 1617 3432 
Q 1894 3584 2278 3584 
Q 2916 3584 3314 3078 
Q 3713 2572 3713 1747 
Q 3713 922 3314 415 
Q 2916 -91 2278 -91 
Q 1894 -91 1617 61 
Q 1341 213 1159 525 
z
M 3116 1747 
Q 3116 2381 2855 2742 
Q 2594 3103 2138 3103 
Q 1681 3103 1420 2742 
Q 1159 2381 1159 1747 
Q 1159 1113 1420 752 
Q 1681 391 2138 391 
Q 2594 391 2855 752 
Q 3116 1113 3116 1747 
z
" transform="scale(0.015625)"/>
       <path id="DejaVuSans-3a" d="M 750 794 
L 1409 794 
L 1409 0 
L 750 0 
L 750 794 
z
M 750 3309 
L 1409 3309 
L 1409 2516 
L 750 2516 
L 750 3309 
z
" transform="scale(0.015625)"/>
       <path id="DejaVuSans-2f" d="M 1625 4666 
L 2156 4666 
L 531 -594 
L 0 -594 
L 1625 4666 
z
" transform="scale(0.015625)"/>
       <path id="DejaVuSans-78" d="M 3513 3500 
L 2247 1797 
L 3578 0 
L 2900 0 
L 1881 1375 
L 863 0 
L 184 0 
L 1544 1831 
L 300 3500 
L 978 3500 
L 1906 2253 
L 2834 3500 
L 3513 3500 
z
" transform="scale(0.015625)"/>
       <path id="DejaVuSans-66" d="M 2375 4863 
L 2375 4384 
L 1825 4384 
Q 1516 4384 1395 4259 
Q 1275 4134 1275 3809 
L 1275 3500 
L 2222 3500 
L 2222 3053 
L 1275 3053 
L 1275 0 
L 697 0 
L 697 3053 
L 147 3053 
L 147 3500 
L 697 3500 
L 697 3744 
Q 697 4328 969 4595 
Q 1241 4863 1831 4863 
L 2375 4863 
z
" transform="scale(0.015625)"/>
       <path id="DejaVuSans-2e" d="M 684 794 
L 1344 794 
L 1344 0 
L 684 0 
L 684 794 
z
" transform="scale(0.015625)"/>
       <path id="DejaVuSans-6d" d="M 3328 2828 
Q 3544 3216 3844 3400 
Q 4144 3584 4550 3584 
Q 5097 3584 5394 3201 
Q 5691 2819 5691 2113 
L 5691 0 
L 5113 0 
L 5113 2094 
Q 5113 2597 4934 2840 
Q 4756 3084 4391 3084 
Q 3944 3084 3684 2787 
Q 3425 2491 3425 1978 
L 3425 0 
L 2847 0 
L 2847 2094 
Q 2847 2600 2669 2842 
Q 2491 3084 2119 3084 
Q 1678 3084 1418 2786 
Q 1159 2488 1159 1978 
L 1159 0 
L 581 0 
L 581 3500 
L 1159 3500 
L 1159 2956 
Q 1356 3278 1631 3431 
Q 1906 3584 2284 3584 
Q 2666 3584 2933 3390 
Q 3200 3197 3328 2828 
z
" transform="scale(0.015625)"/>
       <path id="DejaVuSans-64" d="M 2906 2969 
L 2906 4863 
L 3481 4863 
L 3481 0 
L 2906 0 
L 2906 525 
Q 2725 213 2448 61 
Q 2172 -91 1784 -91 
Q 1150 -91 751 415 
Q 353 922 353 1747 
Q 353 2572 751 3078 
Q 1150 3584 1784 3584 
Q 2172 3584 2448 3432 
Q 2725 3281 2906 2969 
z
M 947 1747 
Q 947 1113 1208 752 
Q 1469 391 1925 391 
Q 2381 391 2643 752 
Q 2906 1113 2906 1747 
Q 2906 2381 2643 2742 
Q 2381 3103 1925 3103 
Q 1469 3103 1208 2742 
Q 947 2381 947 1747 
z
" transform="scale(0.015625)"/>
       <path id="DejaVuSans-2d" d="M 313 2009 
L 1997 2009 
L 1997 1497 
L 313 1497 
L 313 2009 
z
" transform="scale(0.015625)"/>
      </defs>
      <use xlink:href="#DejaVuSans-68"/>
      <use xlink:href="#DejaVuSans-74" x="63.378906"/>
      <use xlink:href="#DejaVuSans-74" x="102.587891"/>
      <use xlink:href="#DejaVuSans-70" x="141.796875"/>
      <use xlink:href="#DejaVuSans-3a" x="205.273438"/>
      <use xlink:href="#DejaVuSans-2f" x="238.964844"/>
      <use xlink:href="#DejaVuSans-2f" x="272.65625"/>
      <use xlink:href="#DejaVuSans-74" x="306.347656"/>
      <use xlink:href="#DejaVuSans-61" x="345.556641"/>
      <use xlink:href="#DejaVuSans-78" x="406.835938"/>
      <use xlink:href="#DejaVuSans-72" x="466.015625"/>
      <use xlink:href="#DejaVuSans-65" x="504.878906"/>
      <use xlink:href="#DejaVuSans-66" x="566.402344"/>
      <use xlink:href="#DejaVuSans-2e" x="594.357422"/>
      <use xlink:href="#DejaVuSans-6d" x="626.144531"/>
      <use xlink:href="#DejaVuSans-6e" x="723.556641"/>
      <use xlink:href="#DejaVuSans-68" x="786.935547"/>
      <use xlink:href="#DejaVuSans-6e" x="850.314453"/>
      <use xlink:href="#DejaVuSans-2e" x="913.693359"/>
      <use xlink:href="#DejaVuSans-66" x="945.480469"/>
      <use xlink:href="#DejaVuSans-72" x="980.685547"/>
      <use xlink:href="#DejaVuSans-2f" x="1021.798828"/>
      <use xlink:href="#DejaVuSans-6c" x="1055.490234"/>
      <use xlink:href="#DejaVuSans-6f" x="1083.273438"/>
      <use xlink:href="#DejaVuSans-64" x="1144.455078"/>
      <use xlink:href="#DejaVuSans-2f" x="1207.931641"/>
      <use xlink:href="#DejaVuSans-74" x="1241.623047"/>
      <use xlink:href="#DejaVuSans-61" x="1280.832031"/>
      <use xlink:href="#DejaVuSans-78" x="1342.111328"/>
      <use xlink:href="#DejaVuSans-72" x="1401.291016"/>
      <use xlink:href="#DejaVuSans-65" x="1440.154297"/>
      <use xlink:href="#DejaVuSans-66" x="1501.677734"/>
      <use xlink:href="#DejaVuSans-2d" x="1531.382812"/>
      <use xlink:href="#DejaVuSans-6c" x="1567.466797"/>
      <use xlink:href="#DejaVuSans-64" x="1595.25"/>
     </g>
    </g>
    <g id="line2d_36">
     <path d="M 212.56875 333.121396 
L 224.56875 333.121396 
L 236.56875 333.121396 
" style="fill: none; stroke: #6495ed; stroke-linecap: square"/>
    </g>
    <g id="text_24">
     <!-- http://rdf.muninn-project.org/ww1/muninn-ww1-dataset -->
     <g transform="translate(246.16875 337.321396) scale(0.12 -0.12)">
      <defs>
       <path id="DejaVuSans-75" d="M 544 1381 
L 544 3500 
L 1119 3500 
L 1119 1403 
Q 1119 906 1312 657 
Q 1506 409 1894 409 
Q 2359 409 2629 706 
Q 2900 1003 2900 1516 
L 2900 3500 
L 3475 3500 
L 3475 0 
L 2900 0 
L 2900 538 
Q 2691 219 2414 64 
Q 2138 -91 1772 -91 
Q 1169 -91 856 284 
Q 544 659 544 1381 
z
M 1991 3584 
L 1991 3584 
z
" transform="scale(0.015625)"/>
       <path id="DejaVuSans-6a" d="M 603 3500 
L 1178 3500 
L 1178 -63 
Q 1178 -731 923 -1031 
Q 669 -1331 103 -1331 
L -116 -1331 
L -116 -844 
L 38 -844 
Q 366 -844 484 -692 
Q 603 -541 603 -63 
L 603 3500 
z
M 603 4863 
L 1178 4863 
L 1178 4134 
L 603 4134 
L 603 4863 
z
" transform="scale(0.015625)"/>
       <path id="DejaVuSans-67" d="M 2906 1791 
Q 2906 2416 2648 2759 
Q 2391 3103 1925 3103 
Q 1463 3103 1205 2759 
Q 947 2416 947 1791 
Q 947 1169 1205 825 
Q 1463 481 1925 481 
Q 2391 481 2648 825 
Q 2906 1169 2906 1791 
z
M 3481 434 
Q 3481 -459 3084 -895 
Q 2688 -1331 1869 -1331 
Q 1566 -1331 1297 -1286 
Q 1028 -1241 775 -1147 
L 775 -588 
Q 1028 -725 1275 -790 
Q 1522 -856 1778 -856 
Q 2344 -856 2625 -561 
Q 2906 -266 2906 331 
L 2906 616 
Q 2728 306 2450 153 
Q 2172 0 1784 0 
Q 1141 0 747 490 
Q 353 981 353 1791 
Q 353 2603 747 3093 
Q 1141 3584 1784 3584 
Q 2172 3584 2450 3431 
Q 2728 3278 2906 2969 
L 2906 3500 
L 3481 3500 
L 3481 434 
z
" transform="scale(0.015625)"/>
       <path id="DejaVuSans-73" d="M 2834 3397 
L 2834 2853 
Q 2591 2978 2328 3040 
Q 2066 3103 1784 3103 
Q 1356 3103 1142 2972 
Q 928 2841 928 2578 
Q 928 2378 1081 2264 
Q 1234 2150 1697 2047 
L 1894 2003 
Q 2506 1872 2764 1633 
Q 3022 1394 3022 966 
Q 3022 478 2636 193 
Q 2250 -91 1575 -91 
Q 1294 -91 989 -36 
Q 684 19 347 128 
L 347 722 
Q 666 556 975 473 
Q 1284 391 1588 391 
Q 1994 391 2212 530 
Q 2431 669 2431 922 
Q 2431 1156 2273 1281 
Q 2116 1406 1581 1522 
L 1381 1569 
Q 847 1681 609 1914 
Q 372 2147 372 2553 
Q 372 3047 722 3315 
Q 1072 3584 1716 3584 
Q 2034 3584 2315 3537 
Q 2597 3491 2834 3397 
z
" transform="scale(0.015625)"/>
      </defs>
      <use xlink:href="#DejaVuSans-68"/>
      <use xlink:href="#DejaVuSans-74" x="63.378906"/>
      <use xlink:href="#DejaVuSans-74" x="102.587891"/>
      <use xlink:href="#DejaVuSans-70" x="141.796875"/>
      <use xlink:href="#DejaVuSans-3a" x="205.273438"/>
      <use xlink:href="#DejaVuSans-2f" x="238.964844"/>
      <use xlink:href="#DejaVuSans-2f" x="272.65625"/>
      <use xlink:href="#DejaVuSans-72" x="306.347656"/>
      <use xlink:href="#DejaVuSans-64" x="345.710938"/>
      <use xlink:href="#DejaVuSans-66" x="409.1875"/>
      <use xlink:href="#DejaVuSans-2e" x="437.142578"/>
      <use xlink:href="#DejaVuSans-6d" x="468.929688"/>
      <use xlink:href="#DejaVuSans-75" x="566.341797"/>
      <use xlink:href="#DejaVuSans-6e" x="629.720703"/>
      <use xlink:href="#DejaVuSans-69" x="693.099609"/>
      <use xlink:href="#DejaVuSans-6e" x="720.882812"/>
      <use xlink:href="#DejaVuSans-6e" x="784.261719"/>
      <use xlink:href="#DejaVuSans-2d" x="847.640625"/>
      <use xlink:href="#DejaVuSans-70" x="883.724609"/>
      <use xlink:href="#DejaVuSans-72" x="947.201172"/>
      <use xlink:href="#DejaVuSans-6f" x="986.064453"/>
      <use xlink:href="#DejaVuSans-6a" x="1047.246094"/>
      <use xlink:href="#DejaVuSans-65" x="1075.029297"/>
      <use xlink:href="#DejaVuSans-63" x="1136.552734"/>
      <use xlink:href="#DejaVuSans-74" x="1191.533203"/>
      <use xlink:href="#DejaVuSans-2e" x="1230.742188"/>
      <use xlink:href="#DejaVuSans-6f" x="1262.529297"/>
      <use xlink:href="#DejaVuSans-72" x="1323.710938"/>
      <use xlink:href="#DejaVuSans-67" x="1363.074219"/>
      <use xlink:href="#DejaVuSans-2f" x="1426.550781"/>
      <use xlink:href="#DejaVuSans-77" x="1460.242188"/>
      <use xlink:href="#DejaVuSans-77" x="1542.029297"/>
      <use xlink:href="#DejaVuSans-31" x="1623.816406"/>
      <use xlink:href="#DejaVuSans-2f" x="1687.439453"/>
      <use xlink:href="#DejaVuSans-6d" x="1721.130859"/>
      <use xlink:href="#DejaVuSans-75" x="1818.542969"/>
      <use xlink:href="#DejaVuSans-6e" x="1881.921875"/>
      <use xlink:href="#DejaVuSans-69" x="1945.300781"/>
      <use xlink:href="#DejaVuSans-6e" x="1973.083984"/>
      <use xlink:href="#DejaVuSans-6e" x="2036.462891"/>
      <use xlink:href="#DejaVuSans-2d" x="2099.841797"/>
      <use xlink:href="#DejaVuSans-77" x="2135.925781"/>
      <use xlink:href="#DejaVuSans-77" x="2217.712891"/>
      <use xlink:href="#DejaVuSans-31" x="2299.5"/>
      <use xlink:href="#DejaVuSans-2d" x="2363.123047"/>
      <use xlink:href="#DejaVuSans-64" x="2399.207031"/>
      <use xlink:href="#DejaVuSans-61" x="2462.683594"/>
      <use xlink:href="#DejaVuSans-74" x="2523.962891"/>
      <use xlink:href="#DejaVuSans-61" x="2563.171875"/>
      <use xlink:href="#DejaVuSans-73" x="2624.451172"/>
      <use xlink:href="#DejaVuSans-65" x="2676.550781"/>
      <use xlink:href="#DejaVuSans-74" x="2738.074219"/>
     </g>
    </g>
   </g>
  </g>
  <g id="axes_3">
   <g id="patch_11">
    <path d="M 752.4 180 
C 752.4 167.552654 749.948144 155.226344 745.184751 143.726496 
C 740.421359 132.226648 733.439064 121.776906 724.637462 112.975304 
C 715.835859 104.173702 705.386118 97.191407 693.88627 92.428015 
C 682.386422 87.664622 670.060111 85.212766 657.612766 85.212766 
C 645.16542 85.212766 632.83911 87.664622 621.339262 92.428015 
C 609.839414 97.191407 599.389672 104.173702 590.58807 112.975304 
C 581.786468 121.776906 574.804173 132.226648 570.04078 143.726496 
C 565.277388 155.226344 562.825532 167.552654 562.825532 180 
C 562.825532 192.447346 565.277388 204.773656 570.04078 216.273504 
C 574.804173 227.773352 581.786468 238.223094 590.58807 247.024696 
C 599.389672 255.826298 609.839414 262.808593 621.339262 267.571985 
C 632.83911 272.335378 645.16542 274.787234 657.612766 274.787234 
C 670.060111 274.787234 682.386422 272.335378 693.88627 267.571985 
C 705.386118 262.808593 715.835859 255.826298 724.637462 247.024696 
C 733.439064 238.223094 740.421359 227.773352 745.184751 216.273504 
C 749.948144 204.773656 752.4 192.447346 752.4 180 
M 657.612766 180 
C 657.612766 180 657.612766 180 657.612766 180 
C 657.612766 180 657.612766 180 657.612766 180 
C 657.612766 180 657.612766 180 657.612766 180 
C 657.612766 180 657.612766 180 657.612766 180 
C 657.612766 180 657.612766 180 657.612766 180 
C 657.612766 180 657.612766 180 657.612766 180 
C 657.612766 180 657.612766 180 657.612766 180 
C 657.612766 180 657.612766 180 657.612766 180 
C 657.612766 180 657.612766 180 657.612766 180 
C 657.612766 180 657.612766 180 657.612766 180 
C 657.612766 180 657.612766 180 657.612766 180 
C 657.612766 180 657.612766 180 657.612766 180 
C 657.612766 180 657.612766 180 657.612766 180 
C 657.612766 180 657.612766 180 657.612766 180 
C 657.612766 180 657.612766 180 657.612766 180 
C 657.612766 180 657.612766 180 657.612766 180 
M 752.4 180 
z
" style="fill: #fbfbfc"/>
   </g>
   <g id="patch_12">
    <path d="M 657.612766 156.303191 
L 687.662105 170.236378 
L 713.327304 256.684483 
L 615.826862 237.513362 
L 597.514088 160.472756 
z
" clip-path="url(#pc8e74f63e9)" style="fill: #006400; opacity: 0.25; stroke: #006400; stroke-linejoin: miter"/>
   </g>
   <g id="patch_13">
    <path d="M 657.612766 156.303191 
L 657.612766 180 
L 699.39867 237.513362 
L 615.826862 237.513362 
L 585.494353 156.567307 
z
" clip-path="url(#pc8e74f63e9)" style="fill: #6495ed; opacity: 0.25; stroke: #6495ed; stroke-linejoin: miter"/>
   </g>
   <g id="matplotlib.axis_5">
    <g id="xtick_11">
     <g id="line2d_37">
      <path d="M 657.612766 180 
L 657.612766 85.212766 
" clip-path="url(#pc8e74f63e9)" style="fill: none; stroke: #aaaaaa; stroke-width: 0.8; stroke-linecap: square"/>
     </g>
     <g id="text_25">
      <!-- How -->
      <g style="fill: #222222" transform="translate(644.522453 82.106995) scale(0.12 -0.12)">
       <use xlink:href="#DejaVuSans-48"/>
       <use xlink:href="#DejaVuSans-6f" x="75.195312"/>
       <use xlink:href="#DejaVuSans-77" x="136.376953"/>
      </g>
     </g>
    </g>
    <g id="xtick_12">
     <g id="line2d_38">
      <path d="M 657.612766 180 
L 747.760783 150.709134 
" clip-path="url(#pc8e74f63e9)" style="fill: none; stroke: #aaaaaa; stroke-width: 0.8; stroke-linecap: square"/>
     </g>
     <g id="text_26">
      <!-- When -->
      <g style="fill: #222222" transform="translate(750.257812 153.20905) scale(0.12 -0.12)">
       <use xlink:href="#DejaVuSans-57"/>
       <use xlink:href="#DejaVuSans-68" x="98.876953"/>
       <use xlink:href="#DejaVuSans-65" x="162.255859"/>
       <use xlink:href="#DejaVuSans-6e" x="223.779297"/>
      </g>
     </g>
    </g>
    <g id="xtick_13">
     <g id="line2d_39">
      <path d="M 657.612766 180 
L 713.327304 256.684483 
" clip-path="url(#pc8e74f63e9)" style="fill: none; stroke: #aaaaaa; stroke-width: 0.8; stroke-linecap: square"/>
     </g>
     <g id="text_27">
      <!-- Where -->
      <g style="fill: #222222" transform="translate(714.870553 262.119833) scale(0.12 -0.12)">
       <use xlink:href="#DejaVuSans-57"/>
       <use xlink:href="#DejaVuSans-68" x="98.876953"/>
       <use xlink:href="#DejaVuSans-65" x="162.255859"/>
       <use xlink:href="#DejaVuSans-72" x="223.779297"/>
       <use xlink:href="#DejaVuSans-65" x="262.642578"/>
      </g>
     </g>
    </g>
    <g id="xtick_14">
     <g id="line2d_40">
      <path d="M 657.612766 180 
L 601.898228 256.684483 
" clip-path="url(#pc8e74f63e9)" style="fill: none; stroke: #aaaaaa; stroke-width: 0.8; stroke-linecap: square"/>
     </g>
     <g id="text_28">
      <!-- Who -->
      <g style="fill: #222222" transform="translate(573.542479 262.119833) scale(0.12 -0.12)">
       <use xlink:href="#DejaVuSans-57"/>
       <use xlink:href="#DejaVuSans-68" x="98.876953"/>
       <use xlink:href="#DejaVuSans-6f" x="162.255859"/>
      </g>
     </g>
    </g>
    <g id="xtick_15">
     <g id="line2d_41">
      <path d="M 657.612766 180 
L 567.464749 150.709134 
" clip-path="url(#pc8e74f63e9)" style="fill: none; stroke: #aaaaaa; stroke-width: 0.8; stroke-linecap: square"/>
     </g>
     <g id="text_29">
      <!-- What -->
      <g style="fill: #222222" transform="translate(533.439595 153.20905) scale(0.12 -0.12)">
       <use xlink:href="#DejaVuSans-57"/>
       <use xlink:href="#DejaVuSans-68" x="98.876953"/>
       <use xlink:href="#DejaVuSans-61" x="162.255859"/>
       <use xlink:href="#DejaVuSans-74" x="223.535156"/>
      </g>
     </g>
    </g>
    <g id="xtick_16">
     <g id="line2d_42">
      <path d="M 657.612766 180 
L 657.612766 85.212766 
" clip-path="url(#pc8e74f63e9)" style="fill: none; stroke: #aaaaaa; stroke-width: 0.8; stroke-linecap: square"/>
     </g>
    </g>
   </g>
   <g id="matplotlib.axis_6">
    <g id="ytick_21">
     <g id="line2d_43">
      <path d="M 657.612766 170.521277 
C 658.857501 170.521277 660.090132 170.766462 661.240116 171.242801 
C 662.390101 171.719141 663.435075 172.41737 664.315236 173.29753 
C 665.195396 174.177691 665.893625 175.222665 666.369965 176.37265 
C 666.846304 177.522634 667.091489 178.755265 667.091489 180 
C 667.091489 181.244735 666.846304 182.477366 666.369965 183.62735 
C 665.893625 184.777335 665.195396 185.822309 664.315236 186.70247 
C 663.435075 187.58263 662.390101 188.280859 661.240116 188.757199 
C 660.090132 189.233538 658.857501 189.478723 657.612766 189.478723 
C 656.368031 189.478723 655.1354 189.233538 653.985416 188.757199 
C 652.835431 188.280859 651.790457 187.58263 650.910296 186.70247 
C 650.030136 185.822309 649.331907 184.777335 648.855567 183.62735 
C 648.379228 182.477366 648.134043 181.244735 648.134043 180 
C 648.134043 178.755265 648.379228 177.522634 648.855567 176.37265 
C 649.331907 175.222665 650.030136 174.177691 650.910296 173.29753 
C 651.790457 172.41737 652.835431 171.719141 653.985416 171.242801 
C 655.1354 170.766462 656.368031 170.521277 657.612766 170.521277 
" clip-path="url(#pc8e74f63e9)" style="fill: none; stroke-dasharray: 2.96,1.28; stroke-dashoffset: 0; stroke: #aaaaaa; stroke-width: 0.8"/>
     </g>
     <g id="text_31">
      <!-- 20% -->
      <g style="fill: #222222" transform="translate(663.18422 169.835927) scale(0.12 -0.12)">
       <use xlink:href="#DejaVuSans-32"/>
       <use xlink:href="#DejaVuSans-30" x="63.623047"/>
       <use xlink:href="#DejaVuSans-25" x="127.246094"/>
      </g>
     </g>
    </g>
    <g id="ytick_22">
     <g id="line2d_44">
      <path d="M 657.612766 161.042553 
C 660.102235 161.042553 662.567497 161.532924 664.867467 162.485603 
C 667.167436 163.438281 669.257385 164.83474 671.017705 166.595061 
C 672.778026 168.355381 674.174484 170.44533 675.127163 172.745299 
C 676.079842 175.045269 676.570213 177.510531 676.570213 180 
C 676.570213 182.489469 676.079842 184.954731 675.127163 187.254701 
C 674.174484 189.55467 672.778026 191.644619 671.017705 193.404939 
C 669.257385 195.16526 667.167436 196.561719 664.867467 197.514397 
C 662.567497 198.467076 660.102235 198.957447 657.612766 198.957447 
C 655.123297 198.957447 652.658035 198.467076 650.358065 197.514397 
C 648.058096 196.561719 645.968147 195.16526 644.207827 193.404939 
C 642.447506 191.644619 641.051047 189.55467 640.098369 187.254701 
C 639.14569 184.954731 638.655319 182.489469 638.655319 180 
C 638.655319 177.510531 639.14569 175.045269 640.098369 172.745299 
C 641.051047 170.44533 642.447506 168.355381 644.207827 166.595061 
C 645.968147 164.83474 648.058096 163.438281 650.358065 162.485603 
C 652.658035 161.532924 655.123297 161.042553 657.612766 161.042553 
" clip-path="url(#pc8e74f63e9)" style="fill: none; stroke: #aaaaaa; stroke-width: 0.8; stroke-linecap: square"/>
     </g>
    </g>
    <g id="ytick_23">
     <g id="line2d_45">
      <path d="M 657.612766 151.56383 
C 661.34697 151.56383 665.044863 152.299386 668.494817 153.728404 
C 671.944772 155.157422 675.079694 157.25211 677.720175 159.892591 
C 680.360655 162.533072 682.455344 165.667994 683.884362 169.117949 
C 685.313379 172.567903 686.048936 176.265796 686.048936 180 
C 686.048936 183.734204 685.313379 187.432097 683.884362 190.882051 
C 682.455344 194.332006 680.360655 197.466928 677.720175 200.107409 
C 675.079694 202.74789 671.944772 204.842578 668.494817 206.271596 
C 665.044863 207.700614 661.34697 208.43617 657.612766 208.43617 
C 653.878562 208.43617 650.180669 207.700614 646.730715 206.271596 
C 643.28076 204.842578 640.145838 202.74789 637.505357 200.107409 
C 634.864876 197.466928 632.770188 194.332006 631.34117 190.882051 
C 629.912152 187.432097 629.176596 183.734204 629.176596 180 
C 629.176596 176.265796 629.912152 172.567903 631.34117 169.117949 
C 632.770188 165.667994 634.864876 162.533072 637.505357 159.892591 
C 640.145838 157.25211 643.28076 155.157422 646.730715 153.728404 
C 650.180669 152.299386 653.878562 151.56383 657.612766 151.56383 
" clip-path="url(#pc8e74f63e9)" style="fill: none; stroke-dasharray: 2.96,1.28; stroke-dashoffset: 0; stroke: #aaaaaa; stroke-width: 0.8"/>
     </g>
     <g id="text_32">
      <!-- 40% -->
      <g style="fill: #222222" transform="translate(674.327127 154.49903) scale(0.12 -0.12)">
       <use xlink:href="#DejaVuSans-34"/>
       <use xlink:href="#DejaVuSans-30" x="63.623047"/>
       <use xlink:href="#DejaVuSans-25" x="127.246094"/>
      </g>
     </g>
    </g>
    <g id="ytick_24">
     <g id="line2d_46">
      <path d="M 657.612766 142.085106 
C 662.591704 142.085106 667.522228 143.065849 672.122168 144.971206 
C 676.722107 146.876563 680.902003 149.669481 684.422644 153.190122 
C 687.943285 156.710763 690.736203 160.890659 692.64156 165.490598 
C 694.546917 170.090537 695.52766 175.021062 695.52766 180 
C 695.52766 184.978938 694.546917 189.909463 692.64156 194.509402 
C 690.736203 199.109341 687.943285 203.289237 684.422644 206.809878 
C 680.902003 210.330519 676.722107 213.123437 672.122168 215.028794 
C 667.522228 216.934151 662.591704 217.914894 657.612766 217.914894 
C 652.633828 217.914894 647.703303 216.934151 643.103364 215.028794 
C 638.503425 213.123437 634.323529 210.330519 630.802888 206.809878 
C 627.282247 203.289237 624.489329 199.109341 622.583972 194.509402 
C 620.678615 189.909463 619.697872 184.978938 619.697872 180 
C 619.697872 175.021062 620.678615 170.090537 622.583972 165.490598 
C 624.489329 160.890659 627.282247 156.710763 630.802888 153.190122 
C 634.323529 149.669481 638.503425 146.876563 643.103364 144.971206 
C 647.703303 143.065849 652.633828 142.085106 657.612766 142.085106 
" clip-path="url(#pc8e74f63e9)" style="fill: none; stroke: #aaaaaa; stroke-width: 0.8; stroke-linecap: square"/>
     </g>
    </g>
    <g id="ytick_25">
     <g id="line2d_47">
      <path d="M 657.612766 132.606383 
C 663.836439 132.606383 669.999594 133.832311 675.749518 136.214007 
C 681.499442 138.595704 686.724313 142.086851 691.125114 146.487652 
C 695.525915 150.888453 699.017062 156.113324 701.398759 161.863248 
C 703.780455 167.613172 705.006383 173.776327 705.006383 180 
C 705.006383 186.223673 703.780455 192.386828 701.398759 198.136752 
C 699.017062 203.886676 695.525915 209.111547 691.125114 213.512348 
C 686.724313 217.913149 681.499442 221.404296 675.749518 223.785993 
C 669.999594 226.167689 663.836439 227.393617 657.612766 227.393617 
C 651.389093 227.393617 645.225938 226.167689 639.476014 223.785993 
C 633.72609 221.404296 628.501219 217.913149 624.100418 213.512348 
C 619.699617 209.111547 616.20847 203.886676 613.826773 198.136752 
C 611.445077 192.386828 610.219149 186.223673 610.219149 180 
C 610.219149 173.776327 611.445077 167.613172 613.826773 161.863248 
C 616.20847 156.113324 619.699617 150.888453 624.100418 146.487652 
C 628.501219 142.086851 633.72609 138.595704 639.476014 136.214007 
C 645.225938 133.832311 651.389093 132.606383 657.612766 132.606383 
" clip-path="url(#pc8e74f63e9)" style="fill: none; stroke-dasharray: 2.96,1.28; stroke-dashoffset: 0; stroke: #aaaaaa; stroke-width: 0.8"/>
     </g>
     <g id="text_33">
      <!-- 60% -->
      <g style="fill: #222222" transform="translate(685.470035 139.162133) scale(0.12 -0.12)">
       <use xlink:href="#DejaVuSans-36"/>
       <use xlink:href="#DejaVuSans-30" x="63.623047"/>
       <use xlink:href="#DejaVuSans-25" x="127.246094"/>
      </g>
     </g>
    </g>
    <g id="ytick_26">
     <g id="line2d_48">
      <path d="M 657.612766 123.12766 
C 665.081173 123.12766 672.47696 124.598773 679.376868 127.456809 
C 686.276777 130.314844 692.546622 134.504221 697.827584 139.785182 
C 703.108545 145.066144 707.297921 151.335989 710.155957 158.235898 
C 713.013993 165.135806 714.485106 172.531593 714.485106 180 
C 714.485106 187.468407 713.013993 194.864194 710.155957 201.764102 
C 707.297921 208.664011 703.108545 214.933856 697.827584 220.214818 
C 692.546622 225.495779 686.276777 229.685156 679.376868 232.543191 
C 672.47696 235.401227 665.081173 236.87234 657.612766 236.87234 
C 650.144359 236.87234 642.748572 235.401227 635.848664 232.543191 
C 628.948755 229.685156 622.67891 225.495779 617.397948 220.214818 
C 612.116987 214.933856 607.92761 208.664011 605.069575 201.764102 
C 602.211539 194.864194 600.740426 187.468407 600.740426 180 
C 600.740426 172.531593 602.211539 165.135806 605.069575 158.235898 
C 607.92761 151.335989 612.116987 145.066144 617.397948 139.785182 
C 622.67891 134.504221 628.948755 130.314844 635.848664 127.456809 
C 642.748572 124.598773 650.144359 123.12766 657.612766 123.12766 
" clip-path="url(#pc8e74f63e9)" style="fill: none; stroke: #aaaaaa; stroke-width: 0.8; stroke-linecap: square"/>
     </g>
    </g>
    <g id="ytick_27">
     <g id="line2d_49">
      <path d="M 657.612766 113.648936 
C 666.325908 113.648936 674.954325 115.365235 683.004219 118.69961 
C 691.054112 122.033985 698.368931 126.921591 704.530053 133.082713 
C 710.691175 139.243835 715.578781 146.558654 718.913156 154.608547 
C 722.247531 162.658441 723.96383 171.286858 723.96383 180 
C 723.96383 188.713142 722.247531 197.341559 718.913156 205.391453 
C 715.578781 213.441346 710.691175 220.756165 704.530053 226.917287 
C 698.368931 233.078409 691.054112 237.966015 683.004219 241.30039 
C 674.954325 244.634765 666.325908 246.351064 657.612766 246.351064 
C 648.899624 246.351064 640.271207 244.634765 632.221313 241.30039 
C 624.17142 237.966015 616.8566 233.078409 610.695479 226.917287 
C 604.534357 220.756165 599.646751 213.441346 596.312376 205.391453 
C 592.978001 197.341559 591.261702 188.713142 591.261702 180 
C 591.261702 171.286858 592.978001 162.658441 596.312376 154.608547 
C 599.646751 146.558654 604.534357 139.243835 610.695479 133.082713 
C 616.8566 126.921591 624.17142 122.033985 632.221313 118.69961 
C 640.271207 115.365235 648.899624 113.648936 657.612766 113.648936 
" clip-path="url(#pc8e74f63e9)" style="fill: none; stroke-dasharray: 2.96,1.28; stroke-dashoffset: 0; stroke: #aaaaaa; stroke-width: 0.8"/>
     </g>
     <g id="text_34">
      <!-- 80% -->
      <g style="fill: #222222" transform="translate(696.612943 123.825237) scale(0.12 -0.12)">
       <use xlink:href="#DejaVuSans-38"/>
       <use xlink:href="#DejaVuSans-30" x="63.623047"/>
       <use xlink:href="#DejaVuSans-25" x="127.246094"/>
      </g>
     </g>
    </g>
    <g id="ytick_28">
     <g id="line2d_50">
      <path d="M 657.612766 104.170213 
C 667.570642 104.170213 677.431691 106.131697 686.631569 109.942412 
C 695.831447 113.753126 704.191241 119.338961 711.232523 126.380243 
C 718.273805 133.421525 723.85964 141.781319 727.670354 150.981197 
C 731.481069 160.181075 733.442553 170.042124 733.442553 180 
C 733.442553 189.957876 731.481069 199.818925 727.670354 209.018803 
C 723.85964 218.218681 718.273805 226.578475 711.232523 233.619757 
C 704.191241 240.661039 695.831447 246.246874 686.631569 250.057588 
C 677.431691 253.868303 667.570642 255.829787 657.612766 255.829787 
C 647.65489 255.829787 637.793841 253.868303 628.593963 250.057588 
C 619.394084 246.246874 611.034291 240.661039 603.993009 233.619757 
C 596.951727 226.578475 591.365892 218.218681 587.555178 209.018803 
C 583.744463 199.818925 581.782979 189.957876 581.782979 180 
C 581.782979 170.042124 583.744463 160.181075 587.555178 150.981197 
C 591.365892 141.781319 596.951727 133.421525 603.993009 126.380243 
C 611.034291 119.338961 619.394084 113.753126 628.593963 109.942412 
C 637.793841 106.131697 647.65489 104.170213 657.612766 104.170213 
" clip-path="url(#pc8e74f63e9)" style="fill: none; stroke: #aaaaaa; stroke-width: 0.8; stroke-linecap: square"/>
     </g>
    </g>
    <g id="ytick_29">
     <g id="line2d_51">
      <path d="M 657.612766 94.691489 
C 668.815377 94.691489 679.909057 96.898159 690.25892 101.185213 
C 700.608783 105.472267 710.01355 111.756331 717.934992 119.677774 
C 725.856435 127.599216 732.140499 137.003983 736.427553 147.353846 
C 740.714607 157.703709 742.921277 168.797389 742.921277 180 
C 742.921277 191.202611 740.714607 202.296291 736.427553 212.646154 
C 732.140499 222.996017 725.856435 232.400784 717.934992 240.322226 
C 710.01355 248.243669 700.608783 254.527733 690.25892 258.814787 
C 679.909057 263.101841 668.815377 265.308511 657.612766 265.308511 
C 646.410155 265.308511 635.316475 263.101841 624.966612 258.814787 
C 614.616749 254.527733 605.211982 248.243669 597.29054 240.322226 
C 589.369097 232.400784 583.085033 222.996017 578.797979 212.646154 
C 574.510925 202.296291 572.304255 191.202611 572.304255 180 
C 572.304255 168.797389 574.510925 157.703709 578.797979 147.353846 
C 583.085033 137.003983 589.369097 127.599216 597.29054 119.677774 
C 605.211982 111.756331 614.616749 105.472267 624.966612 101.185213 
C 635.316475 96.898159 646.410155 94.691489 657.612766 94.691489 
" clip-path="url(#pc8e74f63e9)" style="fill: none; stroke-dasharray: 2.96,1.28; stroke-dashoffset: 0; stroke: #aaaaaa; stroke-width: 0.8"/>
     </g>
     <g id="text_35">
      <!-- 100% -->
      <g style="fill: #222222" transform="translate(707.75585 108.48834) scale(0.12 -0.12)">
       <use xlink:href="#DejaVuSans-31"/>
       <use xlink:href="#DejaVuSans-30" x="63.623047"/>
       <use xlink:href="#DejaVuSans-30" x="127.246094"/>
       <use xlink:href="#DejaVuSans-25" x="190.869141"/>
      </g>
     </g>
    </g>
    <g id="ytick_30">
     <g id="line2d_52">
      <path d="M 657.612766 85.212766 
C 670.060111 85.212766 682.386422 87.664622 693.88627 92.428015 
C 705.386118 97.191407 715.835859 104.173702 724.637462 112.975304 
C 733.439064 121.776906 740.421359 132.226648 745.184751 143.726496 
C 749.948144 155.226344 752.4 167.552654 752.4 180 
C 752.4 192.447346 749.948144 204.773656 745.184751 216.273504 
C 740.421359 227.773352 733.439064 238.223094 724.637462 247.024696 
C 715.835859 255.826298 705.386118 262.808593 693.88627 267.571985 
C 682.386422 272.335378 670.060111 274.787234 657.612766 274.787234 
C 645.16542 274.787234 632.83911 272.335378 621.339262 267.571985 
C 609.839414 262.808593 599.389672 255.826298 590.58807 247.024696 
C 581.786468 238.223094 574.804173 227.773352 570.04078 216.273504 
C 565.277388 204.773656 562.825532 192.447346 562.825532 180 
C 562.825532 167.552654 565.277388 155.226344 570.04078 143.726496 
C 574.804173 132.226648 581.786468 121.776906 590.58807 112.975304 
C 599.389672 104.173702 609.839414 97.191407 621.339262 92.428015 
C 632.83911 87.664622 645.16542 85.212766 657.612766 85.212766 
" clip-path="url(#pc8e74f63e9)" style="fill: none; stroke: #aaaaaa; stroke-width: 0.8; stroke-linecap: square"/>
     </g>
    </g>
   </g>
   <g id="line2d_53">
    <path d="M 657.612766 156.303191 
L 687.662105 170.236378 
L 713.327304 256.684483 
L 615.826862 237.513362 
L 597.514088 160.472756 
L 657.612766 156.303191 
" clip-path="url(#pc8e74f63e9)" style="fill: none; stroke: #006400; stroke-linecap: square"/>
   </g>
   <g id="line2d_54">
    <path d="M 657.612766 156.303191 
L 657.612766 180 
L 699.39867 237.513362 
L 615.826862 237.513362 
L 585.494353 156.567307 
L 657.612766 156.303191 
" clip-path="url(#pc8e74f63e9)" style="fill: none; stroke: #6495ed; stroke-linecap: square"/>
   </g>
   <g id="patch_14">
    <path d="M 657.612766 85.212766 
C 645.16542 85.212766 632.83911 87.664622 621.339262 92.428015 
C 609.839414 97.191407 599.389672 104.173702 590.58807 112.975304 
C 581.786468 121.776906 574.804173 132.226648 570.04078 143.726496 
C 565.277388 155.226344 562.825532 167.552654 562.825532 180 
C 562.825532 192.447346 565.277388 204.773656 570.04078 216.273504 
C 574.804173 227.773352 581.786468 238.223094 590.58807 247.024696 
C 599.389672 255.826298 609.839414 262.808593 621.339262 267.571985 
C 632.83911 272.335378 645.16542 274.787234 657.612766 274.787234 
C 670.060111 274.787234 682.386422 272.335378 693.88627 267.571985 
C 705.386118 262.808593 715.835859 255.826298 724.637462 247.024696 
C 733.439064 238.223094 740.421359 227.773352 745.184751 216.273504 
C 749.948144 204.773656 752.4 192.447346 752.4 180 
C 752.4 167.552654 749.948144 155.226344 745.184751 143.726496 
C 740.421359 132.226648 733.439064 121.776906 724.637462 112.975304 
C 715.835859 104.173702 705.386118 97.191407 693.88627 92.428015 
C 682.386422 87.664622 670.060111 85.212766 657.612766 85.212766 
" style="fill: none; stroke: #222222; stroke-width: 0.8; stroke-linejoin: miter; stroke-linecap: square"/>
   </g>
   <g id="text_36">
    <!-- Data Usage -->
    <g transform="translate(616.864016 66.98887) scale(0.14 -0.14)">
     <defs>
      <path id="DejaVuSans-55" d="M 556 4666 
L 1191 4666 
L 1191 1831 
Q 1191 1081 1462 751 
Q 1734 422 2344 422 
Q 2950 422 3222 751 
Q 3494 1081 3494 1831 
L 3494 4666 
L 4128 4666 
L 4128 1753 
Q 4128 841 3676 375 
Q 3225 -91 2344 -91 
Q 1459 -91 1007 375 
Q 556 841 556 1753 
L 556 4666 
z
" transform="scale(0.015625)"/>
     </defs>
     <use xlink:href="#DejaVuSans-44"/>
     <use xlink:href="#DejaVuSans-61" x="77.001953"/>
     <use xlink:href="#DejaVuSans-74" x="138.28125"/>
     <use xlink:href="#DejaVuSans-61" x="177.490234"/>
     <use xlink:href="#DejaVuSans-20" x="238.769531"/>
     <use xlink:href="#DejaVuSans-55" x="270.556641"/>
     <use xlink:href="#DejaVuSans-73" x="343.75"/>
     <use xlink:href="#DejaVuSans-61" x="395.849609"/>
     <use xlink:href="#DejaVuSans-67" x="457.128906"/>
     <use xlink:href="#DejaVuSans-65" x="520.605469"/>
    </g>
   </g>
  </g>
 </g>
 <defs>
  <clipPath id="pe4e9c7575e">
   <path d="M 229.174468 180 
C 229.174468 167.552654 226.722612 155.226344 221.95922 143.726496 
C 217.195827 132.226648 210.213532 121.776906 201.41193 112.975304 
C 192.610328 104.173702 182.160586 97.191407 170.660738 92.428015 
C 159.16089 87.664622 146.83458 85.212766 134.387234 85.212766 
C 121.939889 85.212766 109.613578 87.664622 98.11373 92.428015 
C 86.613882 97.191407 76.164141 104.173702 67.362538 112.975304 
C 58.560936 121.776906 51.578641 132.226648 46.815249 143.726496 
C 42.051856 155.226344 39.6 167.552654 39.6 180 
C 39.6 192.447346 42.051856 204.773656 46.815249 216.273504 
C 51.578641 227.773352 58.560936 238.223094 67.362538 247.024696 
C 76.164141 255.826298 86.613882 262.808593 98.11373 267.571985 
C 109.613578 272.335378 121.939889 274.787234 134.387234 274.787234 
C 146.83458 274.787234 159.16089 272.335378 170.660738 267.571985 
C 182.160586 262.808593 192.610328 255.826298 201.41193 247.024696 
C 210.213532 238.223094 217.195827 227.773352 221.95922 216.273504 
C 226.722612 204.773656 229.174468 192.447346 229.174468 180 
M 134.387234 180 
C 134.387234 180 134.387234 180 134.387234 180 
C 134.387234 180 134.387234 180 134.387234 180 
C 134.387234 180 134.387234 180 134.387234 180 
C 134.387234 180 134.387234 180 134.387234 180 
C 134.387234 180 134.387234 180 134.387234 180 
C 134.387234 180 134.387234 180 134.387234 180 
C 134.387234 180 134.387234 180 134.387234 180 
C 134.387234 180 134.387234 180 134.387234 180 
C 134.387234 180 134.387234 180 134.387234 180 
C 134.387234 180 134.387234 180 134.387234 180 
C 134.387234 180 134.387234 180 134.387234 180 
C 134.387234 180 134.387234 180 134.387234 180 
C 134.387234 180 134.387234 180 134.387234 180 
C 134.387234 180 134.387234 180 134.387234 180 
C 134.387234 180 134.387234 180 134.387234 180 
C 134.387234 180 134.387234 180 134.387234 180 
M 229.174468 180 
z
"/>
  </clipPath>
  <clipPath id="p1b3ef31ad1">
   <path d="M 490.787234 180 
C 490.787234 167.552654 488.335378 155.226344 483.571985 143.726496 
C 478.808593 132.226648 471.826298 121.776906 463.024696 112.975304 
C 454.223094 104.173702 443.773352 97.191407 432.273504 92.428015 
C 420.773656 87.664622 408.447346 85.212766 396 85.212766 
C 383.552654 85.212766 371.226344 87.664622 359.726496 92.428015 
C 348.226648 97.191407 337.776906 104.173702 328.975304 112.975304 
C 320.173702 121.776906 313.191407 132.226648 308.428015 143.726496 
C 303.664622 155.226344 301.212766 167.552654 301.212766 180 
C 301.212766 192.447346 303.664622 204.773656 308.428015 216.273504 
C 313.191407 227.773352 320.173702 238.223094 328.975304 247.024696 
C 337.776906 255.826298 348.226648 262.808593 359.726496 267.571985 
C 371.226344 272.335378 383.552654 274.787234 396 274.787234 
C 408.447346 274.787234 420.773656 272.335378 432.273504 267.571985 
C 443.773352 262.808593 454.223094 255.826298 463.024696 247.024696 
C 471.826298 238.223094 478.808593 227.773352 483.571985 216.273504 
C 488.335378 204.773656 490.787234 192.447346 490.787234 180 
M 396 180 
C 396 180 396 180 396 180 
C 396 180 396 180 396 180 
C 396 180 396 180 396 180 
C 396 180 396 180 396 180 
C 396 180 396 180 396 180 
C 396 180 396 180 396 180 
C 396 180 396 180 396 180 
C 396 180 396 180 396 180 
C 396 180 396 180 396 180 
C 396 180 396 180 396 180 
C 396 180 396 180 396 180 
C 396 180 396 180 396 180 
C 396 180 396 180 396 180 
C 396 180 396 180 396 180 
C 396 180 396 180 396 180 
C 396 180 396 180 396 180 
M 490.787234 180 
z
"/>
  </clipPath>
  <clipPath id="pc8e74f63e9">
   <path d="M 752.4 180 
C 752.4 167.552654 749.948144 155.226344 745.184751 143.726496 
C 740.421359 132.226648 733.439064 121.776906 724.637462 112.975304 
C 715.835859 104.173702 705.386118 97.191407 693.88627 92.428015 
C 682.386422 87.664622 670.060111 85.212766 657.612766 85.212766 
C 645.16542 85.212766 632.83911 87.664622 621.339262 92.428015 
C 609.839414 97.191407 599.389672 104.173702 590.58807 112.975304 
C 581.786468 121.776906 574.804173 132.226648 570.04078 143.726496 
C 565.277388 155.226344 562.825532 167.552654 562.825532 180 
C 562.825532 192.447346 565.277388 204.773656 570.04078 216.273504 
C 574.804173 227.773352 581.786468 238.223094 590.58807 247.024696 
C 599.389672 255.826298 609.839414 262.808593 621.339262 267.571985 
C 632.83911 272.335378 645.16542 274.787234 657.612766 274.787234 
C 670.060111 274.787234 682.386422 272.335378 693.88627 267.571985 
C 705.386118 262.808593 715.835859 255.826298 724.637462 247.024696 
C 733.439064 238.223094 740.421359 227.773352 745.184751 216.273504 
C 749.948144 204.773656 752.4 192.447346 752.4 180 
M 657.612766 180 
C 657.612766 180 657.612766 180 657.612766 180 
C 657.612766 180 657.612766 180 657.612766 180 
C 657.612766 180 657.612766 180 657.612766 180 
C 657.612766 180 657.612766 180 657.612766 180 
C 657.612766 180 657.612766 180 657.612766 180 
C 657.612766 180 657.612766 180 657.612766 180 
C 657.612766 180 657.612766 180 657.612766 180 
C 657.612766 180 657.612766 180 657.612766 180 
C 657.612766 180 657.612766 180 657.612766 180 
C 657.612766 180 657.612766 180 657.612766 180 
C 657.612766 180 657.612766 180 657.612766 180 
C 657.612766 180 657.612766 180 657.612766 180 
C 657.612766 180 657.612766 180 657.612766 180 
C 657.612766 180 657.612766 180 657.612766 180 
C 657.612766 180 657.612766 180 657.612766 180 
C 657.612766 180 657.612766 180 657.612766 180 
M 752.4 180 
z
"/>
  </clipPath>
 </defs>
</svg>
